<svg width="340" height="222" viewBox="0 0 340 222" fill="none" xmlns="http://www.w3.org/2000/svg">
<g clip-path="url(#clip0)">
<path d="M340 217.205C340 217.28 263.919 217.43 170.038 217.43C76.1565 217.43 0.0751953 217.355 0.0751953 217.205C0.0751953 217.055 76.1565 216.98 170.038 216.98C263.844 217.055 340 217.13 340 217.205Z" fill="#2B2D42"/>
<path d="M230.197 216.98H106.649C101.842 216.98 98.0118 213.084 98.0118 208.364V8.61627C97.9367 3.89605 101.842 0 106.649 0H230.197C235.003 0 238.834 3.89605 238.834 8.61627V208.289C238.834 213.159 235.003 216.98 230.197 216.98Z" fill="#EDF2F4"/>
<path d="M172.741 206.94C172.741 210.162 170.338 212.709 167.334 212.709C164.33 212.709 161.926 210.087 161.926 206.94C161.926 203.793 164.33 201.171 167.334 201.171C170.338 201.096 172.741 203.719 172.741 206.94Z" fill="#2B2D42"/>
<path d="M188.739 8.61626H148.107C147.581 8.61626 147.206 8.24164 147.206 7.71717V7.1927C147.206 6.66823 147.581 6.29361 148.107 6.29361H188.739C189.264 6.29361 189.64 6.66823 189.64 7.1927V7.79209C189.64 8.24164 189.189 8.61626 188.739 8.61626Z" fill="#2B2D42"/>
<path d="M234.778 12.4374H102.744V195.477H234.778V12.4374Z" fill="#2B2D42"/>
<path d="M200.53 176.671C200.53 176.671 200.68 176.671 200.981 176.596C201.281 176.596 201.807 176.521 202.408 176.446C203.009 176.296 203.76 176.072 204.586 175.697C205.412 175.322 206.313 174.723 207.139 173.899C207.966 173.075 208.792 171.951 209.317 170.602C209.843 169.253 210.068 167.68 209.918 166.032C209.768 164.383 209.167 162.585 207.966 161.162C206.839 159.663 205.112 158.464 203.084 157.865C202.558 157.715 202.032 157.64 201.506 157.565C200.981 157.565 200.455 157.49 199.854 157.49C198.728 157.49 197.601 157.49 196.399 157.49C194.071 157.49 191.668 157.49 189.114 157.49C184.082 157.49 178.75 157.49 173.117 157.49C161.851 157.49 149.384 157.49 136.391 157.49C134.813 157.49 133.236 157.94 131.809 158.689C130.457 159.438 129.256 160.562 128.429 161.911C127.603 163.26 127.078 164.758 127.002 166.257C126.927 167.755 127.078 169.328 127.678 170.677C128.279 172.101 129.18 173.299 130.307 174.273C131.434 175.247 132.785 175.847 134.212 176.221C135.639 176.596 137.066 176.446 138.569 176.446C139.996 176.446 141.423 176.446 142.85 176.446C154.115 176.446 164.33 176.446 172.816 176.521C181.378 176.521 188.288 176.596 193.02 176.596C195.423 176.596 197.226 176.596 198.502 176.596C199.103 176.596 199.629 176.596 199.929 176.596C200.38 176.596 200.53 176.671 200.53 176.671C200.53 176.671 200.38 176.671 200.079 176.671C199.779 176.671 199.253 176.671 198.653 176.671C197.376 176.671 195.498 176.671 193.17 176.671C188.363 176.671 181.453 176.671 172.967 176.746C164.405 176.746 154.265 176.746 143 176.821C141.573 176.821 140.146 176.821 138.719 176.821C137.968 176.821 137.292 176.821 136.541 176.821C136.165 176.821 135.79 176.821 135.414 176.746C135.039 176.671 134.663 176.671 134.288 176.521C132.861 176.146 131.434 175.472 130.232 174.498C129.03 173.524 128.129 172.25 127.528 170.752C126.927 169.328 126.702 167.68 126.852 166.107C126.927 164.533 127.453 162.96 128.279 161.611C129.105 160.263 130.382 159.064 131.809 158.315C133.236 157.49 134.888 157.116 136.541 157.116C149.534 157.116 162.001 157.116 173.267 157.116C178.9 157.116 184.307 157.116 189.264 157.116C191.743 157.116 194.221 157.116 196.55 157.116C197.751 157.116 198.878 157.116 200.004 157.116C200.53 157.116 201.131 157.116 201.657 157.191C202.182 157.266 202.783 157.341 203.234 157.49C205.337 158.09 207.064 159.363 208.266 160.862C209.468 162.435 210.068 164.234 210.219 165.882C210.369 167.605 210.144 169.179 209.543 170.527C209.017 171.876 208.191 173 207.365 173.824C206.539 174.648 205.562 175.247 204.736 175.622C203.91 175.997 203.159 176.221 202.558 176.371C201.957 176.446 201.431 176.521 201.131 176.521C200.68 176.671 200.53 176.671 200.53 176.671Z" fill="white"/>
<path d="M151.862 165.732L151.411 166.331C151.036 165.957 150.585 165.732 150.06 165.732C149.083 165.732 148.332 166.481 148.332 167.38C148.332 168.279 149.083 169.029 150.06 169.029C150.51 169.029 151.036 168.804 151.411 168.504L151.862 169.029C151.411 169.478 150.735 169.778 150.06 169.778C148.708 169.778 147.581 168.729 147.581 167.38C147.581 166.032 148.633 164.983 150.06 164.983C150.735 164.983 151.336 165.282 151.862 165.732Z" fill="white"/>
<path d="M157.195 167.38C157.195 168.729 156.068 169.778 154.716 169.778C153.289 169.778 152.238 168.729 152.238 167.38C152.238 166.032 153.364 164.983 154.716 164.983C156.068 164.983 157.195 166.032 157.195 167.38ZM152.989 167.38C152.989 168.354 153.74 169.029 154.716 169.029C155.693 169.029 156.369 168.279 156.369 167.38C156.369 166.406 155.618 165.732 154.716 165.732C153.74 165.657 152.989 166.406 152.989 167.38Z" fill="white"/>
<path d="M161.326 169.703L158.772 166.331V169.703H157.946V164.983H158.697L161.25 168.354V164.983H162.001V169.703H161.326Z" fill="white"/>
<path d="M164.179 165.732V167.081H166.357V167.755H164.179V169.703H163.353V164.983H166.507V165.732H164.179Z" fill="white"/>
<path d="M167.258 169.703V164.983H168.084V169.703H167.258Z" fill="white"/>
<path d="M171.464 168.279C171.389 168.279 171.314 168.279 171.239 168.279H170.112V169.703H169.286V164.983H171.239C172.441 164.983 173.116 165.582 173.116 166.631C173.116 167.38 172.741 167.905 172.14 168.13L173.192 169.703H172.29L171.464 168.279ZM171.239 167.605C171.99 167.605 172.365 167.305 172.365 166.631C172.365 166.032 171.915 165.732 171.239 165.732H170.112V167.605H171.239Z" fill="white"/>
<path d="M178.449 169.703V166.182L176.947 169.253H176.421L174.919 166.182V169.703H174.168V164.983H175.144L176.722 168.13L178.299 164.983H179.275V169.703H178.449Z" fill="white"/>
<path d="M181.228 165.732V167.006H183.556V167.755H181.228V169.029H183.857V169.778H180.402V165.058H183.782V165.807H181.228V165.732Z" fill="white"/>
<path d="M186.786 164.983C188.213 164.983 189.264 165.957 189.264 167.38C189.264 168.729 188.213 169.778 186.786 169.778H184.833V165.058H186.786V164.983ZM185.659 169.029H186.786C187.687 169.029 188.438 168.354 188.438 167.38C188.438 166.406 187.687 165.732 186.786 165.732H185.659V169.029Z" fill="white"/>
<path d="M117.764 76.2727L217.729 75.5235L220.583 143.405L117.013 142.431L117.764 76.2727Z" fill="#FF5A5F"/>
<path d="M117.764 76.2727L168.535 35.2892L217.729 75.5235" fill="#FF5A5F"/>
<g opacity="0.3">
<g opacity="0.3">
<path opacity="0.3" d="M117.764 76.2727L168.535 35.2892L217.729 75.5235" fill="#1F0812"/>
</g>
</g>
<path d="M117.013 142.431C116.863 142.281 124.899 133.59 134.888 122.95C144.877 112.311 153.064 103.77 153.214 103.92C153.364 104.07 145.328 112.761 135.339 123.4C125.35 134.039 117.088 142.581 117.013 142.431Z" fill="#2B2D42"/>
<path d="M220.583 143.405C220.433 143.555 212.622 134.938 203.159 124.299C193.696 113.66 186.11 104.894 186.185 104.819C186.335 104.669 194.071 113.285 203.609 123.924C213.073 134.564 220.658 143.255 220.583 143.405Z" fill="#2B2D42"/>
<g opacity="0.5">
<g opacity="0.5">
<path opacity="0.5" d="M217.729 75.5235L167.559 115.608L117.764 76.2727" fill="#1F0812"/>
</g>
</g>
<path d="M122.796 80.0189L122.646 50.9484L210.218 48.8505L211.195 80.5434L167.559 115.083L122.796 80.0189Z" fill="#EBEBEB"/>
<path d="M168.761 104.594C167.934 104.594 167.108 104.519 166.282 104.444C160.499 103.77 155.317 100.923 151.712 96.3524C148.107 91.782 146.454 86.1627 147.13 80.3935C148.482 68.4806 159.297 59.8643 171.239 61.213C177.022 61.8873 182.204 64.7344 185.809 69.3048C189.414 73.8751 191.067 79.4944 190.391 85.2636C189.715 91.0328 186.861 96.2025 182.279 99.7989C178.374 103.021 173.642 104.594 168.761 104.594ZM168.685 61.8873C158.171 61.8873 149.008 69.8292 147.806 80.5434C147.205 86.0878 148.783 91.6321 152.237 95.9777C155.767 100.398 160.724 103.096 166.357 103.77C171.915 104.369 177.473 102.796 181.829 99.3493C186.26 95.8279 188.964 90.8829 189.64 85.2636C190.241 79.7192 188.663 74.1748 185.209 69.8292C181.679 65.4087 176.722 62.7115 171.089 62.0371C170.263 61.9622 169.512 61.8873 168.685 61.8873Z" fill="#FF5A5F"/>
<path d="M153.89 85.9379L157.57 81.4425L166.057 87.5863L179.876 71.3277L184.082 74.999L166.282 95.4533L153.89 85.9379Z" fill="#FF5A5F"/>
<path d="M263.017 115.308C263.092 115.833 263.843 116.132 264.369 115.833C264.82 115.533 265.045 114.934 264.97 114.334C264.895 113.81 264.594 113.285 264.294 112.761C265.195 113.285 266.472 112.686 266.697 111.787C266.923 110.813 266.097 109.689 265.12 109.689C265.796 109.539 266.547 109.314 267.073 108.865C267.599 108.415 267.899 107.591 267.599 106.917C267.298 106.242 266.247 106.018 265.796 106.542C266.172 106.317 266.547 106.018 266.772 105.643C266.998 105.268 267.073 104.744 266.848 104.369C266.547 103.995 265.946 103.92 265.421 104.144C264.895 104.369 264.519 104.669 264.069 104.894C263.017 105.493 261.59 105.418 260.614 104.744L257.835 107.067L263.017 115.308Z" fill="#2B2D42"/>
<path d="M247.996 102.646C246.419 103.096 245.218 104.594 245.067 106.242C244.992 106.842 245.067 107.441 245.518 107.966C245.969 108.49 246.795 108.64 247.471 108.49C248.147 108.34 248.748 107.966 249.348 107.516C250.174 106.917 251.001 106.167 251.151 105.193C251.301 104.219 250.625 103.245 249.649 102.871C248.748 102.496 247.696 102.571 246.795 103.021" fill="#2B2D42"/>
<path d="M250.475 116.507C250.174 117.481 249.874 118.455 249.198 119.279C248.597 120.103 247.696 120.778 246.644 120.853C245.593 120.927 244.541 120.328 244.241 119.429C244.091 120.028 243.565 120.478 242.964 120.628C242.363 120.778 241.687 120.478 241.387 119.953C241.087 119.429 241.312 118.68 241.838 118.38C241.237 118.755 240.486 119.054 239.885 118.68C239.66 118.53 239.434 118.23 239.359 118.005C239.059 117.031 239.66 116.057 240.26 115.308C240.936 114.559 241.687 113.81 241.838 112.836C241.988 112.086 241.687 111.262 241.462 110.513C241.237 109.689 241.162 108.715 241.387 107.891C241.612 106.992 242.063 106.242 242.889 105.793C243.64 105.343 244.692 105.343 245.368 105.943L245.518 107.216L250.475 116.507Z" fill="#2B2D42"/>
<path d="M262.116 131.342C262.116 131.342 263.844 149.848 262.417 152.246C260.914 154.643 242.889 179.818 242.889 179.818H242.964C242.589 179.968 242.213 180.117 241.838 180.267C241.237 180.492 240.561 180.642 239.885 180.642C239.059 180.642 238.007 180.642 237.407 180.417C236.656 180.192 236.055 180.942 236.43 181.466C236.806 182.065 238.759 182.74 241.237 182.515C243.715 182.29 240.937 184.988 239.96 185.962C238.984 186.936 236.055 190.232 236.13 190.757C236.205 191.581 237.106 191.581 238.083 190.532C239.059 189.483 242.138 186.636 242.664 187.16C243.19 187.685 238.083 192.78 238.083 192.78C238.083 192.78 236.806 193.679 237.407 194.353C238.458 195.552 243.415 189.783 243.866 189.183C244.166 188.809 244.767 189.333 244.391 189.783C244.016 190.157 239.209 194.728 240.261 195.926C241.012 196.826 244.391 191.206 245.969 190.832C247.471 190.457 242.964 194.878 243.791 195.702C244.091 196.001 244.316 196.226 246.569 193.304C247.846 191.656 249.874 188.209 251.451 185.437C253.855 182.89 277.137 157.64 277.287 152.92C277.513 147.975 278.339 131.117 278.339 131.117L262.116 131.342Z" fill="#EB996E"/>
<path d="M234.327 213.534L234.102 206.641L246.945 206.191L247.396 216.231L246.569 216.306C243.039 216.606 228.544 217.729 226.141 217.13C223.437 216.381 234.327 213.534 234.327 213.534Z" fill="#FF5A5F"/>
<g opacity="0.4">
<g opacity="0.4">
<g opacity="0.4">
<path opacity="0.4" d="M228.995 215.107C228.995 215.107 225.24 216.381 225.69 216.98C226.216 217.58 240.862 217.055 247.321 216.231V215.931L230.197 216.755C230.197 216.755 229.746 215.107 228.995 215.107Z" fill="white"/>
</g>
</g>
</g>
<path d="M247.546 215.931C247.546 215.931 247.471 215.931 247.321 215.931C247.095 215.931 246.945 216.006 246.72 216.006C246.119 216.081 245.293 216.156 244.392 216.231C242.439 216.381 239.66 216.531 236.656 216.68C233.652 216.83 230.873 216.83 228.92 216.83C228.019 216.83 227.193 216.83 226.592 216.83C226.366 216.83 226.141 216.83 225.991 216.83C225.841 216.83 225.766 216.83 225.766 216.83C225.766 216.83 225.841 216.83 225.991 216.83C226.216 216.83 226.366 216.83 226.592 216.83C227.193 216.83 228.019 216.83 228.92 216.755C230.873 216.755 233.652 216.68 236.656 216.531C239.66 216.381 242.364 216.231 244.392 216.156C245.293 216.081 246.119 216.081 246.72 216.006C246.945 216.006 247.17 216.006 247.321 216.006C247.471 215.931 247.546 215.931 247.546 215.931Z" fill="#2B2D42"/>
<path d="M230.197 216.905C230.122 216.905 230.122 216.381 229.746 215.781C229.371 215.257 228.92 214.957 228.92 214.882C228.92 214.807 229.521 215.032 229.896 215.631C230.272 216.306 230.272 216.905 230.197 216.905Z" fill="#2B2D42"/>
<path d="M233.952 214.882C233.952 214.882 233.726 214.657 233.501 214.433C233.276 214.133 233.201 213.908 233.201 213.833C233.201 213.833 233.426 214.058 233.651 214.283C233.877 214.583 233.952 214.807 233.952 214.882Z" fill="#2B2D42"/>
<path d="M235.003 214.283C235.003 214.283 234.778 214.208 234.553 213.983C234.327 213.758 234.177 213.609 234.177 213.609C234.177 213.609 234.403 213.683 234.628 213.908C234.853 214.058 235.003 214.283 235.003 214.283Z" fill="#2B2D42"/>
<path d="M235.604 213.009C235.604 213.084 235.304 213.084 234.928 213.084C234.553 213.084 234.252 213.084 234.252 213.009C234.252 212.934 234.553 212.934 234.928 212.934C235.304 213.009 235.604 213.009 235.604 213.009Z" fill="#2B2D42"/>
<path d="M235.755 212.185C235.755 212.26 235.454 212.41 235.004 212.41C234.553 212.485 234.252 212.41 234.252 212.335C234.252 212.26 234.628 212.335 235.004 212.26C235.454 212.26 235.755 212.11 235.755 212.185Z" fill="#2B2D42"/>
<path d="M233.501 213.758C233.501 213.758 233.201 213.833 232.675 213.758C232.45 213.758 232.149 213.683 231.774 213.609C231.623 213.534 231.473 213.534 231.248 213.384C231.173 213.309 231.098 213.234 231.023 213.159C230.948 213.009 231.023 212.859 231.173 212.859C231.924 212.41 232.75 212.859 233.05 213.234C233.201 213.459 233.276 213.609 233.351 213.758C233.426 213.908 233.426 213.983 233.351 213.983C233.351 213.983 233.276 213.683 232.975 213.309C232.825 213.159 232.6 212.934 232.224 212.859C231.924 212.784 231.548 212.784 231.248 212.934C231.098 213.009 231.173 213.159 231.323 213.234C231.473 213.309 231.623 213.384 231.774 213.384C232.074 213.459 232.375 213.534 232.6 213.609C233.126 213.758 233.501 213.758 233.501 213.758Z" fill="#2B2D42"/>
<path d="M233.276 213.833C233.276 213.833 233.126 213.609 233.126 213.234C233.126 213.084 233.201 212.859 233.351 212.635C233.502 212.41 233.652 212.185 234.027 212.185C234.253 212.185 234.328 212.41 234.328 212.56C234.328 212.709 234.253 212.859 234.177 212.934C234.027 213.159 233.952 213.309 233.802 213.459C233.577 213.683 233.351 213.833 233.276 213.833C233.351 213.833 233.502 213.683 233.727 213.384C233.802 213.234 233.952 213.084 234.027 212.859C234.102 212.709 234.177 212.335 234.027 212.335C233.802 212.335 233.652 212.56 233.502 212.709C233.351 212.859 233.276 213.084 233.276 213.234C233.201 213.609 233.276 213.833 233.276 213.833Z" fill="#2B2D42"/>
<path d="M247.17 212.41C247.17 212.41 246.795 212.41 246.194 212.485C245.593 212.56 244.842 212.859 244.166 213.384C243.49 213.983 243.115 214.732 242.965 215.257C242.814 215.781 242.814 216.156 242.739 216.156C242.739 216.156 242.739 216.081 242.739 215.931C242.739 215.781 242.814 215.557 242.889 215.257C243.04 214.657 243.415 213.908 244.091 213.309C244.767 212.709 245.593 212.41 246.194 212.41C246.494 212.41 246.72 212.41 246.87 212.41C247.095 212.41 247.17 212.41 247.17 212.41Z" fill="#2B2D42"/>
<path d="M245.593 207.165C245.668 207.165 245.743 208.364 245.819 209.787C245.894 211.211 245.894 212.41 245.894 212.41C245.819 212.41 245.743 211.211 245.668 209.787C245.593 208.289 245.593 207.165 245.593 207.165Z" fill="#2B2D42"/>
<path d="M241.012 215.107C241.012 215.182 240.185 215.332 239.134 215.332C238.082 215.407 237.256 215.257 237.256 215.257C237.256 215.182 238.082 215.257 239.134 215.182C240.185 215.182 241.012 215.032 241.012 215.107Z" fill="#2B2D42"/>
<path d="M243.565 215.032C243.565 215.032 243.49 215.182 243.415 215.407C243.34 215.632 243.265 215.781 243.265 215.781C243.19 215.781 243.19 215.557 243.265 215.332C243.34 215.107 243.565 214.957 243.565 215.032Z" fill="#2B2D42"/>
<path d="M244.467 213.758C244.467 213.758 244.392 213.908 244.317 214.058C244.166 214.208 244.091 214.283 244.016 214.283C244.016 214.283 244.091 214.133 244.166 213.983C244.317 213.833 244.467 213.758 244.467 213.758Z" fill="#2B2D42"/>
<path d="M245.818 213.234C245.818 213.309 245.668 213.309 245.443 213.384C245.218 213.459 245.142 213.534 245.067 213.534C245.067 213.534 245.143 213.309 245.368 213.234C245.593 213.084 245.818 213.159 245.818 213.234Z" fill="#2B2D42"/>
<path d="M246.795 212.934C246.795 213.009 246.72 213.009 246.645 213.084C246.57 213.159 246.419 213.159 246.419 213.084C246.419 213.009 246.495 213.009 246.57 212.934C246.645 212.859 246.72 212.859 246.795 212.934Z" fill="#2B2D42"/>
<g opacity="0.3">
<path opacity="0.3" d="M247.095 212.11L234.252 212.335V210.836L247.171 211.286L247.095 212.11Z" fill="#1F0812"/>
</g>
<path d="M282.77 167.006L242.063 166.481C242.063 166.481 230.722 167.53 230.722 182.215L232.149 211.211H249.498L248.297 183.414C249.273 183.414 262.416 183.864 262.416 183.864L282.77 167.006Z" fill="#2B2D42"/>
<path d="M232.149 211.211C232.149 211.211 232.149 211.061 232.074 210.687C232.074 210.312 231.999 209.862 231.999 209.263C231.924 207.989 231.849 206.191 231.699 203.943C231.398 199.448 230.948 193.304 230.572 186.486C230.422 183.04 230.197 179.818 230.572 176.821C230.647 176.072 230.798 175.397 231.023 174.648C231.248 173.974 231.549 173.299 231.849 172.775C232.525 171.651 233.351 170.677 234.177 169.928C235.003 169.179 235.905 168.654 236.731 168.28C237.557 167.905 238.308 167.68 238.909 167.53C239.209 167.455 239.51 167.38 239.735 167.305C239.96 167.305 240.186 167.231 240.336 167.231C240.636 167.156 240.862 167.156 240.862 167.156C240.862 167.156 240.711 167.231 240.336 167.305C240.186 167.38 239.96 167.38 239.735 167.455C239.51 167.53 239.209 167.605 238.909 167.68C238.308 167.83 237.632 168.13 236.806 168.504C236.055 168.879 235.154 169.478 234.327 170.153C233.501 170.902 232.675 171.801 232.074 172.925C231.774 173.524 231.473 174.124 231.323 174.798C231.098 175.472 231.023 176.147 230.873 176.896C230.497 179.818 230.722 183.04 230.873 186.486C231.173 193.304 231.699 199.448 231.849 203.943C231.924 206.191 231.999 207.989 231.999 209.263C231.999 209.862 231.999 210.312 231.999 210.687C232.225 211.061 232.225 211.211 232.149 211.211Z" fill="#EDF2F4"/>
<path d="M309.883 213.534L303.048 213.983L302.147 201.171L312.211 200.422L312.286 201.246C312.737 204.768 314.314 219.153 313.788 221.625C313.112 224.248 309.883 213.534 309.883 213.534Z" fill="#FF5A5F"/>
<g opacity="0.4">
<g opacity="0.4">
<g opacity="0.4">
<path opacity="0.4" d="M311.61 218.778C311.61 218.778 312.962 222.525 313.563 222C314.164 221.476 313.112 206.865 312.061 200.422L311.761 200.497L313.188 217.58C313.188 217.505 311.61 218.029 311.61 218.778Z" fill="white"/>
</g>
</g>
</g>
<path d="M311.76 200.272C311.76 200.272 311.76 200.347 311.835 200.497C311.835 200.722 311.91 200.871 311.91 201.096C311.986 201.696 312.061 202.52 312.211 203.419C312.436 205.367 312.662 208.064 312.887 211.136C313.112 214.133 313.262 216.83 313.337 218.853C313.337 219.752 313.413 220.576 313.413 221.176C313.413 221.401 313.413 221.625 313.413 221.775C313.413 221.925 313.413 222 313.413 222C313.413 222 313.413 221.925 313.413 221.775C313.413 221.55 313.413 221.401 313.337 221.176C313.337 220.576 313.262 219.752 313.187 218.853C313.112 216.905 312.887 214.133 312.737 211.136C312.511 208.139 312.286 205.442 312.061 203.419C311.986 202.52 311.91 201.696 311.835 201.096C311.835 200.871 311.76 200.647 311.76 200.497C311.76 200.347 311.76 200.272 311.76 200.272Z" fill="#2B2D42"/>
<path d="M313.413 217.505C313.413 217.58 312.887 217.654 312.361 218.029C311.835 218.404 311.535 218.928 311.535 218.853C311.46 218.853 311.685 218.254 312.286 217.879C312.812 217.43 313.413 217.43 313.413 217.505Z" fill="#2B2D42"/>
<path d="M311.159 213.833C311.159 213.833 311.009 214.058 310.709 214.283C310.408 214.508 310.183 214.657 310.183 214.583C310.183 214.583 310.333 214.358 310.634 214.133C310.934 213.983 311.159 213.833 311.159 213.833Z" fill="#2B2D42"/>
<path d="M310.559 212.859C310.559 212.859 310.484 213.084 310.258 213.309C310.108 213.534 309.883 213.683 309.883 213.683C309.883 213.683 309.958 213.459 310.183 213.234C310.333 213.009 310.559 212.859 310.559 212.859Z" fill="#2B2D42"/>
<path d="M309.282 212.26C309.357 212.26 309.357 212.56 309.432 212.934C309.432 213.309 309.432 213.609 309.432 213.609C309.357 213.609 309.357 213.309 309.282 212.934C309.282 212.56 309.282 212.26 309.282 212.26Z" fill="#2B2D42"/>
<path d="M308.456 212.11C308.456 212.11 308.681 212.41 308.756 212.859C308.832 213.309 308.756 213.609 308.681 213.609C308.606 213.609 308.606 213.234 308.606 212.859C308.531 212.485 308.381 212.11 308.456 212.11Z" fill="#2B2D42"/>
<path d="M310.108 214.358C310.108 214.358 310.183 214.657 310.183 215.182C310.183 215.407 310.108 215.706 310.033 216.081C309.958 216.231 309.958 216.381 309.883 216.605C309.808 216.68 309.733 216.755 309.658 216.83C309.507 216.905 309.357 216.83 309.282 216.755C308.831 216.006 309.207 215.182 309.583 214.882C309.808 214.732 309.958 214.583 310.108 214.583C310.258 214.508 310.334 214.508 310.334 214.508C310.334 214.508 310.033 214.583 309.658 214.957C309.507 215.107 309.357 215.407 309.282 215.706C309.207 216.006 309.207 216.456 309.432 216.68C309.507 216.83 309.658 216.755 309.733 216.605C309.808 216.456 309.883 216.306 309.883 216.156C309.958 215.856 310.033 215.557 310.033 215.257C310.108 214.657 310.108 214.358 310.108 214.358Z" fill="#2B2D42"/>
<path d="M310.183 214.583C310.183 214.583 309.958 214.732 309.582 214.732C309.432 214.732 309.207 214.657 308.981 214.583C308.756 214.433 308.531 214.283 308.531 213.908C308.531 213.683 308.756 213.609 308.906 213.609C309.056 213.609 309.207 213.683 309.282 213.758C309.507 213.833 309.657 213.983 309.808 214.133C310.033 214.283 310.183 214.508 310.183 214.583C310.108 214.508 310.033 214.358 309.732 214.133C309.582 214.058 309.432 213.908 309.207 213.833C309.057 213.758 308.681 213.683 308.681 213.908C308.681 214.133 308.906 214.283 309.057 214.433C309.282 214.583 309.432 214.583 309.582 214.657C309.958 214.657 310.183 214.583 310.183 214.583Z" fill="#2B2D42"/>
<path d="M308.305 200.797C308.305 200.797 308.305 201.171 308.38 201.771C308.456 202.37 308.756 203.119 309.357 203.793C309.958 204.468 310.709 204.767 311.31 204.917C311.91 205.067 312.211 205.067 312.211 205.067C312.211 205.067 312.136 205.067 311.985 205.067C311.835 205.067 311.61 205.067 311.31 204.992C310.709 204.842 309.958 204.543 309.282 203.868C308.681 203.194 308.38 202.37 308.305 201.771C308.23 201.471 308.23 201.246 308.305 201.096C308.23 200.871 308.305 200.797 308.305 200.797Z" fill="#2B2D42"/>
<path d="M303.048 202.52C303.048 202.445 304.25 202.37 305.677 202.22C307.104 202.07 308.306 201.995 308.306 202.07C308.306 202.145 307.104 202.22 305.677 202.37C304.25 202.445 303.048 202.52 303.048 202.52Z" fill="#2B2D42"/>
<path d="M311.16 206.79C311.235 206.79 311.385 207.615 311.46 208.664C311.535 209.712 311.46 210.537 311.46 210.537C311.385 210.537 311.385 209.712 311.31 208.664C311.235 207.615 311.16 206.79 311.16 206.79Z" fill="#2B2D42"/>
<path d="M311.009 204.243C311.009 204.243 311.159 204.318 311.385 204.393C311.61 204.468 311.76 204.468 311.76 204.543C311.76 204.618 311.535 204.618 311.31 204.543C311.084 204.468 310.934 204.318 311.009 204.243Z" fill="#2B2D42"/>
<path d="M309.732 203.419C309.732 203.419 309.883 203.494 310.033 203.569C310.183 203.719 310.258 203.793 310.258 203.868C310.258 203.868 310.108 203.793 309.958 203.719C309.808 203.569 309.732 203.419 309.732 203.419Z" fill="#2B2D42"/>
<path d="M309.132 202.07C309.207 202.07 309.207 202.22 309.282 202.445C309.357 202.595 309.507 202.745 309.432 202.819C309.432 202.819 309.207 202.745 309.132 202.52C308.981 202.295 309.057 202.07 309.132 202.07Z" fill="#2B2D42"/>
<path d="M308.756 201.171C308.831 201.171 308.831 201.246 308.907 201.321C308.982 201.396 308.982 201.546 308.907 201.546C308.831 201.546 308.831 201.471 308.756 201.396C308.756 201.246 308.756 201.171 308.756 201.171Z" fill="#2B2D42"/>
<g opacity="0.3">
<path opacity="0.3" d="M307.93 200.797L308.681 213.609L307.104 213.758V200.797H307.93Z" fill="#1F0812"/>
</g>
<path d="M267.749 200.871C267.749 200.871 302.447 181.991 306.353 175.847C310.408 169.478 307.479 163.559 307.479 163.559L278.264 167.455L257.61 188.209C253.103 191.806 244.917 199.223 244.917 206.641C244.917 219.228 261.215 217.205 273.006 217.205C289.004 217.205 307.029 217.28 307.029 217.28L307.104 200.122L267.749 200.871Z" fill="#2B2D42"/>
<path d="M259.562 204.468C259.562 204.543 261.515 203.794 263.843 202.819C266.171 201.845 268.049 200.946 267.974 200.871C267.974 200.797 266.021 201.546 263.693 202.52C261.365 203.494 259.487 204.393 259.562 204.468Z" fill="#EDF2F4"/>
<path d="M262.266 200.272C262.266 200.347 263.618 200.497 265.27 200.572C266.923 200.647 268.275 200.572 268.35 200.497C268.35 200.422 266.998 200.272 265.345 200.197C263.618 200.122 262.266 200.197 262.266 200.272Z" fill="#EDF2F4"/>
<path d="M276.086 170.377C276.086 170.377 276.011 170.527 275.785 170.752C275.56 170.977 275.184 171.351 274.809 171.726C273.908 172.625 272.631 173.824 271.129 175.247C267.974 178.244 263.618 182.29 258.887 186.861C256.483 189.108 254.155 191.206 252.127 193.229C250.099 195.252 248.447 197.2 247.321 199.073C246.194 200.871 245.593 202.595 245.368 203.719C245.293 204.018 245.218 204.243 245.218 204.468C245.218 204.693 245.142 204.842 245.142 205.067C245.067 205.367 245.067 205.517 245.067 205.517C245.067 205.517 245.067 205.367 245.067 205.067C245.067 204.917 245.067 204.693 245.142 204.468C245.142 204.243 245.218 203.943 245.293 203.644C245.518 202.445 246.044 200.722 247.17 198.848C248.297 196.975 249.949 194.952 251.902 192.929C253.93 190.907 256.258 188.809 258.661 186.561C263.468 182.066 267.824 178.02 270.979 175.098C272.556 173.674 273.833 172.475 274.734 171.651C275.184 171.276 275.485 170.977 275.785 170.752C275.935 170.452 276.086 170.302 276.086 170.377Z" fill="#EDF2F4"/>
<path d="M265.646 132.84C262.567 134.489 258.661 133.14 257.309 129.918C256.558 128.12 255.958 126.697 255.958 126.697C255.958 126.697 251.451 128.27 249.198 124.224C247.921 121.901 246.119 118.005 244.767 115.008C243.64 112.461 243.941 109.539 245.518 107.216C249.198 102.571 252.127 103.395 257.91 104.294L258.812 104.444L268.2 125.198C269.552 127.97 268.425 131.342 265.646 132.84Z" fill="#FFBE9D"/>
<path d="M247.696 116.957C247.846 116.582 247.621 116.207 247.245 116.057C246.87 115.908 246.494 116.132 246.344 116.507C246.194 116.882 246.419 117.256 246.795 117.406C247.17 117.481 247.546 117.256 247.696 116.957Z" fill="#2B2D42"/>
<path d="M245.818 116.282C245.893 116.282 246.194 115.758 246.72 115.458C247.245 115.158 247.846 115.233 247.846 115.083C247.846 115.008 247.696 114.934 247.471 114.934C247.245 114.859 246.87 114.934 246.494 115.083C246.119 115.308 245.893 115.608 245.818 115.833C245.818 116.057 245.818 116.207 245.818 116.282Z" fill="#2B2D42"/>
<path d="M252.653 113.585C252.428 113.885 252.578 114.334 252.878 114.484C253.179 114.709 253.629 114.559 253.779 114.259C254.005 113.96 253.855 113.51 253.554 113.36C253.254 113.135 252.803 113.285 252.653 113.585Z" fill="#2B2D42"/>
<path d="M252.052 113.435C252.127 113.435 252.428 112.911 252.953 112.611C253.479 112.311 254.08 112.386 254.08 112.236C254.08 112.161 253.93 112.086 253.705 112.086C253.479 112.012 253.104 112.086 252.728 112.236C252.353 112.461 252.127 112.761 252.052 112.986C252.052 113.285 252.052 113.435 252.052 113.435Z" fill="#2B2D42"/>
<path d="M252.578 119.429C252.578 119.354 252.202 119.504 251.526 119.729C251.376 119.804 251.226 119.804 251.151 119.729C251.076 119.654 251.076 119.429 251.001 119.279C250.926 118.83 250.85 118.38 250.85 117.856C250.55 115.908 250.25 114.259 250.175 114.334C250.099 114.334 250.175 115.982 250.475 117.93C250.55 118.38 250.625 118.905 250.7 119.354C250.775 119.579 250.775 119.804 250.926 120.028C251.001 120.103 251.226 120.178 251.301 120.103C251.451 120.103 251.526 120.028 251.602 120.028C252.202 119.729 252.578 119.504 252.578 119.429Z" fill="#2B2D42"/>
<path d="M255.958 126.622C255.958 126.622 258.661 125.423 260.539 122.201C260.539 122.201 260.839 125.872 256.558 127.671L255.958 126.622Z" fill="#EB996E"/>
<path d="M260.764 109.015C260.839 108.94 264.069 106.992 265.045 110.588C265.871 113.66 262.416 114.184 262.416 114.034C262.266 113.885 260.764 109.015 260.764 109.015Z" fill="#FFBE9D"/>
<path d="M262.942 112.236C262.942 112.236 263.017 112.236 263.092 112.236C263.168 112.236 263.318 112.236 263.468 112.086C263.768 111.862 263.843 111.262 263.618 110.738C263.543 110.438 263.393 110.213 263.243 110.063C263.092 109.914 262.867 109.764 262.717 109.839C262.567 109.839 262.492 109.989 262.492 110.063C262.492 110.138 262.492 110.213 262.492 110.213C262.492 110.213 262.417 110.213 262.417 110.063C262.417 109.989 262.417 109.914 262.492 109.839C262.567 109.764 262.642 109.689 262.717 109.689C262.942 109.614 263.243 109.764 263.393 109.914C263.618 110.138 263.768 110.363 263.843 110.663C264.069 111.262 263.919 111.937 263.543 112.161C263.393 112.311 263.168 112.311 263.017 112.236C263.017 112.311 262.942 112.236 262.942 112.236Z" fill="#EB996E"/>
<path d="M259.262 132.316C259.262 132.316 267.374 118.83 279.841 130.143C287.952 137.561 301.246 152.845 306.053 158.839C307.104 160.188 308.756 162.211 307.63 163.484C304.1 167.305 294.336 175.922 276.386 169.478L259.337 145.802C256.408 141.831 256.333 136.362 259.262 132.316Z" fill="#FF5A5F"/>
<path d="M269.552 125.872L267.298 122.201L255.657 131.417L257.835 134.863L269.552 125.872Z" fill="#FF5A5F"/>
<g opacity="0.3">
<g opacity="0.3">
<path opacity="0.3" d="M269.101 126.322C269.101 126.322 259.938 134.189 259.788 134.114C259.638 133.964 256.108 131.417 256.108 131.417L259.337 133.215L269.101 126.322Z" fill="#1F0812"/>
</g>
</g>
<path d="M269.702 125.872C269.702 125.872 269.477 125.947 269.101 126.172C268.726 126.397 268.2 126.697 267.599 127.146C266.322 127.97 264.67 129.244 262.792 130.668C261.516 131.642 260.314 132.466 259.338 133.14H259.488C258.436 132.541 257.46 132.091 256.859 131.717C256.183 131.417 255.883 131.192 255.808 131.267C255.808 131.267 256.108 131.492 256.784 131.866C257.385 132.241 258.286 132.765 259.338 133.365L259.413 133.44L259.488 133.365C260.539 132.691 261.741 131.866 263.018 130.892C264.82 129.544 266.473 128.27 267.749 127.296C268.275 126.846 268.801 126.547 269.176 126.247C269.477 126.022 269.702 125.872 269.702 125.872Z" fill="#2B2D42"/>
<path d="M220.057 161.312L217.879 160.412C217.879 160.412 216.452 160.113 214.124 158.989C213.523 158.689 212.997 158.315 212.472 157.865C211.871 157.266 211.195 156.516 210.895 155.917C210.594 155.243 209.543 155.318 209.468 155.992C209.317 156.666 210.219 158.614 212.096 160.188C213.974 161.761 210.143 161.686 208.716 161.686C207.29 161.686 202.933 161.911 202.633 162.36C202.107 162.96 202.708 163.634 204.135 163.634C205.562 163.559 209.768 163.784 209.768 164.533C209.768 165.283 202.558 165.208 202.558 165.208C202.558 165.208 201.056 164.908 200.981 165.807C200.83 167.38 208.491 166.856 209.242 166.781C209.768 166.706 209.768 167.53 209.167 167.53C208.641 167.53 202.032 167.305 201.882 168.879C201.807 170.078 208.191 168.504 209.468 169.328C210.819 170.153 204.511 170.003 204.436 171.202C204.436 171.651 204.436 171.951 208.116 171.501C211.871 171.052 221.71 168.205 221.71 168.205L220.057 161.312Z" fill="#FFBE9D"/>
<path d="M263.167 137.036C263.167 137.036 251.301 153.37 248.522 154.044C245.743 154.718 215.175 159.513 215.175 159.513L216.677 169.478C216.677 169.478 254.68 168.429 258.361 165.058C262.041 161.686 273.156 144.678 273.156 144.678L263.167 137.036Z" fill="#FFBE9D"/>
<path d="M254.831 164.683C254.831 164.683 254.906 164.833 255.131 164.983C255.357 165.133 255.732 165.283 256.258 165.208C256.784 165.208 257.385 164.908 257.685 164.309C258.061 163.784 258.211 162.885 257.76 162.211C257.535 161.836 257.234 161.611 256.859 161.461C256.483 161.386 256.108 161.386 255.807 161.536C255.131 161.911 255.056 162.735 255.357 163.11C255.657 163.559 256.183 163.559 256.483 163.409C256.784 163.334 256.784 163.11 256.784 163.11C256.784 163.11 256.634 163.185 256.408 163.26C256.183 163.334 255.732 163.26 255.582 162.96C255.357 162.66 255.507 161.986 255.958 161.761C256.183 161.611 256.483 161.611 256.784 161.686C257.084 161.761 257.31 161.986 257.46 162.286C257.76 162.885 257.685 163.559 257.385 164.009C257.084 164.533 256.558 164.758 256.183 164.833C255.357 165.058 254.831 164.608 254.831 164.683Z" fill="#EB996E"/>
<path d="M276.761 141.981L265.496 161.312L252.502 150.597C252.502 150.597 261.515 135.912 265.721 131.342L276.761 141.981Z" fill="#FF5A5F"/>
<path d="M244.392 178.844C244.392 178.769 245.894 179.293 247.02 180.792C248.147 182.29 248.297 183.864 248.222 183.789C248.072 183.789 247.846 182.365 246.72 181.017C245.668 179.593 244.392 178.919 244.392 178.844Z" fill="#EDF2F4"/>
<path d="M257.91 110.738C258.06 111.037 258.361 111.262 258.736 111.337C259.037 111.412 259.412 111.412 259.788 111.487C260.313 111.562 260.839 111.862 261.14 112.311C261.29 112.461 261.44 112.686 261.59 112.836C261.815 112.986 262.041 113.06 262.266 112.911C262.567 112.686 262.416 112.236 262.266 111.862C261.59 110.438 260.839 109.089 260.163 107.666L256.183 108.565L257.91 110.588" fill="#2B2D42"/>
<path d="M244.842 106.018C245.292 105.493 245.968 105.044 246.494 105.493C247.02 105.943 247.245 106.692 247.395 107.366C247.546 108.041 247.696 108.79 248.071 109.389C248.597 110.138 249.498 110.588 250.4 110.438C251.301 110.363 252.127 109.689 252.427 108.865C252.953 109.689 253.554 110.513 254.305 111.112C255.056 111.712 256.183 112.011 257.084 111.637C257.985 111.262 258.586 110.138 258.135 109.239C258.661 109.614 259.262 109.914 259.938 109.914C260.614 109.914 261.29 109.539 261.515 108.94C261.74 108.34 261.44 107.516 260.764 107.366C261.515 107.816 262.567 107.816 263.243 107.291C263.918 106.767 264.144 105.718 263.693 104.969C263.243 104.219 262.116 103.995 261.44 104.519C261.966 104.219 262.416 103.92 262.717 103.395C263.017 102.871 262.867 102.122 262.341 101.897C261.74 101.597 261.064 102.196 260.389 102.346C259.262 102.571 258.361 101.522 257.459 100.848C255.807 99.649 253.629 99.2744 251.676 99.7239C249.649 100.099 247.846 101.222 246.344 102.571C245.443 103.47 244.466 104.744 244.842 106.018Z" fill="#2B2D42"/>
<path d="M247.245 114.109C247.245 114.409 246.945 114.709 246.569 114.859C246.194 115.008 245.743 115.008 245.518 114.784C245.293 114.559 245.518 114.034 246.119 113.81C246.72 113.51 247.245 113.735 247.245 114.109Z" fill="#2B2D42"/>
<path d="M253.179 111.262C253.104 111.562 252.728 111.787 252.353 112.011C251.977 112.161 251.526 112.311 251.226 112.161C251.076 112.086 251.076 111.862 251.151 111.637C251.226 111.412 251.526 111.112 251.827 110.963C252.202 110.813 252.578 110.813 252.803 110.888C253.104 110.888 253.179 111.112 253.179 111.262Z" fill="#2B2D42"/>
<path d="M254.906 118.155C254.981 118.08 255.281 118.905 254.906 119.729C254.53 120.553 253.779 120.927 253.779 120.853C253.704 120.778 254.23 120.328 254.53 119.579C254.831 118.83 254.831 118.155 254.906 118.155Z" fill="#2B2D42"/>
<path d="M263.543 106.167C263.543 106.167 263.468 106.242 263.393 106.242C263.243 106.317 263.093 106.317 262.792 106.392C262.342 106.392 261.44 106.242 260.99 105.343L261.215 105.418C260.689 105.943 259.788 106.392 258.737 106.392C257.685 106.392 256.558 106.092 255.732 105.118L256.033 104.969C256.033 105.493 255.732 105.943 255.357 106.242C254.906 106.542 254.456 106.692 253.93 106.617C253.029 106.467 252.428 105.943 251.902 105.343C251.376 104.819 251.001 104.219 250.475 103.77C250.024 103.32 249.499 102.946 248.898 102.871C248.372 102.796 247.771 102.871 247.321 103.096C246.419 103.47 245.818 104.07 245.368 104.519C244.992 104.969 244.767 105.193 244.692 105.118C244.692 105.118 244.842 104.819 245.218 104.369C245.593 103.92 246.194 103.245 247.17 102.796C247.696 102.571 248.297 102.421 248.898 102.571C249.574 102.646 250.175 103.021 250.7 103.545C251.226 103.995 251.677 104.594 252.127 105.118C252.653 105.643 253.254 106.167 253.93 106.242C254.756 106.392 255.732 105.793 255.657 105.044V104.519L256.033 104.969C256.784 105.793 257.835 106.167 258.737 106.167C259.713 106.167 260.539 105.793 261.065 105.343L261.215 105.193L261.29 105.343C261.666 106.092 262.417 106.392 262.867 106.392C263.318 106.242 263.543 106.167 263.543 106.167Z" fill="#EDF2F4"/>
<path d="M278.639 138.984C278.564 138.984 278.639 138.535 278.489 137.785C278.339 137.036 278.038 135.837 277.287 134.639C276.536 133.44 275.334 132.166 273.607 131.492C271.88 130.743 269.702 130.593 267.674 131.267C266.622 131.642 265.721 132.166 264.97 132.765C264.144 133.365 263.468 134.114 262.867 134.788C261.665 136.212 260.764 137.71 260.013 138.909C259.262 140.108 258.661 141.157 258.211 141.831C257.985 142.131 257.835 142.431 257.685 142.581C257.535 142.73 257.459 142.805 257.459 142.805C257.459 142.805 257.685 142.431 258.06 141.681C258.511 140.932 259.112 139.958 259.788 138.759C260.539 137.486 261.365 135.987 262.567 134.564C263.768 133.065 265.421 131.567 267.524 130.817C269.702 130.068 271.955 130.293 273.757 131.042C275.56 131.791 276.837 133.14 277.588 134.414C278.339 135.688 278.639 136.811 278.714 137.636C278.789 138.01 278.789 138.385 278.789 138.535C278.639 138.909 278.639 138.984 278.639 138.984Z" fill="#2B2D42"/>
<path d="M275.335 146.027C275.335 146.027 275.41 145.727 275.034 145.428C274.884 145.278 274.584 145.203 274.283 145.128C273.983 145.053 273.532 145.128 273.082 144.903C272.18 144.529 271.655 143.48 271.354 142.431C271.204 141.906 271.054 141.307 270.904 140.707C270.678 140.183 270.378 139.584 269.852 139.284C269.326 138.909 268.726 138.759 268.125 138.684C267.524 138.61 266.923 138.61 266.397 138.684C265.271 138.759 264.144 138.684 263.393 138.235C262.567 137.785 262.191 137.111 262.041 136.661C261.966 136.437 261.966 136.212 262.041 136.062C262.041 135.912 262.116 135.837 262.116 135.837C262.191 135.837 262.116 136.137 262.267 136.587C262.417 137.036 262.867 137.636 263.543 137.935C264.294 138.31 265.346 138.31 266.472 138.235C267.599 138.16 268.951 138.085 270.153 138.909C270.753 139.359 271.054 139.958 271.279 140.558C271.504 141.157 271.58 141.756 271.73 142.281C272.03 143.33 272.481 144.304 273.232 144.603C273.607 144.753 273.983 144.753 274.358 144.828C274.734 144.903 275.034 145.053 275.185 145.203C275.335 145.353 275.41 145.577 275.41 145.727C275.335 146.027 275.335 146.027 275.335 146.027Z" fill="#FAFAFA"/>
<path d="M270.828 152.47C270.753 152.47 270.753 152.246 270.528 151.871C270.303 151.496 269.777 151.122 269.026 150.897C268.275 150.672 267.299 150.672 266.247 150.298C265.721 150.148 265.196 149.773 264.82 149.324C264.445 148.799 264.294 148.275 263.919 147.75C263.243 146.776 262.041 146.477 261.065 146.252C260.013 146.027 259.037 145.727 258.361 145.203C257.685 144.678 257.385 144.079 257.31 143.555C257.234 143.105 257.385 142.805 257.385 142.88C257.385 142.88 257.385 143.105 257.46 143.555C257.535 144.004 257.91 144.529 258.511 144.978C259.112 145.428 260.088 145.652 261.14 145.877C261.666 146.027 262.191 146.102 262.792 146.402C263.318 146.626 263.919 147.001 264.294 147.525C264.67 148.05 264.82 148.649 265.196 149.099C265.496 149.548 265.947 149.848 266.397 149.998C267.374 150.373 268.35 150.373 269.101 150.672C269.852 150.972 270.453 151.422 270.678 151.796C270.828 152.021 270.828 152.171 270.904 152.321C270.828 152.396 270.828 152.47 270.828 152.47Z" fill="#FAFAFA"/>
<path d="M291.557 142.281C291.557 142.281 291.557 142.356 291.557 142.58C291.482 142.805 291.407 143.105 291.257 143.405C290.881 144.079 289.98 144.903 288.703 145.503C288.102 145.802 287.351 146.027 286.6 146.402C285.849 146.701 285.098 147.151 284.497 147.75C283.221 149.024 282.62 150.972 281.718 152.845C281.268 153.819 280.742 154.718 279.991 155.467C279.766 155.617 279.616 155.842 279.39 155.917C279.165 156.067 278.94 156.217 278.714 156.292C278.264 156.516 277.813 156.666 277.362 156.741C275.56 157.116 273.908 157.041 272.556 157.415C271.279 157.79 270.378 158.614 270.077 159.214C269.702 159.888 269.702 160.338 269.702 160.338C269.702 160.338 269.702 160.263 269.702 160.038C269.702 159.813 269.777 159.513 269.927 159.139C270.227 158.464 271.129 157.565 272.481 157.116C273.832 156.666 275.485 156.741 277.287 156.292C277.738 156.217 278.189 156.067 278.564 155.842C278.789 155.767 278.94 155.617 279.165 155.467C279.39 155.318 279.54 155.168 279.691 155.018C280.367 154.344 280.892 153.444 281.343 152.545C282.244 150.672 282.845 148.649 284.272 147.376C284.948 146.701 285.774 146.252 286.525 145.952C287.276 145.652 288.027 145.353 288.628 145.128C289.905 144.603 290.731 143.854 291.107 143.18C291.482 142.73 291.482 142.281 291.557 142.281Z" fill="#FAFAFA"/>
<path d="M299.143 151.571C299.143 151.571 299.143 152.021 298.692 152.77C298.242 153.444 297.265 154.269 295.913 154.868C294.561 155.467 292.834 155.767 291.182 156.666C290.356 157.116 289.605 157.79 289.154 158.689C288.628 159.588 288.328 160.562 287.877 161.611C286.976 163.709 285.399 165.282 283.746 166.257C282.019 167.231 280.292 167.53 278.789 167.53C277.287 167.53 276.161 167.156 275.41 166.856C275.034 166.706 274.734 166.556 274.584 166.481C274.433 166.406 274.283 166.331 274.283 166.331C274.283 166.331 274.659 166.481 275.485 166.781C276.236 167.081 277.363 167.305 278.789 167.305C280.216 167.305 281.944 166.931 283.521 166.032C285.173 165.058 286.675 163.559 287.502 161.536C287.952 160.562 288.253 159.513 288.778 158.539C289.304 157.565 290.13 156.891 290.956 156.441C292.684 155.542 294.411 155.318 295.763 154.718C297.115 154.194 298.016 153.444 298.467 152.845C298.993 152.021 299.068 151.571 299.143 151.571Z" fill="#FAFAFA"/>
<path d="M305.902 158.914C305.977 158.989 304.55 159.364 302.898 160.712C302.072 161.386 301.171 162.36 300.495 163.634C300.119 164.234 299.894 164.983 299.594 165.732C299.293 166.481 298.842 167.231 298.091 167.755C297.34 168.279 296.439 168.429 295.688 168.504C294.862 168.579 294.111 168.654 293.435 168.729C292.008 168.954 290.806 169.403 289.83 169.853C287.877 170.827 286.901 171.801 286.826 171.726C286.826 171.726 287.051 171.426 287.502 171.052C287.952 170.677 288.703 170.078 289.68 169.553C290.656 169.029 291.933 168.579 293.36 168.279C294.111 168.13 294.862 168.13 295.613 168.055C296.364 167.98 297.19 167.83 297.866 167.38C298.542 166.931 298.918 166.257 299.218 165.507C299.518 164.758 299.819 164.084 300.119 163.409C300.87 162.136 301.772 161.087 302.673 160.412C303.574 159.738 304.4 159.289 304.926 159.064C305.226 158.914 305.452 158.839 305.602 158.839C305.827 158.914 305.902 158.914 305.902 158.914Z" fill="#FAFAFA"/>
<path d="M275.785 145.053C275.785 144.978 276.611 144.903 277.513 144.004C277.963 143.555 278.414 142.955 278.714 142.131C279.015 141.382 279.24 140.483 279.54 139.509C279.766 138.535 280.066 137.636 280.442 136.811C280.817 136.062 281.343 135.388 281.869 135.013C282.394 134.564 282.92 134.339 283.221 134.264C283.596 134.189 283.821 134.189 283.821 134.189C283.821 134.264 282.995 134.264 282.019 135.163C281.568 135.613 281.118 136.212 280.742 136.961C280.367 137.71 280.141 138.61 279.916 139.584C279.691 140.558 279.465 141.457 279.09 142.281C278.714 143.105 278.264 143.704 277.738 144.154C277.212 144.603 276.762 144.828 276.386 144.978C276.01 145.053 275.785 145.053 275.785 145.053Z" fill="#FAFAFA"/>
<path d="M273.607 131.567C273.532 131.567 273.757 130.443 274.659 129.394C275.56 128.345 276.687 128.045 276.687 128.12C276.762 128.195 275.785 128.72 274.959 129.619C274.133 130.668 273.757 131.642 273.607 131.567Z" fill="#FAFAFA"/>
<path d="M268.35 123.849C268.425 123.849 267.974 124.524 267.148 125.648C266.773 126.172 266.322 126.846 265.721 127.446C265.421 127.746 265.045 128.12 264.595 128.27C264.144 128.495 263.618 128.495 263.093 128.495C262.567 128.495 262.116 128.495 261.666 128.495C261.215 128.57 260.839 128.72 260.464 128.869C259.713 129.244 259.262 129.918 259.037 130.443C258.511 131.642 258.812 132.466 258.736 132.466C258.736 132.466 258.661 132.316 258.586 131.941C258.511 131.567 258.586 131.042 258.812 130.368C259.037 129.768 259.563 129.019 260.314 128.57C260.689 128.345 261.14 128.195 261.666 128.12C262.191 128.045 262.642 128.045 263.168 128.045C263.693 128.045 264.144 128.045 264.52 127.82C264.895 127.671 265.271 127.371 265.571 127.071C266.172 126.472 266.623 125.798 266.998 125.348C267.824 124.449 268.35 123.849 268.35 123.849Z" fill="#FAFAFA"/>
<g opacity="0.2">
<path opacity="0.2" d="M278.339 141.457L272.631 164.458L267.674 157.565L278.339 141.457Z" fill="#1F0812"/>
</g>
<path d="M303.049 217.28C302.973 217.28 302.823 213.459 302.823 208.738C302.823 204.018 302.898 200.197 303.049 200.197C303.124 200.197 303.274 204.018 303.274 208.738C303.274 213.459 303.199 217.28 303.049 217.28Z" fill="#EDF2F4"/>
<path d="M49.1186 174.798C51.3717 174.873 53.4747 176.146 54.9768 177.87C56.4789 179.593 57.3801 181.691 57.9059 183.939C59.0324 188.134 58.2814 193.154 57.0046 197.35C52.4232 195.702 49.6443 190.757 48.3675 188.209C46.4899 184.088 45.3634 175.547 49.1186 174.798Z" fill="#FF5A5F"/>
<path d="M63.614 202.445C62.1871 200.347 62.1871 197.5 63.3136 195.252C64.4402 193.004 66.6933 191.431 69.0967 190.682C70.2233 190.382 71.5001 190.232 72.4764 190.907C73.3777 191.506 73.7532 192.705 73.603 193.829C73.4528 194.878 72.9271 195.926 72.2511 196.751C70.0731 199.673 67.2942 202.22 63.614 202.445Z" fill="#FF5A5F"/>
<path d="M63.9897 216.605C63.9897 216.605 63.9146 216.306 63.7644 215.706C63.6142 215.107 63.464 214.283 63.3138 213.309C62.9382 211.286 62.4125 208.439 62.8631 205.217C63.3138 202.07 64.5906 199.373 65.9424 197.725C66.6184 196.9 67.2192 196.376 67.6699 196.001C67.8952 195.852 68.1205 195.702 68.1956 195.627C68.3458 195.552 68.4209 195.477 68.4209 195.477C68.496 195.552 67.3694 196.226 66.0927 197.874C64.8159 199.448 63.6142 202.145 63.1636 205.217C62.7129 208.364 63.2387 211.211 63.5391 213.234C63.6893 214.283 63.8395 215.107 63.9146 215.631C63.9897 216.231 63.9897 216.605 63.9897 216.605Z" fill="#2B2D42"/>
<path d="M50.5459 181.241C50.5459 181.241 50.621 181.391 50.6961 181.616C50.8463 181.916 50.9965 182.215 51.1467 182.665C51.5223 183.564 52.1231 184.838 52.799 186.486C54.1509 189.708 55.9534 194.128 57.8311 199.148C59.7087 204.093 61.2859 208.664 62.4125 211.96C62.9382 213.609 63.3888 214.957 63.6893 215.856C63.8395 216.306 63.9146 216.68 63.9897 216.905C64.0648 217.13 64.0648 217.28 64.0648 217.28C64.0648 217.28 63.9897 217.13 63.9146 216.905C63.8395 216.605 63.6893 216.306 63.539 215.856C63.1635 214.882 62.7129 213.609 62.1872 211.96C60.9855 208.664 59.4083 204.168 57.5307 199.223C55.653 194.278 53.8505 189.783 52.5737 186.561C51.9729 184.988 51.4472 183.639 51.0716 182.74C50.9214 182.29 50.7712 181.991 50.6961 181.691C50.621 181.391 50.5459 181.241 50.5459 181.241Z" fill="#2B2D42"/>
<path d="M58.582 207.165C55.9533 202.52 50.9213 199.373 45.5888 198.923C44.237 198.848 42.5847 198.998 41.9838 200.272C41.383 201.471 42.134 202.894 43.1104 203.943C46.9407 208.139 53.3998 209.638 58.6571 207.54" fill="#FF5A5F"/>
<path d="M47.6167 202.595C47.6167 202.595 47.9171 202.595 48.4429 202.67C48.7433 202.67 49.0437 202.745 49.4192 202.819C49.7947 202.894 50.2454 202.969 50.696 203.044C51.1466 203.194 51.6724 203.269 52.2732 203.494C52.7989 203.644 53.3998 203.868 54.0006 204.168C55.2023 204.693 56.404 205.442 57.6056 206.341C58.8073 207.24 59.7837 208.289 60.6098 209.338C60.9854 209.862 61.3609 210.387 61.6613 210.836C61.9617 211.286 62.187 211.81 62.4124 212.26C62.6377 212.709 62.7879 213.084 62.9381 213.459C63.0883 213.833 63.1634 214.133 63.2385 214.433C63.3887 214.957 63.4638 215.257 63.4638 215.257C63.3887 215.257 63.0883 214.133 62.1871 212.41C61.9617 211.96 61.7364 211.511 61.3609 211.061C61.0605 210.537 60.685 210.087 60.3094 209.563C59.4833 208.589 58.5069 207.54 57.3803 206.641C56.2538 205.741 54.977 205.067 53.8504 204.468C53.2496 204.243 52.7238 203.943 52.1981 203.793C51.6724 203.569 51.1466 203.419 50.696 203.344C48.8184 202.745 47.6167 202.67 47.6167 202.595Z" fill="#2B2D42"/>
</g>
<defs>
<clipPath id="clip0">
<rect width="340" height="222" fill="white"/>
</clipPath>
</defs>
</svg>
