<svg width="142" height="19" viewBox="0 0 142 19" fill="none" xmlns="http://www.w3.org/2000/svg">
<path d="M7.36801 18.24C5.36801 18.24 3.78401 17.792 2.61601 16.896C1.44801 16 0.864014 14.72 0.864014 13.056C0.864014 12.688 0.904014 12.248 0.984014 11.736C1.17601 10.584 1.48001 9.15999 1.89601 7.46399C2.42401 5.33599 3.39201 3.71999 4.80001 2.61599C6.20801 1.51199 8.04801 0.959991 10.32 0.959991C11.568 0.959991 12.696 1.15199 13.704 1.53599C14.728 1.91999 15.536 2.47199 16.128 3.19199C16.72 3.91199 17.016 4.76799 17.016 5.75999C17.016 6.11199 16.984 6.43999 16.92 6.74399C16.888 6.88799 16.816 7.00799 16.704 7.10399C16.608 7.19999 16.488 7.24799 16.344 7.24799H13.08C12.856 7.24799 12.688 7.20799 12.576 7.12799C12.48 7.03199 12.424 6.86399 12.408 6.62399C12.424 5.83999 12.224 5.27999 11.808 4.94399C11.392 4.59199 10.784 4.41599 9.98401 4.41599C8.06401 4.41599 6.84801 5.47199 6.33601 7.58399C6.00001 8.89599 5.71201 10.24 5.47201 11.616C5.40801 11.952 5.37601 12.288 5.37601 12.624C5.37601 14.064 6.14401 14.784 7.68001 14.784C8.46401 14.784 9.14401 14.616 9.72001 14.28C10.296 13.928 10.768 13.36 11.136 12.576C11.248 12.336 11.368 12.176 11.496 12.096C11.624 12 11.8 11.952 12.024 11.952H15.288C15.432 11.952 15.544 12 15.624 12.096C15.688 12.16 15.72 12.24 15.72 12.336C15.72 12.368 15.712 12.408 15.696 12.456C15.248 14.264 14.304 15.68 12.864 16.704C11.424 17.728 9.59201 18.24 7.36801 18.24Z" fill="#A90015"/>
<path d="M24.1721 18.24C22.2681 18.24 20.7081 17.792 19.4921 16.896C18.2921 15.984 17.6921 14.688 17.6921 13.008C17.6921 12.656 17.7321 12.224 17.8121 11.712C18.0201 10.56 18.3161 9.17599 18.7001 7.55999C19.7881 3.15999 22.5961 0.959991 27.1241 0.959991C28.3561 0.959991 29.4601 1.16799 30.4361 1.58399C31.4121 1.98399 32.1801 2.59199 32.7401 3.40799C33.3001 4.20799 33.5801 5.16799 33.5801 6.28799C33.5801 6.62399 33.5401 7.04799 33.4601 7.55999C33.2201 8.98399 32.9321 10.368 32.5961 11.712C32.0361 13.904 31.0681 15.544 29.6921 16.632C28.3161 17.704 26.4761 18.24 24.1721 18.24ZM24.5081 14.784C25.4041 14.784 26.1641 14.52 26.7881 13.992C27.4281 13.464 27.8841 12.656 28.1561 11.568C28.5241 10.064 28.8041 8.75199 28.9961 7.63199C29.0601 7.29599 29.0921 6.95199 29.0921 6.59999C29.0921 5.14399 28.3321 4.41599 26.8121 4.41599C25.9161 4.41599 25.1481 4.67999 24.5081 5.20799C23.8841 5.73599 23.4361 6.54399 23.1641 7.63199C22.8761 8.70399 22.5881 10.016 22.3001 11.568C22.2361 11.888 22.2041 12.224 22.2041 12.576C22.2041 14.048 22.9721 14.784 24.5081 14.784Z" fill="#A90015"/>
<path d="M34.6821 18C34.5061 18 34.3701 17.944 34.2741 17.832C34.1941 17.704 34.1701 17.56 34.2021 17.4L37.5141 1.79999C37.5461 1.62399 37.6341 1.47999 37.7781 1.36799C37.9221 1.25599 38.0741 1.19999 38.2341 1.19999H44.0901C45.3381 1.19999 46.4581 1.40799 47.4501 1.82399C48.4581 2.22399 49.2501 2.82399 49.8261 3.62399C50.4181 4.42399 50.7141 5.37599 50.7141 6.47999C50.7141 6.84799 50.6741 7.27199 50.5941 7.75199C50.3701 9.04799 50.1141 10.272 49.8261 11.424C49.2661 13.712 48.3381 15.384 47.0421 16.44C45.7461 17.48 43.8741 18 41.4261 18H34.6821ZM41.6421 14.544C42.6981 14.544 43.5301 14.296 44.1381 13.8C44.7461 13.288 45.1861 12.48 45.4581 11.376C45.7941 9.95199 46.0501 8.75999 46.2261 7.79999C46.2901 7.35199 46.3221 7.04799 46.3221 6.88799C46.3221 6.11999 46.0981 5.55999 45.6501 5.20799C45.2021 4.83999 44.5301 4.65599 43.6341 4.65599H41.2341L39.1221 14.544H41.6421Z" fill="#A90015"/>
<path d="M51.8618 18C51.6858 18 51.5498 17.944 51.4538 17.832C51.3738 17.704 51.3498 17.56 51.3818 17.4L54.6938 1.79999C54.7258 1.62399 54.8138 1.47999 54.9578 1.36799C55.1018 1.25599 55.2538 1.19999 55.4138 1.19999H66.6218C66.7978 1.19999 66.9338 1.25599 67.0298 1.36799C67.1098 1.44799 67.1498 1.55199 67.1498 1.67999C67.1498 1.71199 67.1418 1.75199 67.1258 1.79999L66.6458 4.05599C66.5978 4.23199 66.5018 4.37599 66.3578 4.48799C66.2298 4.59999 66.0778 4.65599 65.9018 4.65599H58.2698L57.5498 7.89599H64.6778C64.8538 7.89599 64.9898 7.95199 65.0858 8.06399C65.1498 8.15999 65.1818 8.26399 65.1818 8.37599C65.1818 8.42399 65.1738 8.47199 65.1578 8.51999L64.7018 10.608C64.6698 10.784 64.5818 10.928 64.4378 11.04C64.2938 11.152 64.1418 11.208 63.9818 11.208H56.8538L56.1578 14.544H63.9818C64.1578 14.544 64.2938 14.6 64.3898 14.712C64.4538 14.792 64.4858 14.888 64.4858 15C64.4858 15.048 64.4778 15.096 64.4618 15.144L63.9818 17.4C63.9498 17.576 63.8618 17.72 63.7178 17.832C63.5898 17.944 63.4378 18 63.2618 18H51.8618Z" fill="#A90015"/>
<path d="M78.9936 18.24C76.9936 18.24 75.4576 17.808 74.3856 16.944C73.3136 16.08 72.7776 14.832 72.7776 13.2C72.7776 12.752 72.8256 12.264 72.9216 11.736C73.1456 10.424 73.4576 8.95199 73.8576 7.31999C74.3536 5.30399 75.3776 3.74399 76.9296 2.63999C78.4976 1.51999 80.4096 0.959991 82.6656 0.959991C84.0736 0.959991 85.2656 1.17599 86.2416 1.60799C87.2176 2.02399 87.9456 2.56799 88.4256 3.23999C88.9216 3.91199 89.1696 4.63199 89.1696 5.39999C89.1696 5.52799 89.1536 5.71999 89.1216 5.97599C89.0896 6.11999 89.0096 6.23999 88.8816 6.33599C88.7696 6.43199 88.6336 6.47999 88.4736 6.47999H84.9696C84.8096 6.47999 84.6896 6.45599 84.6096 6.40799C84.5296 6.35999 84.4656 6.27199 84.4176 6.14399C84.3216 5.67999 84.0816 5.27999 83.6976 4.94399C83.3296 4.59199 82.7456 4.41599 81.9456 4.41599C80.0256 4.41599 78.8096 5.42399 78.2976 7.43999C78.0096 8.57599 77.7136 9.96799 77.4096 11.616C77.3616 11.952 77.3376 12.248 77.3376 12.504C77.3376 14.024 78.1616 14.784 79.8096 14.784C80.7536 14.784 81.5616 14.544 82.2336 14.064C82.9056 13.568 83.3456 12.816 83.5536 11.808L83.6496 11.352H81.3936C81.2176 11.352 81.0816 11.296 80.9856 11.184C80.9056 11.056 80.8816 10.904 80.9136 10.728L81.2976 8.95199C81.3296 8.77599 81.4176 8.63199 81.5616 8.51999C81.7056 8.39199 81.8656 8.32799 82.0416 8.32799H88.0896C88.2656 8.32799 88.4016 8.38399 88.4976 8.49599C88.5616 8.59199 88.5936 8.69599 88.5936 8.80799C88.5936 8.85599 88.5856 8.90399 88.5696 8.95199L87.9936 11.688C87.6896 13.048 87.1216 14.224 86.2896 15.216C85.4576 16.192 84.4096 16.944 83.1456 17.472C81.8976 17.984 80.5136 18.24 78.9936 18.24Z" fill="#A90015"/>
<path d="M87.756 18C87.612 18 87.5 17.96 87.42 17.88C87.34 17.784 87.3 17.672 87.3 17.544C87.3 17.464 87.324 17.376 87.372 17.28L96.276 1.87199C96.532 1.42399 96.892 1.19999 97.356 1.19999H101.052C101.516 1.19999 101.78 1.42399 101.844 1.87199L104.196 17.28C104.228 17.504 104.188 17.68 104.076 17.808C103.964 17.936 103.82 18 103.644 18H100.74C100.324 18 100.084 17.808 100.02 17.424L99.612 15.048H93.204L91.764 17.496C91.524 17.832 91.228 18 90.876 18H87.756ZM99.372 11.592L98.484 5.25599L94.908 11.592H99.372Z" fill="#A90015"/>
<path d="M106.589 18C106.413 18 106.277 17.944 106.181 17.832C106.085 17.72 106.053 17.576 106.085 17.4L109.397 1.79999C109.429 1.62399 109.517 1.47999 109.661 1.36799C109.805 1.25599 109.965 1.19999 110.141 1.19999H112.733C113.117 1.19999 113.365 1.37599 113.477 1.72799L116.093 9.28799L121.925 1.72799C122.005 1.59999 122.117 1.47999 122.261 1.36799C122.421 1.25599 122.613 1.19999 122.837 1.19999H125.453C125.629 1.19999 125.765 1.25599 125.861 1.36799C125.925 1.46399 125.957 1.55999 125.957 1.65599C125.957 1.70399 125.949 1.75199 125.933 1.79999L122.621 17.4C122.589 17.576 122.501 17.72 122.357 17.832C122.213 17.944 122.061 18 121.901 18H118.997C118.821 18 118.685 17.944 118.589 17.832C118.509 17.704 118.485 17.56 118.517 17.4L120.389 8.54399L116.717 13.416C116.557 13.592 116.405 13.728 116.261 13.824C116.117 13.92 115.949 13.968 115.757 13.968H114.509C114.173 13.968 113.941 13.784 113.813 13.416L112.109 8.32799L110.189 17.4C110.157 17.576 110.069 17.72 109.925 17.832C109.781 17.944 109.629 18 109.469 18H106.589Z" fill="#A90015"/>
<path d="M126.44 18C126.264 18 126.128 17.944 126.032 17.832C125.952 17.704 125.928 17.56 125.96 17.4L129.272 1.79999C129.304 1.62399 129.392 1.47999 129.536 1.36799C129.68 1.25599 129.832 1.19999 129.992 1.19999H141.2C141.376 1.19999 141.512 1.25599 141.608 1.36799C141.688 1.44799 141.728 1.55199 141.728 1.67999C141.728 1.71199 141.72 1.75199 141.704 1.79999L141.224 4.05599C141.176 4.23199 141.08 4.37599 140.936 4.48799C140.808 4.59999 140.656 4.65599 140.48 4.65599H132.848L132.128 7.89599H139.256C139.432 7.89599 139.568 7.95199 139.664 8.06399C139.728 8.15999 139.76 8.26399 139.76 8.37599C139.76 8.42399 139.752 8.47199 139.736 8.51999L139.28 10.608C139.248 10.784 139.16 10.928 139.016 11.04C138.872 11.152 138.72 11.208 138.56 11.208H131.432L130.736 14.544H138.56C138.736 14.544 138.872 14.6 138.968 14.712C139.032 14.792 139.064 14.888 139.064 15C139.064 15.048 139.056 15.096 139.04 15.144L138.56 17.4C138.528 17.576 138.44 17.72 138.296 17.832C138.168 17.944 138.016 18 137.84 18H126.44Z" fill="#A90015"/>
</svg>
