<svg width="226" height="27" viewBox="0 0 226 27" fill="none" xmlns="http://www.w3.org/2000/svg">
<path d="M10.4349 27C7.22615 27 4.68481 26.3 2.81088 24.9C0.936961 23.5 0 21.5 0 18.9C0 18.325 0.0641754 17.6375 0.192526 16.8375C0.500568 15.0375 0.988302 12.8125 1.65573 10.1625C2.50284 6.8375 4.05589 4.3125 6.31486 2.5875C8.57384 0.8625 11.5259 0 15.1711 0C17.1733 0 18.9831 0.3 20.6003 0.899999C22.2432 1.5 23.5395 2.3625 24.4893 3.4875C25.4391 4.6125 25.914 5.95 25.914 7.5C25.914 8.05 25.8627 8.5625 25.76 9.0375C25.7087 9.2625 25.5932 9.45 25.4135 9.6C25.2595 9.75 25.0669 9.825 24.8359 9.825H19.5992C19.2398 9.825 18.9703 9.7625 18.7906 9.6375C18.6365 9.4875 18.5467 9.225 18.521 8.85C18.5467 7.625 18.2258 6.75 17.5584 6.225C16.891 5.675 15.9155 5.4 14.632 5.4C11.5516 5.4 9.60064 7.05 8.7792 10.35C8.24013 12.4 7.77806 14.5 7.39301 16.65C7.29033 17.175 7.23899 17.7 7.23899 18.225C7.23899 20.475 8.47116 21.6 10.9355 21.6C12.1933 21.6 13.2843 21.3375 14.2084 20.8125C15.1326 20.2625 15.8898 19.375 16.4803 18.15C16.6599 17.775 16.8525 17.525 17.0578 17.4C17.2632 17.25 17.5456 17.175 17.9049 17.175H23.1417C23.3727 17.175 23.5524 17.25 23.6807 17.4C23.7834 17.5 23.8348 17.625 23.8348 17.775C23.8348 17.825 23.8219 17.8875 23.7963 17.9625C23.0775 20.7875 21.5629 23 19.2526 24.6C16.9423 26.2 14.0031 27 10.4349 27Z" fill="#FDFFFF"/>
<path d="M37.3952 27C34.3405 27 31.8376 26.3 29.8867 24.9C27.9614 23.475 26.9988 21.45 26.9988 18.825C26.9988 18.275 27.063 17.6 27.1913 16.8C27.525 15 27.9999 12.8375 28.616 10.3125C30.3616 3.4375 34.8667 0 42.1314 0C44.108 0 45.8792 0.325 47.4451 0.975001C49.011 1.6 50.2431 2.55 51.1416 3.825C52.0401 5.075 52.4893 6.575 52.4893 8.325C52.4893 8.85 52.4251 9.5125 52.2968 10.3125C51.9117 12.5375 51.4496 14.7 50.9106 16.8C50.0121 20.225 48.4591 22.7875 46.2514 24.4875C44.0438 26.1625 41.0917 27 37.3952 27ZM37.9343 21.6C39.3718 21.6 40.5912 21.1875 41.5923 20.3625C42.6191 19.5375 43.3507 18.275 43.7871 16.575C44.3775 14.225 44.8267 12.175 45.1348 10.425C45.2375 9.9 45.2888 9.3625 45.2888 8.8125C45.2888 6.5375 44.0695 5.4 41.6308 5.4C40.1933 5.4 38.9611 5.8125 37.9343 6.6375C36.9332 7.4625 36.2144 8.725 35.778 10.425C35.3159 12.1 34.8539 14.15 34.3918 16.575C34.2891 17.075 34.2378 17.6 34.2378 18.15C34.2378 20.45 35.47 21.6 37.9343 21.6Z" fill="#FDFFFF"/>
<path d="M54.2572 26.625C53.9748 26.625 53.7566 26.5375 53.6026 26.3625C53.4743 26.1625 53.4358 25.9375 53.4871 25.6875L58.8008 1.3125C58.8522 1.0375 58.9934 0.8125 59.2244 0.637501C59.4554 0.4625 59.6993 0.375 59.956 0.375H69.3513C71.3536 0.375 73.1505 0.7 74.742 1.35C76.3592 1.975 77.6299 2.9125 78.554 4.1625C79.5038 5.4125 79.9787 6.9 79.9787 8.625C79.9787 9.2 79.9146 9.8625 79.7862 10.6125C79.4268 12.6375 79.0161 14.55 78.554 16.35C77.6556 19.925 76.1667 22.5375 74.0874 24.1875C72.0081 25.8125 69.0047 26.625 65.0772 26.625H54.2572ZM65.4237 21.225C67.118 21.225 68.4528 20.8375 69.4283 20.0625C70.4038 19.2625 71.1097 18 71.5461 16.275C72.0852 14.05 72.4959 12.1875 72.7783 10.6875C72.8809 9.9875 72.9323 9.5125 72.9323 9.2625C72.9323 8.0625 72.5729 7.1875 71.8541 6.6375C71.1354 6.0625 70.0572 5.775 68.6197 5.775H64.7692L61.3807 21.225H65.4237Z" fill="#FDFFFF"/>
<path d="M81.8201 26.625C81.5377 26.625 81.3195 26.5375 81.1655 26.3625C81.0371 26.1625 80.9986 25.9375 81.05 25.6875L86.3637 1.3125C86.415 1.0375 86.5562 0.8125 86.7872 0.637501C87.0183 0.4625 87.2621 0.375 87.5188 0.375H105.501C105.783 0.375 106.001 0.4625 106.155 0.637501C106.284 0.762501 106.348 0.925001 106.348 1.125C106.348 1.175 106.335 1.2375 106.309 1.3125L105.539 4.8375C105.462 5.1125 105.308 5.3375 105.077 5.5125C104.872 5.6875 104.628 5.775 104.346 5.775H92.101L90.9458 10.8375H102.382C102.664 10.8375 102.882 10.925 103.036 11.1C103.139 11.25 103.19 11.4125 103.19 11.5875C103.19 11.6625 103.178 11.7375 103.152 11.8125L102.42 15.075C102.369 15.35 102.228 15.575 101.997 15.75C101.766 15.925 101.522 16.0125 101.265 16.0125H89.8292L88.7125 21.225H101.265C101.548 21.225 101.766 21.3125 101.92 21.4875C102.022 21.6125 102.074 21.7625 102.074 21.9375C102.074 22.0125 102.061 22.0875 102.035 22.1625L101.265 25.6875C101.214 25.9625 101.073 26.1875 100.842 26.3625C100.636 26.5375 100.392 26.625 100.11 26.625H81.8201Z" fill="#FDFFFF"/>
<path d="M125.35 27C122.141 27 119.677 26.325 117.957 24.975C116.237 23.625 115.377 21.675 115.377 19.125C115.377 18.425 115.454 17.6625 115.608 16.8375C115.968 14.7875 116.468 12.4875 117.11 9.9375C117.906 6.7875 119.548 4.35 122.038 2.625C124.554 0.875 127.622 0 131.241 0C133.5 0 135.413 0.3375 136.979 1.0125C138.544 1.6625 139.712 2.5125 140.483 3.5625C141.278 4.6125 141.676 5.7375 141.676 6.9375C141.676 7.1375 141.651 7.4375 141.599 7.8375C141.548 8.0625 141.419 8.25 141.214 8.4C141.034 8.55 140.816 8.625 140.56 8.625H134.938C134.681 8.625 134.489 8.5875 134.36 8.5125C134.232 8.4375 134.129 8.3 134.052 8.1C133.898 7.375 133.513 6.75 132.897 6.225C132.307 5.675 131.37 5.4 130.086 5.4C127.006 5.4 125.055 6.975 124.233 10.125C123.771 11.9 123.296 14.075 122.809 16.65C122.732 17.175 122.693 17.6375 122.693 18.0375C122.693 20.4125 124.015 21.6 126.659 21.6C128.174 21.6 129.47 21.225 130.548 20.475C131.626 19.7 132.332 18.525 132.666 16.95L132.82 16.2375H129.2C128.918 16.2375 128.7 16.15 128.546 15.975C128.418 15.775 128.379 15.5375 128.43 15.2625L129.046 12.4875C129.098 12.2125 129.239 11.9875 129.47 11.8125C129.701 11.6125 129.958 11.5125 130.24 11.5125H139.943C140.226 11.5125 140.444 11.6 140.598 11.775C140.701 11.925 140.752 12.0875 140.752 12.2625C140.752 12.3375 140.739 12.4125 140.714 12.4875L139.789 16.7625C139.302 18.8875 138.39 20.725 137.056 22.275C135.721 23.8 134.039 24.975 132.011 25.8C130.009 26.6 127.789 27 125.35 27Z" fill="#FDFFFF"/>
<path d="M139.408 26.625C139.177 26.625 138.998 26.5625 138.869 26.4375C138.741 26.2875 138.677 26.1125 138.677 25.9125C138.677 25.7875 138.715 25.65 138.792 25.5L153.078 1.425C153.488 0.725 154.066 0.375 154.81 0.375H160.74C161.485 0.375 161.908 0.725 162.011 1.425L165.784 25.5C165.836 25.85 165.772 26.125 165.592 26.325C165.412 26.525 165.181 26.625 164.899 26.625H160.24C159.572 26.625 159.187 26.325 159.084 25.725L158.43 22.0125H148.149L145.839 25.8375C145.454 26.3625 144.979 26.625 144.414 26.625H139.408ZM158.045 16.6125L156.62 6.7125L150.883 16.6125H158.045Z" fill="#FDFFFF"/>
<path d="M169.623 26.625C169.341 26.625 169.123 26.5375 168.969 26.3625C168.815 26.1875 168.764 25.9625 168.815 25.6875L174.129 1.3125C174.18 1.0375 174.321 0.8125 174.552 0.637501C174.783 0.4625 175.04 0.375 175.322 0.375H179.481C180.097 0.375 180.495 0.65 180.674 1.2L184.872 13.0125L194.228 1.2C194.357 1 194.536 0.8125 194.767 0.637501C195.024 0.4625 195.332 0.375 195.692 0.375H199.889C200.171 0.375 200.389 0.4625 200.543 0.637501C200.646 0.7875 200.697 0.9375 200.697 1.0875C200.697 1.1625 200.684 1.2375 200.659 1.3125L195.345 25.6875C195.294 25.9625 195.152 26.1875 194.921 26.3625C194.69 26.5375 194.447 26.625 194.19 26.625H189.531C189.248 26.625 189.03 26.5375 188.876 26.3625C188.748 26.1625 188.709 25.9375 188.761 25.6875L191.764 11.85L185.873 19.4625C185.616 19.7375 185.372 19.95 185.141 20.1C184.91 20.25 184.641 20.325 184.332 20.325H182.33C181.791 20.325 181.419 20.0375 181.214 19.4625L178.48 11.5125L175.399 25.6875C175.348 25.9625 175.207 26.1875 174.976 26.3625C174.745 26.5375 174.501 26.625 174.244 26.625H169.623Z" fill="#FDFFFF"/>
<path d="M201.472 26.625C201.19 26.625 200.972 26.5375 200.818 26.3625C200.689 26.1625 200.651 25.9375 200.702 25.6875L206.016 1.3125C206.067 1.0375 206.208 0.8125 206.439 0.637501C206.67 0.4625 206.914 0.375 207.171 0.375H225.153C225.435 0.375 225.653 0.4625 225.807 0.637501C225.936 0.762501 226 0.925001 226 1.125C226 1.175 225.987 1.2375 225.961 1.3125L225.191 4.8375C225.114 5.1125 224.96 5.3375 224.729 5.5125C224.524 5.6875 224.28 5.775 223.998 5.775H211.753L210.598 10.8375H222.034C222.316 10.8375 222.535 10.925 222.689 11.1C222.791 11.25 222.843 11.4125 222.843 11.5875C222.843 11.6625 222.83 11.7375 222.804 11.8125L222.072 15.075C222.021 15.35 221.88 15.575 221.649 15.75C221.418 15.925 221.174 16.0125 220.917 16.0125H209.481L208.365 21.225H220.917C221.2 21.225 221.418 21.3125 221.572 21.4875C221.675 21.6125 221.726 21.7625 221.726 21.9375C221.726 22.0125 221.713 22.0875 221.687 22.1625L220.917 25.6875C220.866 25.9625 220.725 26.1875 220.494 26.3625C220.288 26.5375 220.045 26.625 219.762 26.625H201.472Z" fill="#FDFFFF"/>
</svg>
