<svg width="71" height="24" viewBox="0 0 71 24" fill="none" xmlns="http://www.w3.org/2000/svg">
<path d="M13.4249 0.638916C12.4283 0.638916 11.8477 1.40765 11.8477 2.5084V3.21982V10.2004V10.9322C11.8477 12.0084 12.4283 12.7885 13.4249 12.7885C14.403 12.7885 15.0093 12.0084 15.0093 10.9322V10.2004V3.21982V2.5084C15.0093 1.40765 14.403 0.638916 13.4249 0.638916Z" fill="#1756C2"/>
<path d="M20.8378 3.97484H20.0947V3.51304C20.0947 2.99439 20.3969 2.77604 21.1959 2.86651C22.0461 2.94561 22.237 2.4047 22.237 1.97226C22.237 1.63787 22.1394 1.4683 21.8813 1.16895C21.3304 0.622364 19.9365 0.638941 19.9365 0.638941C19.9365 0.638941 18.6728 0.580683 17.816 1.26084C16.9629 1.923 17.0373 3.12891 17.0373 3.12891V3.97484H16.9004C16.3335 3.97484 15.7314 4.32771 15.7314 5.05239C15.7314 5.78229 16.4144 6.11668 16.9629 6.11668H17.0373V11.144C17.0373 12.0084 17.5673 12.7885 18.6126 12.7885C19.6793 12.7885 20.0947 12.033 20.0947 11.1928V6.11668H20.8378C21.2485 6.11668 22.0646 5.91633 22.0646 5.09455C22.0646 4.24151 21.4214 3.97484 20.8378 3.97484Z" fill="#1756C2"/>
<path d="M29.7544 3.69629C29.2428 3.69629 28.8341 3.92648 28.5665 4.27509C28.0743 3.93359 27.4264 3.69629 26.6709 3.69629C23.4515 3.69629 22.0254 6.11663 22.0254 8.45361C22.0254 10.9554 23.758 12.8907 26.6709 12.8907C27.361 12.8907 28.026 12.661 28.5627 12.3077C28.8251 12.6653 29.2367 12.8907 29.7544 12.8907C30.7557 12.8907 31.3264 12.1192 31.3264 11.0298V5.56388C31.3264 4.49344 30.7557 3.69629 29.7544 3.69629ZM25.1524 8.33283C25.1524 6.34209 26.1182 5.98922 26.7671 5.98922C26.7927 5.98922 26.8253 5.98922 26.8481 5.98922C27.5936 6.04748 28.1809 6.54433 28.1809 8.41903C28.1809 10.2634 27.5443 10.6329 26.8845 10.6698C26.8457 10.6698 26.8263 10.6698 26.7851 10.6698C26.0443 10.6698 25.1519 10.3165 25.1519 8.33283H25.1524Z" fill="#1756C2"/>
<path d="M10.6281 10.3957C10.4642 9.90307 7.80376 2.31854 7.67162 1.96094C7.52526 1.60097 7.39074 1.34046 7.06913 1.11595C6.5377 0.712877 5.4 0.737033 5.4 0.737033C5.4 0.737033 4.27745 0.710982 3.73655 1.11595C3.42015 1.34093 3.28516 1.60144 3.14591 1.96094C3.01139 2.31854 0.350911 9.90307 0.167609 10.3957C0.0184101 10.8769 -0.110422 11.4666 0.167609 11.9478C0.472639 12.3978 0.976126 12.7885 1.62692 12.7885C2.28671 12.7885 2.87167 12.502 3.12744 11.6987C3.3761 10.8769 3.50635 10.4752 3.50635 10.4752H5.4H7.30359C7.30359 10.4752 7.42721 10.8769 7.67825 11.6987C7.92881 12.5025 8.52844 12.7885 9.17024 12.7885C9.84519 12.7885 10.361 12.3978 10.6281 11.9478C10.9171 11.4666 10.8053 10.8769 10.6281 10.3957ZM4.22156 7.86307L5.4 4.01657L6.58175 7.86307H4.22156Z" fill="#1756C2"/>
<path d="M66.8616 21.9227H0V23.3659H66.8616C68.9134 23.3659 70.6318 21.8579 70.9454 19.9041C70.026 21.1332 68.5298 21.9227 66.8616 21.9227Z" fill="#EFCF00"/>
<path d="M70.997 16.7936V15.637H4.14726C1.86523 15.637 0 17.5036 0 19.788V20.9447H66.8616C69.1479 20.9447 70.997 19.0752 70.997 16.7936Z" fill="#D60F27"/>
<path d="M44.9883 3.60307C43.2969 3.60307 41.6524 5.86758 41.0689 6.74383C41.0949 6.54442 41.1385 6.23987 41.2318 5.89173C41.355 5.31483 41.4615 4.49779 41.0689 4.01656C40.8392 3.73806 40.5 3.60307 40.0453 3.60307C38.479 3.60307 36.9316 5.60091 36.2699 6.579C36.348 6.29291 36.4418 5.93531 36.5043 5.7288C36.6067 5.24805 36.8089 4.49826 36.4849 4.06108C36.2917 3.79158 35.9739 3.67032 35.5229 3.67032C34.786 3.67032 33.9661 4.01656 33.932 4.01656L33.7648 4.09187L33.9178 4.18186C33.9178 4.18186 34.1432 4.40732 33.9694 5.60091C33.6719 7.69917 32.987 10.2005 32.7199 11.1928C32.5664 11.6987 32.5896 12.1122 32.7919 12.3864C33.0055 12.6654 33.3934 12.8255 33.8775 12.8255C34.5529 12.8255 35.1668 12.6 35.2009 12.5678L35.3008 12.5418L35.2217 12.4399C35.2217 12.4333 34.8693 11.9099 35.334 10.8925C36.8994 7.40978 38.165 6.02341 38.5188 5.78658C38.6021 5.74774 38.6509 5.70133 38.7111 5.70133C38.7499 5.70133 38.7693 5.7269 38.7693 5.74632C38.8082 5.76574 38.8148 5.85147 38.8082 5.92963C38.6808 7.14027 38.1692 9.1618 37.8405 10.5136C37.7699 10.8224 37.6942 11.0739 37.6539 11.2852C37.5331 11.8029 37.5734 12.2045 37.7699 12.4717C37.9656 12.6928 38.2819 12.8203 38.7295 12.8203C39.4315 12.8203 40.052 12.5626 40.0776 12.5579L40.205 12.5062L40.1098 12.42C40.1098 12.3873 39.7706 11.9454 40.2466 10.8684C41.4038 8.1894 42.9668 6.09635 43.3732 5.79227C43.5106 5.69564 43.5807 5.68333 43.6219 5.68333C43.6351 5.68333 43.6413 5.68333 43.6673 5.72217C43.6995 5.75438 43.7128 5.869 43.6995 6.00778C43.6934 6.05941 43.6479 6.22613 43.6114 6.47432C43.3798 7.40172 42.9682 9.31858 42.7428 10.6524C42.6078 11.4486 42.6731 12.0454 42.9682 12.385C43.2074 12.6592 43.5816 12.8193 44.0368 12.8193C44.8311 12.8193 45.5652 12.3239 45.5979 12.3059L45.714 12.2268L45.6074 12.1548C45.6074 12.1548 45.0452 11.6248 45.3213 10.0617C45.5169 9.01402 45.7694 7.80859 45.9603 6.93234C46.0507 6.49327 46.109 6.12808 46.1578 5.92868L46.1706 5.85005C46.2724 5.3693 46.4259 4.49116 46.01 3.99383C45.7897 3.70585 45.4572 3.59644 44.995 3.59644L44.9883 3.60307Z" fill="#D60F27"/>
<path d="M54.8723 3.69634C54.3925 3.69634 54.0017 3.82469 53.7346 4.08378C53.539 3.96347 52.8721 3.60303 51.9968 3.60303C51.4971 3.60303 50.7624 3.69634 49.9383 4.21877C49.0232 4.78573 48.2516 5.69182 47.6222 6.93183C46.1984 9.70835 46.8809 11.7356 47.239 12.2334C47.5506 12.6658 47.9821 12.861 48.6045 12.861C49.485 12.861 50.6563 12.5147 52.4425 9.70835C52.3904 10.1034 52.3316 10.659 52.3316 11.1326C52.3316 12.6611 53.4082 12.8259 53.8525 12.8259C55.0025 12.8259 55.4037 12.2893 55.407 12.2708L55.4525 12.2125L55.407 12.1543C55.3938 12.1348 54.8709 11.601 55.2152 8.75774C55.5468 6.04847 56.4869 4.18135 56.4869 4.15862L56.5324 4.08331L56.4528 4.03121C56.4202 4.01842 55.6448 3.69681 54.8737 3.69681L54.8723 3.69634ZM49.9032 10.7793C49.6688 10.7793 49.5437 10.3771 49.5437 9.95702C49.5437 9.50137 49.7711 6.87878 50.8813 5.53362C51.1276 5.27169 51.4203 5.10639 51.7131 5.10639C52.424 5.10639 53.0885 5.86754 53.2533 6.06363C52.3913 7.81518 51.1807 9.62972 50.3196 10.5188C50.1614 10.6954 50.0084 10.7793 49.9032 10.7793Z" fill="#D60F27"/>
<path d="M63.6984 3.60303C62.455 3.60303 60.9616 5.66103 60.3298 6.6159C60.4344 6.20288 60.5879 5.59424 60.7059 5.03392C60.7873 4.61379 60.7319 4.28603 60.569 4.06578C60.3554 3.82469 60.0025 3.69634 59.5099 3.69634C58.8042 3.69634 57.9516 4.00468 57.9213 4.01652L57.7977 4.06815L57.9071 4.16146C57.9071 4.17472 58.1373 4.50059 57.9952 5.6454C57.7977 6.89299 57.0038 10.0034 56.669 11.2629C56.515 11.7687 56.5529 12.1382 56.7386 12.4006C57.0218 12.7842 57.5727 12.8283 57.9516 12.8283C58.5967 12.8283 59.238 12.6028 59.266 12.5701L59.3891 12.5446L59.3152 12.4427C59.3105 12.4361 59.0083 11.9539 59.3607 11.0227C60.3104 8.62512 61.3661 7.22454 61.9999 6.74379C62.1462 6.64148 62.2954 6.57896 62.4418 6.57896C62.7899 6.57896 63.0111 6.96972 63.0111 6.96972L63.0627 7.06729L63.1399 6.98819C63.4715 6.65853 64.064 5.95848 64.2795 5.32663C64.4287 4.94819 64.622 4.27513 64.3316 3.88437C64.2108 3.68923 63.9953 3.60303 63.6979 3.60303H63.6984Z" fill="#D60F27"/>
<path d="M70.8791 4.72987C70.5301 4.85065 69.6732 4.92975 68.5232 4.92975C68.3939 4.92975 68.2869 4.92975 68.2149 4.92975C68.2665 4.6323 68.4749 3.79157 68.7004 2.99442C68.842 2.51367 68.8259 2.11912 68.6232 1.86382C68.4237 1.61942 68.0965 1.51001 67.5991 1.51001C66.9019 1.51001 65.8983 1.82167 65.8594 1.83967L65.7102 1.88514L65.8386 2.00166C66.2237 2.39573 65.8059 4.29459 65.6269 5.00032C65.607 5.03916 64.6279 8.80561 64.6279 10.6055C64.6279 12.1155 65.4549 12.8638 67.0393 12.8638C67.7782 12.8638 68.8557 12.6644 69.5799 12.0364C69.8963 11.7631 70.0356 11.3723 69.9522 10.9588C69.9067 10.6618 69.7594 10.4293 69.7594 10.4174L69.7078 10.308L69.615 10.3942C69.6022 10.3942 69.2763 10.7149 68.625 10.9351C68.3792 11.0071 68.186 11.0564 67.9866 11.0564C67.7772 11.0564 67.601 10.9702 67.4357 10.8309C67.0691 10.4544 67.3055 9.10969 67.3841 8.67773C67.5068 7.99473 67.8085 6.72393 67.8738 6.40564C67.988 6.40564 68.2267 6.4009 68.5336 6.4009C68.7965 6.4009 69.0215 6.40564 69.2417 6.40564C70.6054 6.43169 70.9871 5.37214 71.0004 4.81228V4.67208L70.8791 4.72987Z" fill="#D60F27"/>
</svg>
