<svg width="42" height="28" viewBox="0 0 42 28" fill="none" xmlns="http://www.w3.org/2000/svg">
<path fill-rule="evenodd" clip-rule="evenodd" d="M13.0477 25.6348C19.4282 26.3644 25.9808 24.5748 29.4361 24.2031C30.4134 24.0999 31.143 24.1687 31.556 24.4853C32.1824 24.9671 32.1686 25.5659 31.6524 26.6466C31.1224 27.7478 31.8176 28.2434 33.0359 27.8235C36.1676 26.7429 42.5068 21.0851 41.5845 12.9357C40.6484 4.66233 32.9188 -0.720162 21.2178 0.0782632C9.32399 0.897338 1.60817 6.99566 0.761565 13.9406C0.238459 18.2631 3.34268 24.5197 13.0477 25.6279V25.6348Z" fill="#753C94"/>
<path fill-rule="evenodd" clip-rule="evenodd" d="M12.5449 14.6014L11.2165 12.3506L9.89498 14.6014H12.5449ZM15.6079 16.7213C15.8212 17.0861 15.6973 17.5473 15.3325 17.7607C15.3257 17.7675 15.3188 17.7675 15.3119 17.7675C15.1949 17.8364 15.0572 17.8708 14.9196 17.8708C14.6374 17.8708 14.3827 17.7262 14.2381 17.4853L13.4466 16.1363H8.98643L8.18801 17.4853C7.97463 17.8501 7.49283 17.9809 7.11426 17.7675C6.74946 17.5679 6.6118 17.1068 6.81141 16.742C6.81829 16.7351 6.81829 16.7282 6.82518 16.7213L7.83697 15.0075V15.0006L10.5282 10.4303C10.6659 10.1894 10.9274 10.0448 11.2096 10.0448C11.4918 10.0448 11.7534 10.1894 11.891 10.4303L14.5823 15.0006L14.5892 15.0143L15.601 16.7282L15.6079 16.7213ZM21.3414 13.9337L24.0189 11.3182C24.3217 11.0291 24.3286 10.5473 24.0395 10.2513C24.0326 10.2444 24.0257 10.2376 24.0189 10.2307C23.7091 9.92783 23.2135 9.92783 22.9038 10.2307L20.2263 12.8462L17.5489 10.2307C17.2391 9.92783 16.7435 9.92783 16.4338 10.2307C16.131 10.5198 16.1241 11.0016 16.42 11.2975C16.4269 11.3044 16.4338 11.3113 16.4338 11.3113L19.1113 13.9268L16.4338 16.5424C16.131 16.8315 16.131 17.3133 16.42 17.6161C16.4269 17.623 16.4269 17.623 16.4338 17.6299C16.5921 17.7813 16.7917 17.857 16.9913 17.857C17.1978 17.857 17.3974 17.7813 17.5489 17.6299L20.2263 15.0143L22.9038 17.6299C23.0552 17.7813 23.2617 17.857 23.4613 17.857C23.6678 17.857 23.8674 17.7744 24.0189 17.6299C24.3217 17.3408 24.3286 16.8659 24.0395 16.563C24.0326 16.5561 24.0257 16.5493 24.0189 16.5424L21.3414 13.9268V13.9337ZM25.7534 10.0104C25.3197 10.0104 24.9687 10.3546 24.9687 10.7813V17.1137C24.9687 17.5404 25.3197 17.8846 25.7534 17.8846C26.187 17.8846 26.538 17.5404 26.538 17.1137V10.7813C26.538 10.3615 26.187 10.0104 25.7534 10.0104ZM35.8025 15.5237C35.8025 16.8177 34.7219 17.8708 33.3935 17.8708H28.3207C27.8871 17.8708 27.5361 17.5266 27.5361 17.0999C27.5361 16.6731 27.8871 16.329 28.3207 16.329H33.3935C33.8546 16.329 34.2263 15.9642 34.2263 15.5168C34.2263 15.0694 33.8546 14.7046 33.3935 14.7046H29.7248C28.3964 14.7046 27.3158 13.6515 27.3158 12.3575C27.3158 11.0635 28.3964 10.0104 29.7248 10.0104H34.777C35.2106 10.0104 35.5616 10.3546 35.5616 10.7813C35.5616 11.2081 35.2106 11.5522 34.777 11.5522H29.7248C29.2637 11.5522 28.892 11.917 28.892 12.3644C28.892 12.8118 29.2637 13.1766 29.7248 13.1766H33.3935C34.7219 13.1766 35.8025 14.2297 35.8025 15.5237Z" fill="white"/>
</svg>
