<svg xmlns="http://www.w3.org/2000/svg" viewBox="0 0 180 72"><defs><style>.cls-1{fill:none;}.cls-2{fill:#1f489c;fill-rule:evenodd;}</style></defs><title>Asset 12</title><g id="Layer_2" data-name="Layer 2"><g id="Layer_1-2" data-name="Layer 1"><rect class="cls-1" width="180" height="72"/><path class="cls-2" d="M55.65,42.73H54.27V37.79h2.47c1.74,0,3.3.49,3.3,2.2v.69c0,1.66-2.63,2.06-4.4,2.06ZM54.27,29.55h1.51c1.67,0,3.71.17,3.71,1.78V32c0,1.37-2.12,1.92-3.57,1.92H54.27V29.55ZM48.64,46.71h8c4.43,0,9.07-1.11,9.07-5.35V40a4.29,4.29,0,0,0-4.12-4v-.27a4.53,4.53,0,0,0,3.57-3.84V30.38c0-3.16-3.2-4.8-6.46-4.8h-10V46.71Z"/><path class="cls-2" d="M110.2,46.71h5.63V37.1c1,.76,6.21,9.61,6.87,9.61h6.87c-.35-1.3-8.25-10.79-8.25-11.26s6.88-8.67,7.69-9.89l-6.81,0-6.38,8.47V25.57H110.2V46.71Z"/><polygon class="cls-2" points="174.37 46.72 180 46.72 180 25.57 174.37 25.57 174.37 46.72 174.37 46.72"/><path class="cls-2" d="M76.49,30l.19,0,2.39,8.22H73.78L76.49,30ZM65.13,46.71h5.36c.48,0,1.87-3.83,1.92-4.53h7.69c.86,0,1.29,4.53,2.2,4.53l5.85,0-8-21.11H73.37c-.5,0-1.92,4.4-2.2,5.08-.72,1.75-1.35,3.63-2,5.37s-1.29,3.47-2,5.28a49.37,49.37,0,0,0-2,5.41Z"/><polygon class="cls-2" points="88.9 46.72 94.09 46.72 94.03 32.41 101.27 46.72 108.27 46.72 108.27 25.57 103.19 25.57 103.09 39.63 96.18 25.57 88.9 25.57 88.9 46.72 88.9 46.72"/><path class="cls-2" d="M160.63,29.55h1.79c1.54,0,3.71.49,3.71,1.92v.69c0,2-2.27,2.2-4.26,2.2h-1.24V29.55ZM155,46.71h5.63V38.34h1.24c2.14,0,2.91,1.64,3.46,3.27.49,1.48,1.29,3.64,1.63,5.1h5.77A51.82,51.82,0,0,0,170.78,41c-.33-.88-.72-1.91-1.06-2.78-.6-1.54-1.27-1.31-1.81-2a4.77,4.77,0,0,0,3.85-4.26V30.38c0-3.53-3.59-4.8-7.28-4.8H155V46.71Z"/><path class="cls-2" d="M142.21,37.65h1.37c2,0,4.53.38,4.53,2.33,0,2.43-2.11,2.75-4.53,2.75h-1.37V37.65Zm0-8.1h2.06c1.78,0,3.3.42,3.3,2.2,0,1.57-2,2.2-3.57,2.2h-1.79V29.55Zm-5.63,17.16h8.66c4.42,0,8.52-1.49,8.52-5.77v-.14c0-2.61-1.68-4.75-4-4.81v-.27a4.72,4.72,0,0,0,3.43-4.53c0-3.7-2.7-5.63-6.32-5.63H136.58V46.71Z"/><path class="cls-2" d="M4.26,22c0-1.51,1.86-2.88,3.57-2.88h3.71a5.39,5.39,0,0,1,5.22,5.08v.55c0,4.35-7,8.31-9.07,11.4a68.9,68.9,0,0,0,4.78,5.11c1.26,1.24,3.88,3.64,3.88,5.87v1.1c0,2.13-2.57,4.81-4.53,4.81H7.28a3.39,3.39,0,0,1-3-2.75V22Zm17.59,2.61a10.69,10.69,0,0,0-.56-3.14c-.3-.82-1.26-2-1.36-2.35h3.71c2.34,0,5.08,2.14,5.08,4.39v1.24c0,3-9.89,10.09-9.89,11.4,0,0,7.54,7.74,8.28,8.48l4.19,4.19c.8.8,3.55,3.52,4,4.22H20.2c.93-1.39,1.92-2.59,1.92-4.94V47.4c0-2.76-2.06-4.81-3.47-6.28-.95-1-4-4.43-4.78-5,2.23-3.33,8-5.74,8-11.26v-.27Zm11.54-1c0-2.31-1.35-3.26-2.2-4.53,3.69,0,5.8-.4,6.79,2.55.59,1.75.21,6.83.21,9.12V49.46L25,36C27,33,33.39,29.62,33.39,25.16V23.65ZM0,22.83V50a7.66,7.66,0,0,0,7.42,7.28h28c3.43,0,6.87-3.72,6.87-7.41V22c0-3.63-3.61-7-7.42-7H7.42A7.55,7.55,0,0,0,0,22.83Z"/></g></g></svg>