<svg xmlns="http://www.w3.org/2000/svg" viewBox="0 0 180 72"><defs><style>.cls-1{fill:none;}.cls-2{fill:#00718b;}.cls-2,.cls-4{fill-rule:evenodd;}.cls-3{fill:#ee7a2a;}.cls-4{fill:#fff;}</style></defs><title>Asset 34</title><g id="Layer_2" data-name="Layer 2"><g id="Layer_1-2" data-name="Layer 1"><rect class="cls-1" width="180" height="72"/><path class="cls-2" d="M152.56,62.64V15.75c0-3.3,3.65-5.38,3.65-5.38H142.31s4.28,2.32,4.28,5.44V46.72L119.5,10.25H108.38a7.08,7.08,0,0,1,3.71,6V55.35c0,2.78-3.82,4.86-3.82,4.86H122s-3.82-2.78-3.82-5V23s18.24,23.8,23.1,30.4A29.39,29.39,0,0,0,152.56,62.64Z"/><path class="cls-2" d="M168,55.06c0,2.43-3.82,4.81-3.82,4.81l15.63-.17s-3.47-2.26-3.47-5.21V15.75c0-3.3,3.65-5.38,3.65-5.38H163.73S168,12.68,168,15.81V55.06Z"/><path class="cls-2" d="M62.24,59.52H86.38c4.17,0,16.67-4.17,16.67-15.11S91.59,30.68,91.59,30.68s6.54-1.16,6.54-9.67c0-6.25-6.19-10.83-11.58-10.83h-24s3.82,2.08,3.82,5.91V53.61C66.41,57.26,62.24,59.52,62.24,59.52ZM74.69,15.11h5.73c2.43,0,9.38,1,9.38,7.12S85.11,30,81.81,30H74.69Zm0,19.8h9c5.21,0,10.77,4.17,10.77,10.25s-6.77,9.2-10.42,9.2H74.69Z"/><rect class="cls-3" y="10.13" width="49.68" height="49.67"/><path class="cls-4" d="M36.82,21.59c6.6-3.82,12.85,4.17,12.85,4.17V17.08s-9-4.52-16,2.78-5.21,11.46-5.21,11.46-5.21-4.86-6.25-11.46,0-9.73,0-9.73H16s-3.13,11.81,4.17,21.54c1.91,2.55,3.93,5.36,5.59,7.47l-6,4.88C11.11,33.49,0,19.16,0,19.16v9.38L15.29,47.3.2,59.81H4.86L17.49,49.5s4.4,5.79,5.79,7.18A3,3,0,0,1,24,59.81h8L35.43,57a12.74,12.74,0,0,1-5.91-2.08c-1.05-.63-4.13-4-8-8.6l6.08-4.87c3.8,4.47,7.28,7.25,11.61,7.9,6.95,1,10.42-2.08,10.42-2.08V44.87s-8,3.82-14.24-6.25S32,24.41,36.82,21.59Z"/></g></g></svg>