<svg xmlns="http://www.w3.org/2000/svg" viewBox="0 0 180 72"><defs><style>.cls-1{fill:none;}.cls-2{fill:#f58220;}.cls-3{fill:#7c6a55;}</style></defs><title>Asset 30</title><g id="Layer_2" data-name="Layer 2"><g id="Layer_1-2" data-name="Layer 1"><rect class="cls-1" width="180" height="72"/><path class="cls-2" d="M147.45,15c-1.85-1.1-4.64.32-6.24,3.16s-1.39,6,.46,7.14,4.64-.32,6.23-3.16,1.4-6-.45-7.14"/><path class="cls-2" d="M142.72,48.55V36.41c0-3.3-.37-5.17-1.37-6.88-1.45-2.64-4-3.88-7.51-3.88a10.26,10.26,0,0,0-9.19,4.8l0,0V26.65h-11v1.76h.3c3.28.06,3.64.44,3.64,5V48.55c0,4.77-.31,5.09-3.75,5.14h-.25v1.94h15.1V53.7h-.3c-3.38-.05-3.69-.32-3.69-5.14V37.62a12.63,12.63,0,0,1,1.4-5.47c1.29-2.27,3.12-3.45,5.22-3.45,3,0,4.38,2.14,4.38,8V48.55c0,4.72-.36,5.09-3.69,5.14h-.31v1.94h15.11V53.7h-.3c-3.44-.05-3.75-.38-3.75-5.14"/><path class="cls-2" d="M49.81,25.93A9.09,9.09,0,0,0,45,27.1v2.71a5,5,0,0,1,3.52-1.61c3.37,0,6.55,4.22,6.55,13s-3.28,13-6.81,13c-5.73,0-5.83-5.64-6.06-7,0,0,0-32.52,0-33.19H31v1.88h.31c3.43,0,3.72.86,3.72,5.47V45c0,9.23,9.4,11.15,12.94,11.15,8,0,14.69-6,14.69-15.8,0-9-5.48-14.41-12.85-14.41"/><path class="cls-2" d="M101.06,26.32a9.88,9.88,0,0,0-7.74,3.31v-3H82.1V29c2.82,0,3.8.39,3.94,3.31V66.94c-.13,2.86-.76,3.07-3.65,3.15H82.1V72H97.28V70.1H97c-2.26-.09-3.25-.21-3.67-1.3V37.24c.76-5.54,2.92-8.57,6.07-8.57,3.38,0,5.39,4.11,5.39,12.77,0,8.9-2.11,12.93-6,12.93a4.41,4.41,0,0,1-2.35-.71V56a10.82,10.82,0,0,0,3.55.52A11.47,11.47,0,0,0,109,52.4c2.09-2.64,3.31-6.91,3.31-11.72,0-9.06-4-14.36-11.28-14.36"/><path class="cls-2" d="M74.83,40a1,1,0,0,0,0-.2V29h5.27V26.67H74.85V18.18h-3l0,.27a14.55,14.55,0,0,1-1.89,5.62,6.17,6.17,0,0,1-5.29,2.7H63.5V29h3.81v9.89c0,8.69-.26,11.36,1.34,13.45,1.32,1.74,3.93,4.09,9.61,4.09a10.87,10.87,0,0,0,3.55-.51V53.6a4.44,4.44,0,0,1-2.35.71c-4.73,0-4.64-2.72-4.64-14.35"/><path class="cls-3" d="M108.44,6.73a4.91,4.91,0,0,1,1-1.17,4.38,4.38,0,0,1,1.38-.75,5.44,5.44,0,0,1,3.51,0,3.73,3.73,0,0,1,1.46.93,3.84,3.84,0,0,1,1,1.5,5.33,5.33,0,0,1,.35,2v8.18a.31.31,0,0,1-.29.3h-.46a.31.31,0,0,1-.3-.3V9.34a4.57,4.57,0,0,0-.28-1.71A3,3,0,0,0,115,6.5a2.72,2.72,0,0,0-1.11-.65,4,4,0,0,0-1.36-.23,3.79,3.79,0,0,0-3,1.45,4.65,4.65,0,0,0-.77,1.53,6.45,6.45,0,0,0-.27,1.88v7a.31.31,0,0,1-.29.3h-.47a.31.31,0,0,1-.29-.3V5.12a.31.31,0,0,1,.29-.3h.47a.31.31,0,0,1,.29.3Z"/><path class="cls-3" d="M83.45,13.5a5.72,5.72,0,0,0,.88,1.8,4.44,4.44,0,0,0,1.45,1.21,4.08,4.08,0,0,0,1.93.44A3.8,3.8,0,0,0,91,15.31a5.59,5.59,0,0,0,.82-1.83,8,8,0,0,0,0-4.23A5.6,5.6,0,0,0,91,7.43a4.1,4.1,0,0,0-1.36-1.3,3.57,3.57,0,0,0-2-.51A4.13,4.13,0,0,0,84.4,7.07a6.26,6.26,0,0,0-1.26,4.24,7.4,7.4,0,0,0,.32,2.19m-.32,1.88v2.08a.3.3,0,0,1-.29.3h-.47a.3.3,0,0,1-.29-.3V.33a.3.3,0,0,1,.29-.3h.47a.3.3,0,0,1,.29.3v6.8a4.91,4.91,0,0,1,4.57-2.59A4.77,4.77,0,0,1,90,5.1a5,5,0,0,1,1.69,1.5,6.61,6.61,0,0,1,1,2.15,8.93,8.93,0,0,1,.37,2.56A9.32,9.32,0,0,1,92.76,14a6.38,6.38,0,0,1-1.08,2.14A5,5,0,0,1,90,17.51a4.88,4.88,0,0,1-2.26.51,5,5,0,0,1-3.29-1.1,5.39,5.39,0,0,1-1.28-1.54"/><path class="cls-3" d="M103.55,10.84a2.1,2.1,0,0,1-.38.19,7.19,7.19,0,0,1-1.18.28,11.69,11.69,0,0,1-1.41.12l-1.42.07a10,10,0,0,0-1.34.19,2.65,2.65,0,0,0-1.06.44A2,2,0,0,0,96,13a3.21,3.21,0,0,0-.27,1.45,3.33,3.33,0,0,0,.15,1,2.1,2.1,0,0,0,.53.79,3.19,3.19,0,0,0,1,.59,5.37,5.37,0,0,0,3.52-.16,4.37,4.37,0,0,0,1.43-1,4.09,4.09,0,0,0,.88-1.43,4.7,4.7,0,0,0,.31-1.67Zm0,5-.13.18a4.5,4.5,0,0,1-1.1,1,5,5,0,0,1-1.48.71A5.74,5.74,0,0,1,99,18a5.1,5.1,0,0,1-3.1-.87,3.26,3.26,0,0,1-1.22-2.74,4.43,4.43,0,0,1,.39-2,3.17,3.17,0,0,1,1.05-1.19,3.64,3.64,0,0,1,1.44-.59,9.72,9.72,0,0,1,1.53-.23l2.13-.11a7.29,7.29,0,0,0,1.38-.23,1.35,1.35,0,0,0,.7-.44,1.56,1.56,0,0,0,.22-.91,7.31,7.31,0,0,0-.09-1.1,2.2,2.2,0,0,0-.42-1,2.14,2.14,0,0,0-.93-.72,4.14,4.14,0,0,0-1.78-.31,3.94,3.94,0,0,0-2.75.89A3.42,3.42,0,0,0,96.51,9a.32.32,0,0,1-.29.27h-.47a.29.29,0,0,1-.29-.31,5.1,5.1,0,0,1,.37-1.71,4.1,4.1,0,0,1,.94-1.42,4.51,4.51,0,0,1,1.5-.92,6,6,0,0,1,2.07-.33,6.64,6.64,0,0,1,1.56.18,3.33,3.33,0,0,1,1.37.65,3.25,3.25,0,0,1,1,1.19,4.44,4.44,0,0,1,.38,1.81v9.09a.31.31,0,0,1-.29.3h-.47a.3.3,0,0,1-.29-.3Z"/><path class="cls-3" d="M129.77,17.51l-5.45-7.74,4.2-4.51s.16-.16.15-.25a.16.16,0,0,0-.14-.11l-.9,0a.65.65,0,0,0-.47.22l-6.22,6.37V.3a.31.31,0,0,0-.29-.3h-.57a.3.3,0,0,0-.29.3V17.46a.3.3,0,0,0,.29.3h.57a.3.3,0,0,0,.29-.3V13.07l2.48-2.47,4.78,6.95a.4.4,0,0,0,.39.19h1a.25.25,0,0,0,.17-.09.13.13,0,0,0,0-.13"/></g></g></svg>