<svg xmlns="http://www.w3.org/2000/svg" viewBox="0 0 180 72"><defs><style>.cls-1{fill:none;}.cls-2{fill:#a43c25;}.cls-2,.cls-3,.cls-4,.cls-5{fill-rule:evenodd;}.cls-3{fill:#a13c27;}.cls-4{fill:#fff;}.cls-5{fill:#e14825;}</style></defs><title>Asset 14</title><g id="Layer_2" data-name="Layer 2"><g id="Layer_1-2" data-name="Layer 1"><rect class="cls-1" width="180" height="72"/><path class="cls-2" d="M34.47,35.26c-.33,5.3,3,8.95,8,9.94,1,.33,2.32,0,3.31,0a6.33,6.33,0,0,0,4.64-2.32c-.66-1-1.66-1.66-2.32-2.65-.66.33-2,1.33-2.65,1.33H43.08c-3.31-.66-4.64-3.65-4.31-6.63a5,5,0,0,1,4.31-4.64c2.32-.33,3,.33,5,1.33A20,20,0,0,1,50.71,29a8.45,8.45,0,0,0-8.29-2.32c-5,.66-7.62,4.31-8,8.62Z"/><path class="cls-3" d="M0,49.51H27.51V22H0V49.51ZM24.52,35.59l-6,8.62H3.65l6.63-8.62L3.65,27.3H18.23l6.3,8.29Z"/><polygon class="cls-4" points="10.27 35.59 24.52 35.59 18.23 27.3 3.65 27.3 10.27 35.59 10.27 35.59"/><polygon class="cls-5" points="24.52 35.59 10.27 35.59 3.65 44.2 18.56 44.2 24.52 35.59 24.52 35.59"/><polygon class="cls-3" points="53.69 44.87 57.33 44.87 57.33 26.97 53.69 26.97 53.69 44.87 53.69 44.87"/><polygon class="cls-2" points="61.64 44.87 65.29 44.87 65.29 34.92 71.25 44.87 77.22 34.92 77.22 44.87 81.19 44.87 81.19 26.97 77.22 26.97 71.25 37.91 65.29 26.97 61.64 26.97 61.64 44.87 61.64 44.87"/><path class="cls-2" d="M88.49,36.91v5h2.32c1.33,0,2.32,0,2.65-.33a2.51,2.51,0,0,0,1.33-.66c.33-.33.33-.66.33-1.33s0-1-.33-1.33l-1-1c-.66,0-1.66-.33-3.31-.33Zm0-7v4.31h1.33a12.52,12.52,0,0,0,2.65-.33c.66,0,1.33,0,1.66-.66.33-.33.33-.66.33-1.33a2,2,0,0,0-.33-1.33c-.33-.33-.66-.33-1.33-.66H88.49Zm-3.31-3h6a7.36,7.36,0,0,1,3,.33,3.55,3.55,0,0,1,2,.66,3.31,3.31,0,0,1,1.33,1.66,2.8,2.8,0,0,1,.66,2,6.14,6.14,0,0,1-.66,2.32,4.23,4.23,0,0,1-2,1.33,5.23,5.23,0,0,1,2.65,1.66,3.57,3.57,0,0,1,.66,2.65,4.91,4.91,0,0,1-.33,2.32c-.33,1-1,1.33-1.66,2a4.79,4.79,0,0,1-2.32.66c-.66.33-2,.33-4.31.33h-5V27Z"/><polygon class="cls-2" points="118.69 26.74 116.45 26.74 116.45 40.71 116.4 40.71 107.1 26.74 104.69 26.74 104.69 44.53 106.93 44.53 106.93 30.57 106.98 30.57 116.28 44.53 118.69 44.53 118.69 26.74 118.69 26.74"/><polygon class="cls-2" points="125.28 26.74 122.92 26.74 122.92 44.53 125.28 44.53 125.28 26.74 125.28 26.74"/><path class="cls-2" d="M136.93,26.74H134.4l-6.84,17.8H130l2-5.42h7.43l2.09,5.42h2.66l-7.26-17.8Zm-4.25,10.51,2-5.32a21,21,0,0,0,.92-3.33h0c.22.87.45,1.57.62,2.09l2.46,6.56Z"/><path class="cls-2" d="M161.91,35.46h-7.53v2.11h5.24v3.31a8.4,8.4,0,0,1-5.19,1.84A7.08,7.08,0,0,1,151,41.9a5.11,5.11,0,0,1-2.36-2.39,8.8,8.8,0,0,1-.8-4,7.79,7.79,0,0,1,1.64-5.15,5.93,5.93,0,0,1,4.85-2,5.38,5.38,0,0,1,3.36,1,4.9,4.9,0,0,1,1.79,2.88l2.11-.6a6.57,6.57,0,0,0-2.44-4,8.09,8.09,0,0,0-4.82-1.32,9.31,9.31,0,0,0-4.87,1.19,7.57,7.57,0,0,0-3,3.38,11,11,0,0,0-1,4.7,8.59,8.59,0,0,0,9.1,9.12A11.24,11.24,0,0,0,161.91,42V35.46Z"/><path class="cls-2" d="M172.74,26.74h-2.54l-6.84,17.8h2.49l2-5.42h7.43l2.09,5.42H180l-7.26-17.8Zm-4.25,10.51,2-5.32a21,21,0,0,0,.92-3.33h0c.22.87.45,1.57.62,2.09l2.46,6.56Z"/></g></g></svg>