<svg xmlns="http://www.w3.org/2000/svg" viewBox="0 0 180 72"><defs><style>.cls-1{fill:none;}.cls-2{fill:#124b9f;}</style></defs><title>Asset 31</title><g id="Layer_2" data-name="Layer 2"><g id="Layer_1-2" data-name="Layer 1"><rect class="cls-1" width="180" height="72"/><path class="cls-2" d="M6.05,60a61.61,61.61,0,0,0,24.47,5.53h.66A61.63,61.63,0,0,0,56.31,60l.42-.18.15-.42a75.62,75.62,0,0,0,3.79-21.69V34.39A69.21,69.21,0,0,0,60,25.81c-.3-2.18-.72-4.36-1.23-6.54s-1.14-4.36-1.85-6.54v0l-.15-.42-.42-.18A63.69,63.69,0,0,0,30.53,6.15h-.18A52.83,52.83,0,0,0,6,12.13l-.48.51a60.45,60.45,0,0,0-5.11,23v1A56.33,56.33,0,0,0,5.52,59.52Zm1.2-46.25a50.8,50.8,0,0,1,23.1-5.59h.18a61.61,61.61,0,0,1,24.56,5.59c.63,2,1.2,4,1.64,5.95S57.66,24,58,26.08a70.9,70.9,0,0,1-2.87,32.27,59.56,59.56,0,0,1-23.9,5.17h-.66a59.83,59.83,0,0,1-23.31-5.2A53.84,53.84,0,0,1,2.44,35.68,58,58,0,0,1,7.25,13.77Z"/><path class="cls-2" d="M31.06,52.44c.57-5.59.06-11.47,1.85-16.79s8.37-8.87,7.86-14.34a9.58,9.58,0,0,0-9.86-8.93,9.19,9.19,0,0,0-9.41,9.41c.12,5.59,6.13,8.49,7.71,13.57C30.91,40.78,30.65,46.73,31.06,52.44Z"/><path class="cls-2" d="M34.5,37.14c-1.37,4.21-1.37,9-1.14,13.92,2.21-1.08,3.68-2.57,6-3.26,4.21-1.19,7.53.87,11.12-1.67,1.82-1.34,1.52-5.26,1.08-7.59a23.38,23.38,0,0,1-14,6c1.49-1.11,2.51-3,4.9-3.23a9.89,9.89,0,0,0,9-7.38c.78-4-4.09-7.86-7.41-7C39.19,28.32,36,32.36,34.5,37.14Z"/><path class="cls-2" d="M11.67,46.13c3.59,2.54,6.9.48,11.12,1.67,2.36.69,3.79,2.18,6,3.26.27-5,.24-9.71-1.11-13.92C26.16,32.36,23,28.32,18.16,27c-3.32-.9-8.22,3-7.41,7a9.89,9.89,0,0,0,9,7.38c2.36.21,3.41,2.12,4.9,3.23a23.3,23.3,0,0,1-14-6C10.15,40.87,9.85,44.79,11.67,46.13Z"/><path class="cls-2" d="M22.82,56a3.49,3.49,0,0,0-1-.3l-.39-.06-1.55-.27-.78,4.51.9.15.33-1.88.21,0a2.25,2.25,0,0,1,.45.12,1.81,1.81,0,0,1,.24.24c0,.09.12.24.21.45s.09.21.15.3L22,60.42l1.08.21-.39-1a4.53,4.53,0,0,0-.39-.84,1.92,1.92,0,0,0-.42-.45,1.46,1.46,0,0,0,1-.27,1.21,1.21,0,0,0,.45-.78,1.24,1.24,0,0,0-.06-.75A1,1,0,0,0,22.82,56Zm-.42,1.17a.84.84,0,0,1-.15.33.57.57,0,0,1-.3.15,2.31,2.31,0,0,1-.54-.06c-.09,0-.18,0-.3,0l-.66-.12.18-1.14.72.12h.06a4.76,4.76,0,0,1,.6.12.56.56,0,0,1,.33.24A.57.57,0,0,1,22.4,57.19Z"/><path class="cls-2" d="M16.3,55.52a1.31,1.31,0,0,1,1-.12,1.19,1.19,0,0,1,.6.36.94.94,0,0,1,.21.63l.93.06a1.57,1.57,0,0,0-.33-1.11,2.12,2.12,0,0,0-1.2-.69,2.14,2.14,0,0,0-1.14-.06,1.9,1.9,0,0,0-1,.57,2.76,2.76,0,0,0-.63,1.17,3,3,0,0,0-.06,1.26,2.12,2.12,0,0,0,.57,1,2.42,2.42,0,0,0,1.14.6,3.39,3.39,0,0,0,1.11.09,2,2,0,0,0,1-.27l.48-1.76L17,56.77l-.18.75,1,.27-.15.57a3.17,3.17,0,0,1-.57.15,2,2,0,0,1-.6-.06,1.22,1.22,0,0,1-.81-.63,1.85,1.85,0,0,1,0-1.28A1.73,1.73,0,0,1,16.3,55.52Z"/><path class="cls-2" d="M30.91,56.71a2.65,2.65,0,0,0-.87-.09h-.24l-1.46,0-.09,4.57.93,0,0-1.73H30a4.82,4.82,0,0,0,.72,0,3.62,3.62,0,0,0,.51-.21,1.91,1.91,0,0,0,.39-.45,1.81,1.81,0,0,0,.15-.72,1.27,1.27,0,0,0-.24-.9A1.1,1.1,0,0,0,30.91,56.71Zm-.15,1.7a.68.68,0,0,1-.3.21,1.24,1.24,0,0,1-.42.06h-.81V57.37l.45,0H30c.15,0,.24,0,.33,0a.55.55,0,0,1,.36.21.5.5,0,0,1,.12.42A.79.79,0,0,1,30.76,58.41Z"/><path class="cls-2" d="M26.52,59c0,.36-.06.63-.09.78a.7.7,0,0,1-.3.36.86.86,0,0,1-.6.12.91.91,0,0,1-.6-.24.81.81,0,0,1-.24-.48c0-.09,0-.36,0-.75l.21-2.48-.9-.09-.24,2.45a7.39,7.39,0,0,0,0,1.17,1.34,1.34,0,0,0,.21.54,1.81,1.81,0,0,0,.51.42,2.36,2.36,0,0,0,1,.24,1.94,1.94,0,0,0,.87-.06,1.3,1.3,0,0,0,.6-.33,1.33,1.33,0,0,0,.3-.54,3.91,3.91,0,0,0,.18-1.17l.21-2.39-.93-.09Z"/><path class="cls-2" d="M37,58.5a1.08,1.08,0,0,0,.45-.45,1,1,0,0,0,.12-.6,1.43,1.43,0,0,0-.18-.54,1.26,1.26,0,0,0-.9-.48,2.79,2.79,0,0,0-.72,0,.11.11,0,0,0-.09,0l-1.82.15.42,4.57L35.81,61h.06c.57-.06,1-.09,1.11-.12a1.83,1.83,0,0,0,.6-.27,1.57,1.57,0,0,0,.36-.51,2.28,2.28,0,0,0,.09-.63,1,1,0,0,0-.3-.66A1.17,1.17,0,0,0,37,58.5Zm-2.15-1.2.54-.06c.15,0,.27,0,.39,0a2.52,2.52,0,0,1,.39,0,.41.41,0,0,1,.36.15.38.38,0,0,1,.15.33.37.37,0,0,1-.09.36.71.71,0,0,1-.36.21c-.06,0-.21,0-.45,0a.51.51,0,0,1-.21,0l-.63.06ZM36.95,60a.55.55,0,0,1-.3.21,3.64,3.64,0,0,1-.63.09h-.21l-.66.06-.09-1.23.72-.06h0a3.36,3.36,0,0,1,.81,0,.51.51,0,0,1,.3.18.66.66,0,0,1,.15.36A.6.6,0,0,1,36.95,60Z"/><path class="cls-2" d="M41.19,59.31a1,1,0,0,1-.57.36,1,1,0,0,1-.87-.24,2.12,2.12,0,0,1-.54-1.17A1.76,1.76,0,0,1,39.34,57a1.11,1.11,0,0,1,.75-.51,1,1,0,0,1,.66.12.94.94,0,0,1,.42.48l.87-.36a1.55,1.55,0,0,0-.6-.75A1.94,1.94,0,0,0,40,55.75a2,2,0,0,0-1.4.9,2.5,2.5,0,0,0-.3,1.85,2.46,2.46,0,0,0,.9,1.58,2.07,2.07,0,0,0,1.58.36,1.8,1.8,0,0,0,1.61-1.79l-.93-.12A1.41,1.41,0,0,1,41.19,59.31Z"/><path class="cls-2" d="M44.54,54.83l-1,.24L43,59.94l1-.24L44,58.59l.69-.15,1.08-.3.66.93,1-.24L44.72,55.1Zm.18,2.81-.6.15L44.3,56l.42.6.6.9Z"/><path class="cls-2" d="M107.29,43.06a13.22,13.22,0,0,0-3.11-5.65c-.34-.39-.68-.76-1.06-1.18l.81-.51a17,17,0,0,0,6-5.89A8.85,8.85,0,0,0,111.12,24a8.69,8.69,0,0,0-4.54-6.28,17.31,17.31,0,0,0-9-2.25c-5.06,0-10.11.07-15.17.09a.75.75,0,0,0-.76.48c-1.48,2.85-3,5.7-4.45,8.55l-1.94,3.74h3.19L70.6,57.68H91.23a19.12,19.12,0,0,0,2.28-.09,17,17,0,0,0,12.18-6.82A9,9,0,0,0,107.29,43.06Zm-11.71.79a4.1,4.1,0,0,1-4,3.12c-1.59-.08-3.19,0-4.91,0l.73-3c.21-.85.43-1.69.61-2.54a.51.51,0,0,1,.6-.48c1.6,0,3.19.07,4.79,0C95.24,40.84,96,42.29,95.58,43.85ZM98,30.16a3.23,3.23,0,0,1-3.31,2.64c-1.44-.08-2.89,0-4.44,0,.07-.52.1-1,.2-1.39.3-1.3.64-2.59.94-3.89a.47.47,0,0,1,.53-.43c1.34,0,2.68,0,4,0A2.34,2.34,0,0,1,98,30.16Z"/><path class="cls-2" d="M180,58.48l-1.63-42.43h-.93q-9.54,0-19.07,0a1,1,0,0,0-1.05.61c-1.77,3.1-3.56,6.18-5.34,9.27l-1.42,2.47h3.68L138.58,58.32l.25,0h14.78c.33,0,.44-.15.55-.42.87-2.07,1.77-4.13,2.64-6.2.13-.3.26-.49.64-.49q3.85,0,7.7,0c.42,0,.58.12.57.58,0,2,0,4,0,6,0,.53.14.69.68.69,4.31,0,8.63,0,12.94,0ZM165.65,41.11h-4.29l4.17-9.76.12,0Z"/><path class="cls-2" d="M130.78,60a15.44,15.44,0,0,0,5-1.08,1.4,1.4,0,0,0,.67-.65c1.15-2.6,2.27-5.21,3.4-7.81l2.33-5.41-.08,0-.19.11a17.6,17.6,0,0,1-13.05,2.07c-2.93-.68-5.17-2.31-5.95-5.39a8.6,8.6,0,0,1,3.36-9.59c5.13-3.83,10.68-4.05,16.39-1.32a23.39,23.39,0,0,1,2,1.24l6.94-11.69-9.76-4.76a3.77,3.77,0,0,0-.27.44.79.79,0,0,1-1,.54,7.73,7.73,0,0,0-1.33-.11,37.72,37.72,0,0,0-12,1.67,25.57,25.57,0,0,0-14.47,11A24.14,24.14,0,0,0,109,44.55,15.13,15.13,0,0,0,112.21,53a19.58,19.58,0,0,0,10.54,6.49A23.78,23.78,0,0,0,130.78,60Z"/><rect class="cls-1" width="180" height="72"/></g></g></svg>