<svg width="72" height="21" viewBox="0 0 72 21" fill="none" xmlns="http://www.w3.org/2000/svg">
<path d="M50.0156 12.6092C50.0156 11.7014 50.0156 10.7936 50.0156 9.88577C50.0156 7.76751 51.453 6.0023 53.5208 5.54839C55.9165 5.01882 58.3878 6.7336 58.7408 9.17968C58.7913 9.45707 58.7913 9.70925 58.7913 9.98664C58.7913 11.8527 58.7913 13.744 58.7913 15.6101C58.7913 15.8118 58.7408 15.8623 58.5391 15.8623C57.9591 15.8371 57.4043 15.8371 56.8243 15.8623C56.6226 15.8623 56.5721 15.8118 56.5721 15.6101C56.5721 13.7188 56.5721 11.8275 56.5721 9.9362C56.5721 8.67534 55.5887 7.69186 54.3782 7.69186C53.193 7.69186 52.2347 8.67534 52.2095 9.88577C52.2095 10.9449 52.2095 12.004 52.2095 13.0632C52.2095 13.8953 52.2095 14.7527 52.2095 15.5849C52.2095 15.7866 52.1591 15.8371 51.9574 15.8371C51.3774 15.8371 50.8226 15.8118 50.2426 15.8371C50.0408 15.8371 50.0156 15.7866 50.0156 15.5849C50.0156 14.6266 50.0156 13.6179 50.0156 12.6092Z" fill="#108DE8"/>
<path d="M19.8555 5.85101C17.1824 0.555373 10.5251 -1.28549 5.53204 1.89189C0.892056 4.8171 -0.620984 11.0458 2.15292 15.8119C4.37205 19.6701 8.8103 21.6371 13.0216 20.704C17.5103 19.6953 20.9903 15.6606 21.0155 10.6423C20.9903 8.97796 20.6624 7.46492 19.8555 5.85101ZM16.779 10.6675C16.779 11.6006 16.779 12.5084 16.779 13.4414C16.779 13.7945 16.7285 13.8197 16.4511 13.6432C15.2659 12.9371 13.9798 12.9371 12.6938 13.2901C11.5842 13.5927 10.4999 14.0466 9.3903 14.3745C8.35639 14.6771 7.29726 14.8284 6.21291 14.5006C5.88509 14.3997 5.6077 14.2484 5.30509 14.0971C5.07813 13.971 4.97726 13.7945 4.97726 13.5423C4.97726 13.3658 4.97726 13.1893 4.97726 13.038C4.97726 11.4997 4.97726 9.96144 4.97726 8.42318C4.97726 8.24666 4.97726 8.04492 5.00248 7.8684C5.00248 7.64144 5.07813 7.59101 5.27987 7.74231C5.9103 8.17101 6.61639 8.42318 7.39813 8.42318C8.28073 8.4484 9.1129 8.19622 9.91986 7.89362C10.979 7.51536 12.0129 7.06144 13.0972 6.78405C14.2572 6.48144 15.3668 6.58231 16.4007 7.26318C16.6529 7.4397 16.779 7.64144 16.779 7.96927C16.779 8.82666 16.779 9.73448 16.779 10.6675Z" fill="#108DE8"/>
<path d="M71.3743 9.88578C71.3743 9.43186 71.2986 8.97795 71.1725 8.54926C70.5169 6.53187 68.5499 5.22057 66.5325 5.47274C64.3891 5.75013 62.7499 7.43969 62.6239 9.55795C62.5734 10.5414 62.6239 11.5501 62.6239 12.5588C62.6239 12.5588 62.6239 12.5588 62.5986 12.5588C62.5986 13.5927 62.5986 14.6014 62.5986 15.6353C62.5986 15.8118 62.6491 15.8875 62.8508 15.8875C63.4308 15.8623 64.0108 15.8875 64.5908 15.8875C64.7673 15.8875 64.8178 15.8371 64.8178 15.6605C64.8178 15.0553 64.8178 14.4753 64.8178 13.8701C64.8178 13.6936 64.8682 13.6432 65.0447 13.6432C66.356 13.6432 67.6925 13.6432 69.0038 13.6432C69.1551 13.6432 69.2056 13.6936 69.2056 13.8449C69.2056 14.4501 69.2056 15.0301 69.2056 15.6353C69.2056 15.8118 69.2308 15.8875 69.4325 15.8875C70.0125 15.8623 70.5925 15.8623 71.1725 15.8875C71.3743 15.8875 71.3995 15.8371 71.3995 15.6353C71.3743 13.7188 71.3743 11.8023 71.3743 9.88578ZM68.9534 11.3988C68.2977 11.3988 67.6169 11.3988 66.9612 11.3988C66.3056 11.3988 65.6751 11.3988 65.0195 11.3988C64.8178 11.3988 64.7673 11.3484 64.7673 11.1466C64.7925 10.6675 64.7421 10.1884 64.7925 9.70925C64.8934 8.52404 65.8517 7.66665 67.0117 7.69187C68.1212 7.71709 69.0543 8.62491 69.1299 9.78491C69.1551 10.264 69.1299 10.7432 69.1551 11.2223C69.1804 11.3988 69.0795 11.3988 68.9534 11.3988Z" fill="#108DE8"/>
<path d="M46.1827 12.6093C46.1827 11.7014 46.1827 10.8188 46.1827 9.911C46.1827 9.68405 46.1575 9.45709 46.1322 9.23014C45.8044 6.93536 43.8375 5.34667 41.467 5.44754C39.3236 5.54841 37.4575 7.43971 37.4071 9.68405C37.3566 11.6762 37.4071 13.6684 37.3818 15.6858C37.3818 15.8371 37.4323 15.8623 37.5836 15.8623C38.1888 15.8623 38.794 15.8623 39.3992 15.8623C39.5505 15.8623 39.601 15.8119 39.601 15.6606C39.601 15.0553 39.601 14.4501 39.601 13.8449C39.601 13.6936 39.6514 13.618 39.8027 13.618C41.114 13.618 42.4253 13.618 43.7366 13.618C43.9131 13.618 43.9636 13.6936 43.9636 13.8449C43.9636 14.4501 43.9636 15.0301 43.9636 15.6353C43.9636 15.8119 44.014 15.8623 44.1905 15.8623C44.7705 15.8623 45.3757 15.8623 45.9557 15.8623C46.1322 15.8623 46.1827 15.8119 46.1827 15.6353C46.1827 14.6266 46.1827 13.618 46.1827 12.6093ZM43.787 11.3988C43.1314 11.3988 42.4757 11.3988 41.8201 11.3988C41.1644 11.3988 40.5088 11.3988 39.8531 11.3988C39.6766 11.3988 39.6262 11.3484 39.6262 11.1719C39.6514 10.5919 39.5757 10.0119 39.6766 9.43187C39.9036 8.34753 40.9123 7.61623 42.047 7.7171C43.081 7.81797 43.9383 8.72579 43.9888 9.78492C44.014 10.264 43.9888 10.718 43.9888 11.1971C43.9888 11.3484 43.9383 11.3988 43.787 11.3988Z" fill="#108DE8"/>
<path d="M28.505 5.44757C27.3702 5.44757 26.2102 5.44757 25.0754 5.44757C24.8485 5.44757 24.8232 5.52322 24.8232 5.72496C24.8232 7.36409 24.8232 9.02843 24.8232 10.6676C24.8232 12.3319 24.8232 13.971 24.8232 15.6354C24.8232 15.8371 24.8737 15.8875 25.0754 15.8623C26.2354 15.8623 27.3954 15.8623 28.5554 15.8623C28.858 15.8623 29.1354 15.8371 29.4128 15.7867C31.7832 15.3075 33.3971 13.4667 33.5989 11.0206C33.8258 8.04496 31.4554 5.47279 28.505 5.44757ZM31.3797 11.0963C31.178 12.5084 29.9676 13.5928 28.5302 13.618C28.1015 13.618 27.6476 13.618 27.2189 13.618C27.0676 13.618 27.0171 13.5676 27.0171 13.4162C27.0171 12.4832 27.0171 11.5754 27.0171 10.6423C27.0171 9.73452 27.0171 8.85191 27.0171 7.94409C27.0171 7.71713 27.0928 7.6667 27.2945 7.69191C27.9502 7.74235 28.6058 7.61626 29.2615 7.79278C30.6737 8.19626 31.5815 9.58321 31.3797 11.0963Z" fill="#108DE8"/>
</svg>
