<svg width="97" height="23" viewBox="0 0 97 23" fill="none" xmlns="http://www.w3.org/2000/svg">
<path d="M11.4567 22.5399C17.6001 22.5399 22.5803 17.5597 22.5803 11.4163C22.5803 5.27283 17.6001 0.292603 11.4567 0.292603C5.31324 0.292603 0.333008 5.27283 0.333008 11.4163C0.333008 17.5597 5.31324 22.5399 11.4567 22.5399Z" fill="#02AFD9"/>
<path fill-rule="evenodd" clip-rule="evenodd" d="M5.02681 13.9117C5.15369 15.7304 6.29566 17.1261 8.41043 17.253C10.4406 17.3376 12.4285 17.3376 14.4587 17.253C16.3196 17.1261 17.7154 15.7304 17.8423 13.9117C17.9269 12.9812 17.9692 12.0507 17.9269 11.1202C17.4616 8.58249 15.3469 8.4979 15.1777 8.4979H15.1354H8.02977C7.776 8.4979 7.56452 8.28642 7.56452 8.03265C7.56452 7.77887 7.776 7.60969 8.02977 7.60969H15.1777C15.0931 5.91788 13.2321 5.57952 12.3439 5.53722H11.8786C10.7367 5.49493 9.5524 5.53722 8.41043 5.62181C6.25337 5.79099 5.15369 7.10215 5.02681 8.96314C4.89992 10.6127 4.89992 12.2622 5.02681 13.9117ZM15.7275 12.9389V13.5733C15.7275 13.7848 15.5583 13.954 15.3046 13.954C15.0931 13.954 14.9239 13.7848 14.9239 13.5733V12.9389C14.7124 12.812 14.5855 12.6428 14.5855 12.3891C14.5855 12.0507 14.9239 11.7546 15.3046 11.7546C15.6852 11.7546 16.0236 12.0507 16.0236 12.3891C16.0236 12.6428 15.8967 12.812 15.7275 12.9389Z" fill="#FEFEFE"/>
<path fill-rule="evenodd" clip-rule="evenodd" d="M78.6639 10.4011V12.4313C78.6639 12.4313 77.9449 13.7848 75.5763 14.0808C73.2078 14.4192 73.2078 12.9388 73.377 12.5582C73.5461 12.1775 74.096 11.67 76.0839 11.3316C78.1563 10.9933 78.6639 10.4011 78.6639 10.4011ZM81.4554 8.45554V16.3225H78.8754V15.0536C78.0294 15.8149 76.8452 16.5339 75.1957 16.6185C70.0356 16.7454 68.0478 11.0356 74.3075 9.34374C75.7878 8.92079 77.2258 9.04768 77.9872 8.66702C78.4947 8.37095 78.6216 7.9057 78.2832 7.48275C77.0144 5.79094 73.9691 6.46766 73.1232 8.7939L70.5432 8.15947C71.2199 5.57946 73.2924 4.43749 75.7878 4.18371C78.4524 3.92994 81.4554 5.36798 81.4554 8.45554ZM32.6043 7.0598C30.7433 7.0598 29.2207 8.58243 29.2207 10.4857C29.2207 12.3467 30.7433 13.8693 32.6043 13.8693C34.4653 13.8693 35.9879 12.3467 35.9879 10.4857C35.9879 8.58243 34.4653 7.0598 32.6043 7.0598ZM39.287 4.56437H35.9879V5.83323C34.9728 4.94503 33.6194 4.39519 32.0968 4.39519C28.7977 4.39519 26.0908 7.14439 26.0908 10.528C26.0908 13.9539 28.7977 16.7031 32.0968 16.7031C33.6194 16.7031 34.9728 16.1533 35.9879 15.2651V16.4071C35.9879 18.2258 34.6768 19.6638 32.8581 19.6638C31.3354 19.6638 30.1089 19.3677 29.0938 18.1835L26.979 20.0868C28.7131 21.9477 30.4472 22.5399 32.9004 22.5399C36.4532 22.5399 39.287 20.1291 39.287 16.0687V14.2923V4.56437ZM96.7663 4.3529H93.298L89.8298 11.9238L85.8541 4.3529H82.3436L88.0957 15.1382L85.0505 21.3979H88.561L96.7663 4.3529ZM62.634 7.0598C64.5372 7.0598 66.0599 8.58243 66.0599 10.4857C66.0599 12.3467 64.5372 13.8693 62.634 13.8693C60.773 13.8693 59.2503 12.3467 59.2503 10.4857C59.2503 8.58243 60.773 7.0598 62.634 7.0598ZM55.9936 4.56437H59.2503V5.83323C60.3077 4.94503 61.6612 4.39519 63.1415 4.39519C66.4405 4.39519 69.1474 7.14439 69.1474 10.528C69.1474 13.9539 66.4405 16.7031 63.1415 16.7031C61.6612 16.7031 60.3077 16.1533 59.2503 15.2651V21.3979H55.9936V4.56437ZM47.2808 6.9752C49.3532 6.9752 51.0028 8.58243 51.0028 10.528C51.0028 12.5159 49.3532 14.1231 47.2808 14.1231C45.2506 14.1231 43.6011 12.5159 43.6011 10.528C43.6011 8.58243 45.2506 6.9752 47.2808 6.9752ZM47.2808 4.14142C50.9182 4.14142 53.8788 7.0175 53.8788 10.528C53.8788 14.0808 50.9182 16.9569 47.2808 16.9569C43.6434 16.9569 40.6827 14.0808 40.6827 10.528C40.6827 7.0175 43.6434 4.14142 47.2808 4.14142Z" fill="#1D1819"/>
</svg>
