<svg width="58" height="32" viewBox="0 0 58 32" fill="none" xmlns="http://www.w3.org/2000/svg">
<path fill-rule="evenodd" clip-rule="evenodd" d="M4.3343 27.5724C6.72299 27.5724 8.31035 25.3745 8.66904 23.2071C8.16535 27.7556 10.3632 28.8392 12.5764 28.969C14.5377 29.0834 16.3998 27.9769 16.8196 26.0842V28.4271C17.2775 30.9761 19.3151 31.6858 20.849 31.6858C22.3219 31.6858 24.3443 30.9532 24.8632 28.4348V25.6187C25.924 30.4571 32.5559 29.4879 33.1054 25.6721L33.0977 24.0771C34.0211 28.2058 40.1264 28.679 41.2635 24.2069L41.2559 25.4584C41.3475 29.8084 49.124 30.3656 49.3301 25.0845L49.3377 23.8787C50.2077 29.2819 58.0072 27.9921 57.9996 23.7719V5.37214C57.4501 3.53293 55.733 2.18977 53.6953 2.18977C51.5967 2.18977 49.8414 3.61688 49.3453 5.54003V8.25688C48.8417 6.53977 47.2543 5.28056 45.3693 5.28056C43.3546 5.28056 41.6451 6.79924 41.1261 8.71477V6.91372C40.7446 5.04398 39.0885 3.63977 37.1043 3.63977C35.1582 3.63977 33.5251 4.99819 33.1054 6.82214V8.73003C32.7772 6.77635 31.0753 5.28819 29.0225 5.28819C27.0154 5.28819 25.344 6.7153 24.9625 8.6003L24.9548 6.62372C24.5885 4.71582 22.9096 3.27346 20.8872 3.27346C19.0556 3.27346 17.4988 4.46398 16.9569 6.10477V4.78451C16.9569 2.50267 15.1025 0.648193 12.813 0.648193C10.5617 0.648193 8.64614 2.5103 8.66904 4.78451V9.67635C8.31035 7.50898 6.72299 5.31109 4.3343 5.31109C2.25851 5.31109 0.510882 7.08924 0.0224609 9.49319V23.0621C0.25904 25.5424 2.25851 27.5342 4.3343 27.5342V27.5724Z" fill="#FFF000"/>
<path fill-rule="evenodd" clip-rule="evenodd" d="M53.4439 15.6136C55.9547 15.6136 57.9847 17.6436 57.9847 20.1544C57.9847 22.6652 55.9547 24.6952 53.4439 24.6952C51.6581 24.6952 50.1089 23.665 49.3687 22.1615C48.6284 23.665 47.0792 24.6952 45.2934 24.6952C43.5076 24.6952 41.9584 23.665 41.2181 22.1615C40.4779 23.665 38.9287 24.6952 37.1429 24.6952C35.3571 24.6952 33.8079 23.665 33.0676 22.1615C32.3274 23.665 30.7781 24.6952 28.9924 24.6952C27.2066 24.6952 25.6574 23.665 24.9171 22.1615C24.1768 23.665 22.6276 24.6952 20.8418 24.6952C19.056 24.6952 17.5068 23.665 16.7666 22.1615C16.0263 23.665 14.4771 24.6952 12.6913 24.6952C10.9055 24.6952 9.35631 23.665 8.61605 22.1615C7.87579 23.665 6.32658 24.6952 4.54079 24.6952C2.03 24.6952 0 22.6652 0 20.1544C0 17.6436 2.03 15.6136 4.54079 15.6136C6.32658 15.6136 7.87579 16.6439 8.61605 18.1473C9.35631 16.6439 10.9055 15.6136 12.6913 15.6136C14.4771 15.6136 16.0263 16.6439 16.7666 18.1473C17.5068 16.6439 19.056 15.6136 20.8418 15.6136C22.6276 15.6136 24.1768 16.6439 24.9171 18.1473C25.6574 16.6439 27.2066 15.6136 28.9924 15.6136C30.7781 15.6136 32.3274 16.6439 33.0676 18.1473C33.8079 16.6439 35.3571 15.6136 37.1429 15.6136C38.9287 15.6136 40.4779 16.6439 41.2181 18.1473C41.9584 16.6439 43.5076 15.6136 45.2934 15.6136C47.0792 15.6136 48.6284 16.6439 49.3687 18.1473C50.1089 16.6439 51.6581 15.6136 53.4439 15.6136Z" fill="#E62129"/>
<path fill-rule="evenodd" clip-rule="evenodd" d="M28.6331 9.53892C29.8847 9.53892 30.8997 10.5539 30.8997 11.8055C30.8997 13.0571 29.8847 14.0721 28.6331 14.0721C27.3815 14.0721 26.3665 13.0571 26.3665 11.8055C26.3665 10.5539 27.3815 9.53892 28.6331 9.53892ZM3.72363 14.0644L3.86863 14.0721H4.70047L4.85311 14.0644V9.33286H4.66995H3.90679L3.72363 9.3405V14.0644ZM52.4894 9.52365H51.8941V10.5234H52.4818C52.5657 11.2942 52.3826 12.355 52.5581 13.08C52.787 13.95 53.4663 14.1026 54.2752 14.0644V13.0571C53.7715 13.0723 53.5655 12.79 53.5655 12.3855L53.5731 10.5158L54.2294 10.5234L54.2065 9.51602L53.5655 9.50076V7.56997L52.4894 7.58523V9.50839V9.52365ZM35.4023 12.4465L34.8147 13.1944C34.952 13.4158 35.5626 13.7363 35.8144 13.8355C38.4931 14.8887 39.5386 12.1642 37.6613 11.3705C37.2644 11.2026 36.776 11.1263 36.402 10.9584C35.7763 10.676 36.2799 9.87471 37.4247 10.4089C37.6765 10.5234 37.7299 10.5768 37.9436 10.7294L38.432 9.8976C37.7299 9.45497 36.837 9.00471 35.9289 9.37865C35.0131 9.74497 34.807 10.9202 35.4176 11.5155C36.0128 12.0955 37.4857 12.0879 37.6002 12.6297C37.7299 13.2631 36.3486 13.2479 35.4023 12.4465ZM13.6447 11.485L13.6905 14.0568L14.7971 14.0644L14.7894 11.6071C14.7513 10.6684 14.301 10.1265 13.7286 9.74497C13.0571 9.29471 12.1642 9.18786 11.3705 9.56944C10.7676 9.85944 10.1876 10.5081 10.0273 11.2789L10.0197 14.0797H11.1034L11.1186 12.2939C11.1186 11.63 11.0805 11.2408 11.4849 10.8439C12.3702 9.98918 13.5989 10.676 13.6523 11.5002L13.6447 11.485ZM46.2239 13.6142V14.0721H47.1931L47.2007 11.8208C47.1931 11.0042 46.9947 10.615 46.5978 10.1265C45.5141 8.79102 42.8889 9.21076 42.5378 11.3094C42.3318 12.5305 43.1407 13.7287 44.377 13.9881C45.3615 14.1942 45.8194 13.9118 46.2239 13.6218V13.6142ZM44.8502 10.4089C45.5599 10.4089 46.1323 10.9813 46.1323 11.691C46.1323 12.4008 45.5599 12.9731 44.8502 12.9731C44.1405 12.9731 43.5681 12.4008 43.5681 11.691C43.5681 10.9813 44.1405 10.4089 44.8502 10.4089ZM21.8105 9.73734C21.5357 9.54655 21.3526 9.47786 20.9176 9.40155C19.8797 9.22602 18.941 9.72208 18.4373 10.6455C17.8268 11.7597 18.3152 13.3929 19.7194 13.9118C21.1999 14.4613 22.5355 13.4539 22.8102 12.2558C22.9399 11.6987 22.8713 8.11944 22.8713 7.27234H21.8181V9.72971L21.8105 9.73734ZM20.5284 10.4242C21.2381 10.4242 21.8105 10.9965 21.8105 11.7063C21.8105 12.416 21.2381 12.9884 20.5284 12.9884C19.8186 12.9884 19.2463 12.416 19.2463 11.7063C19.2463 10.9965 19.8186 10.4242 20.5284 10.4242ZM28.6331 10.5158C29.3428 10.5158 29.9152 11.0881 29.9152 11.7979C29.9152 12.5076 29.3428 13.08 28.6331 13.08C27.9234 13.08 27.351 12.5076 27.351 11.7979C27.351 11.0881 27.9234 10.5158 28.6331 10.5158Z" fill="#1D1819"/>
<path fill-rule="evenodd" clip-rule="evenodd" d="M4.60964 17.7354C5.94517 17.7354 7.02885 18.819 7.02885 20.1546C7.02885 21.4901 5.94517 22.5738 4.60964 22.5738C3.27411 22.5738 2.19043 21.4901 2.19043 20.1546C2.19043 18.819 3.27411 17.7354 4.60964 17.7354ZM53.3907 17.7354C54.7262 17.7354 55.8099 18.819 55.8099 20.1546C55.8099 21.4901 54.7262 22.5738 53.3907 22.5738C52.0552 22.5738 50.9715 21.4901 50.9715 20.1546C50.9715 18.819 52.0552 17.7354 53.3907 17.7354ZM53.3907 18.7885C54.1462 18.7885 54.7567 19.399 54.7567 20.1546C54.7567 20.9101 54.1462 21.5206 53.3907 21.5206C52.6352 21.5206 52.0246 20.9101 52.0246 20.1546C52.0246 19.399 52.6352 18.7885 53.3907 18.7885ZM45.2631 17.7354C46.5986 17.7354 47.6823 18.819 47.6823 20.1546C47.6823 21.4901 46.5986 22.5738 45.2631 22.5738C43.9275 22.5738 42.8438 21.4901 42.8438 20.1546C42.8438 18.819 43.9275 17.7354 45.2631 17.7354ZM45.2631 18.7885C46.0186 18.7885 46.6291 19.399 46.6291 20.1546C46.6291 20.9101 46.0186 21.5206 45.2631 21.5206C44.5075 21.5206 43.897 20.9101 43.897 20.1546C43.897 19.399 44.5075 18.7885 45.2631 18.7885ZM38.4633 15.7969C38.8525 15.919 39.2188 16.0869 39.5546 16.3006C39.5699 17.6896 39.5928 20.2385 39.4859 20.7117C39.2036 21.948 37.8299 22.9783 36.3036 22.4135C34.8536 21.8793 34.3575 20.1927 34.9833 19.048C35.5023 18.094 36.4715 17.5904 37.5399 17.7659C37.9902 17.8422 38.1809 17.9261 38.4633 18.1093V15.7893V15.7969ZM37.1354 18.819C37.8681 18.819 38.4557 19.4143 38.4557 20.1393C38.4557 20.8719 37.8604 21.4596 37.1354 21.4596C36.4028 21.4596 35.8152 20.8643 35.8152 20.1393C35.8152 19.4067 36.4104 18.819 37.1354 18.819ZM27.8707 19.4219C28.1454 18.468 29.9083 18.4604 30.1754 19.4219H27.8707ZM31.3965 20.6583L30.3052 20.6659C30.0152 21.2611 29.4962 21.6351 28.8094 21.5359C28.1225 21.3909 27.7562 20.9406 27.6417 20.2461L31.4575 20.2385C31.5338 18.9106 30.4578 17.8804 29.2902 17.7583C27.9241 17.6133 26.8099 18.6435 26.6573 19.8264C26.4665 21.2306 27.4586 22.3448 28.6338 22.5433C29.6107 22.7035 30.5417 22.2533 31.0531 21.513C31.1752 21.3298 31.3888 20.933 31.3965 20.6659V20.6583ZM22.1928 19.9485V20.063H23.3528C23.3146 19.1167 22.8567 18.5748 22.2767 18.178C21.5899 17.7201 20.6894 17.6133 19.8881 17.9948C19.2775 18.2848 18.6899 18.9411 18.522 19.7272L18.5144 22.5585H19.6057L19.621 20.7498C19.621 20.0783 19.5752 19.6814 19.9949 19.2769C20.8878 18.4069 22.1317 19.109 22.1852 19.9409L22.1928 19.9485ZM12.7373 17.7354C14.0728 17.7354 15.1565 18.819 15.1565 20.1546C15.1565 21.4901 14.0728 22.5738 12.7373 22.5738C11.4017 22.5738 10.3181 21.4901 10.3181 20.1546C10.3181 18.819 11.4017 17.7354 12.7373 17.7354ZM12.7373 18.7885C13.4928 18.7885 14.1033 19.399 14.1033 20.1546C14.1033 20.9101 13.4928 21.5206 12.7373 21.5206C11.9817 21.5206 11.3712 20.9101 11.3712 20.1546C11.3712 19.399 11.9817 18.7885 12.7373 18.7885ZM4.60964 18.7885C5.36517 18.7885 5.97569 19.399 5.97569 20.1546C5.97569 20.9101 5.36517 21.5206 4.60964 21.5206C3.85411 21.5206 3.24359 20.9101 3.24359 20.1546C3.24359 19.399 3.85411 18.7885 4.60964 18.7885Z" fill="#FEFEFE"/>
</svg>
