<svg width="65" height="24" viewBox="0 0 65 24" fill="none" xmlns="http://www.w3.org/2000/svg">
<path fill-rule="evenodd" clip-rule="evenodd" d="M-0.000976562 0.489746H64.9998V23.5118H-0.000976562V0.489746Z" fill="white"/>
<path fill-rule="evenodd" clip-rule="evenodd" d="M2.88554 1.93005H62.1128C62.9455 1.93005 63.6263 2.61932 63.6263 3.46208V8.18957H56.2141C55.8248 3.90864 36.3053 2.99633 32.9324 2.97091C27.4948 2.92966 8.76645 4.20363 8.76645 8.10659V8.18957H1.37207V3.46208C1.37207 2.61932 2.05292 1.93005 2.88554 1.93005Z" fill="#FF0000"/>
<path fill-rule="evenodd" clip-rule="evenodd" d="M8.76115 15.1878H1.37207V8.83191H8.765C8.75874 10.8234 8.73176 13.2654 8.76115 15.1878ZM63.6263 8.83191V15.1878H56.231C56.2893 13.2006 56.1582 10.8369 56.2059 8.83191H63.6263Z" fill="#0000FF"/>
<path fill-rule="evenodd" clip-rule="evenodd" d="M63.6263 15.8301V20.5393C63.6263 21.3821 62.9455 22.0714 62.1128 22.0714H2.88554C2.05292 22.0714 1.37207 21.3821 1.37207 20.5393V15.8301H8.81078C9.72435 19.6769 25.0653 21.1883 32.7401 21.231C37.0632 21.255 55.0611 19.8865 56.165 15.8301H63.6263Z" fill="#F9CD09"/>
<path fill-rule="evenodd" clip-rule="evenodd" d="M32.8414 4.09384C37.0571 4.13269 55.1137 5.95922 54.9475 8.22656C54.8082 10.1303 55.0915 13.8218 54.9475 15.7255C54.7803 17.9319 36.9289 19.8611 32.7272 19.8256C28.1979 19.7877 10.1143 18.2955 10.0401 15.5212C9.98947 13.6136 10.0401 10.3447 10.0401 8.43665C10.0401 5.60476 28.2422 4.05211 32.8414 4.09384ZM32.8226 5.83163C28.4802 5.79854 11.2933 6.84179 11.2933 9.04773C11.2933 10.5347 11.2466 13.4711 11.2933 14.9576C11.3627 17.1746 28.4383 18.0586 32.7147 18.0883C36.6822 18.1156 53.5376 16.8354 53.6956 15.1164C53.8315 13.6333 53.5641 10.4234 53.6956 8.93981C53.8522 7.17371 36.8031 5.86137 32.8226 5.83163Z" fill="#E6252D"/>
<path fill-rule="evenodd" clip-rule="evenodd" d="M25.6453 12.2057C25.8669 12.305 25.8245 12.8398 25.5508 13.3962C25.2771 13.9522 24.8733 14.3244 24.6512 14.2251C24.4296 14.1253 24.472 13.5905 24.7456 13.0341C25.0193 12.4782 25.4231 12.106 25.6453 12.2057ZM40.6691 12.2537C40.8908 12.3535 40.8489 12.8883 40.5752 13.4442C40.3015 14.0001 39.8972 14.3723 39.6756 14.273C39.4535 14.1733 39.4959 13.6389 39.7695 13.0825C40.0432 12.5266 40.4475 12.1544 40.6691 12.2537ZM48.0443 12.0973C48.1657 12.1889 48.0563 12.5381 47.8004 12.8748C47.5446 13.2116 47.2372 13.4116 47.1162 13.3204C46.9948 13.2293 47.1042 12.8801 47.36 12.5434C47.6159 12.2067 47.9228 12.0062 48.0443 12.0973ZM48.1999 11.3769C47.3567 11.3126 46.7919 11.8954 46.4961 12.4705C46.2614 12.9266 46.1916 13.5823 46.3592 14.1296C46.1164 14.3253 45.8128 14.4942 45.3305 14.5901C45.091 14.6376 44.959 14.4572 44.9614 14.2918C44.9672 13.815 45.0188 13.4159 45.1561 12.9689C45.2125 12.7842 45.4047 12.847 45.4698 12.6907C45.6037 12.3664 45.6201 12.0532 45.1903 12.1045C44.9147 12.1371 44.6155 12.1789 44.6049 11.8071C44.5947 11.4445 45.04 11.2507 44.9735 11.2191C44.7277 11.1016 44.52 11.2181 44.2632 11.127C44.1914 11.1016 44.2502 10.9389 44.1779 10.9145C44.0796 10.8824 43.9067 10.9855 43.8503 11.0713C43.726 11.2613 43.7366 11.4344 43.6441 11.6584C43.567 11.846 43.5588 12.0546 43.5164 12.2532C43.3824 12.6436 42.5329 13.8533 41.9089 14.169C41.5582 14.346 41.3375 14.1901 41.4459 13.8255C41.5909 13.3387 42.0723 12.1539 42.385 11.3184C42.079 11.3256 41.8077 11.3495 41.5018 11.3567C41.4661 11.4627 41.4131 11.5352 41.3779 11.6412C40.6923 11.2042 40.275 11.3716 39.6529 11.8172C39.1894 12.1491 38.7832 12.6508 38.5645 13.2519C38.4777 13.4902 38.43 13.732 38.4238 13.9584C38.045 14.0946 37.6687 14.2965 37.3309 14.2467C37.2485 14.2342 37.1922 14.109 37.211 14.0279C37.3242 13.542 37.5632 13.0926 37.7106 12.6158C37.8031 12.3165 37.9877 12.0095 37.9303 11.7011C37.8533 11.2862 37.3213 11.2738 37.0312 11.4229C36.7855 11.55 36.5976 11.7721 36.3523 11.9002C36.3032 11.9256 36.2333 11.8973 36.1923 11.8604C36.0868 11.7654 36.0367 11.6191 35.9326 11.5227C35.8406 11.4373 35.736 11.3486 35.6127 11.3236C35.4623 11.2925 35.2956 11.3044 35.1535 11.363C34.8528 11.4877 34.6384 11.8278 34.3146 11.8604C34.1744 11.8748 34.2645 11.5707 34.1744 11.4627C33.958 11.2023 33.7503 11.2925 33.4955 11.4028C32.9717 11.6292 32.4537 11.87 31.9338 12.1045C31.9849 12.2091 32.0287 12.318 32.0639 12.4307C32.2716 12.3597 32.486 12.2695 32.6966 12.2182C32.7934 12.1947 32.9115 12.1453 32.9958 12.1985C33.0724 12.2465 33.1028 12.3707 33.0758 12.4571C32.7915 13.3684 32.4099 14.2467 32.0769 15.1417C32.4233 15.135 32.7693 15.1283 33.1158 15.122C33.429 14.3196 33.6472 13.4744 34.0549 12.7156C34.1281 12.5789 34.3411 12.5261 34.4943 12.5564C34.5994 12.5775 34.6355 12.7295 34.6543 12.8346C34.6774 12.966 34.6572 13.106 34.6143 13.2327C34.396 13.8725 34.1214 14.4918 33.8751 15.122C34.2548 15.1148 34.6543 15.1484 35.0335 15.1417C35.3997 14.3061 35.5438 13.45 35.9924 12.6556C36.0483 12.5568 36.3427 12.5247 36.4521 12.5564C36.5248 12.5775 36.6077 12.6614 36.5918 12.7353C36.4949 13.1823 36.2468 13.5852 36.1326 14.0279C36.0791 14.2337 36.0343 14.4601 36.0926 14.664C36.1413 14.8366 36.2714 15.0016 36.4323 15.0822C36.5691 15.1503 36.7498 15.1206 36.8915 15.0621C37.4292 14.84 37.9275 14.5349 38.4421 14.263C38.5322 14.8381 38.9475 15.2324 39.7387 15.0578C40.0148 14.9964 40.1651 14.817 40.4215 14.6966C40.5506 15.1086 40.8363 15.2774 41.296 15.0894C42.4308 14.6256 43.0957 13.8193 43.9351 12.6101C44.0705 12.6403 44.3369 12.564 44.4723 12.5659C44.3278 13.001 43.433 14.5541 44.3683 15.0218C44.6294 15.1523 44.8294 15.1096 45.1171 15.0578C45.7632 14.9402 46.1617 14.6673 46.4725 14.4117C46.63 14.7196 46.883 14.9652 47.2482 15.0765C47.9922 15.3038 48.8432 14.9119 49.3746 14.6784C49.6579 15.1652 50.3884 15.2549 50.8158 15.1C51.2659 14.9369 51.6725 14.6515 52.0325 14.3354C52.1072 14.2697 52.099 14.1028 52.0243 14.0375C51.9539 13.9766 51.8368 14.0855 51.7622 14.1411C51.4514 14.3719 50.8284 14.9546 50.4771 14.4654C50.32 14.2457 50.4246 13.8754 50.5802 13.4557C50.732 13.0461 50.8785 12.5165 51.0269 12.106C51.2394 12.0887 51.4774 12.1112 51.6894 12.094C51.781 11.8373 51.82 11.633 51.912 11.3764C51.7689 11.3649 51.5728 11.3798 51.4297 11.3682C51.5622 10.6809 51.847 9.98108 52.0884 9.29373C51.7631 9.29996 51.4899 9.31915 51.1642 9.32538C50.9358 9.99355 50.7561 10.6488 50.4448 11.3174C50.2318 11.3236 50.0054 11.3428 49.7929 11.3491C49.7365 11.599 49.6801 11.8489 49.6237 12.0988C49.7866 12.0925 50.015 12.0863 50.1779 12.0801C49.9711 12.8638 49.7461 13.5713 49.2855 14.1786C49.1217 14.3944 48.8379 14.5177 48.5714 14.5719C47.7561 14.7383 47.4419 14.4755 47.3123 14.1076C47.6569 13.8202 47.999 13.6845 48.3088 13.3612C48.8085 12.8408 49.4218 11.4694 48.1999 11.3769ZM19.8636 8.32434C18.5694 8.47255 16.6516 8.61405 15.5564 9.3321C14.9117 9.7542 14.3335 10.5653 14.9122 11.3908C15.4774 12.1971 16.4873 11.8556 16.8959 11.3193C16.4285 11.2584 16.0556 11.1716 16.0262 10.8382C15.8927 9.32251 17.2843 9.6362 18.619 9.20259C17.9261 10.8344 17.3021 13.744 15.5362 14.1032C14.252 14.3647 13.6628 13.7996 13.363 13.0039C12.6514 14.3675 13.669 14.9897 14.5826 15.1297C15.4268 15.2597 16.508 14.735 17.105 14.1128C17.5271 13.8394 17.9488 13.5272 18.3328 13.1727C18.4335 13.0797 19.841 12.0071 19.7113 12.8945C19.5967 13.6764 19.2849 14.2467 19.0517 15.0026C19.3981 15.0088 19.7446 15.0156 20.0906 15.0223C20.3435 14.273 20.53 13.4984 20.8499 12.7751C20.9058 12.6489 21.0523 12.5559 21.1896 12.5362C21.3168 12.5185 21.5024 12.5568 21.5491 12.6758C21.6315 12.8859 21.5144 13.1526 21.4542 13.3699C21.3568 13.7253 20.8181 14.8827 21.5183 14.9714C22.2058 15.0582 22.9787 14.5685 23.3864 14.239C23.4432 14.5834 23.6254 14.8832 23.9896 15.0558C24.2407 15.1738 24.5515 15.0981 24.8218 15.0367C25.0415 14.9863 25.2217 14.8309 25.4217 14.7282C25.386 15.2276 25.865 15.1686 26.1854 15.017C26.9101 14.6745 27.3148 14.4337 27.8097 14.2697C27.7586 14.181 27.7133 14.0889 27.6738 13.9934C27.3177 14.0836 26.9669 14.2553 26.6022 14.2275C26.4803 14.2179 26.4475 13.9958 26.4861 13.8807C26.9973 12.3535 27.6473 10.8756 28.2275 9.37287C27.9249 9.39254 27.6921 9.39254 27.3886 9.41172C27.15 10.0535 26.8412 10.715 26.6022 11.3572C25.4631 11.1495 24.4026 11.4666 23.661 12.8787C23.5025 13.1804 23.3902 13.5334 23.3695 13.873C23.1117 14.0414 22.8713 14.2145 22.5677 14.2898C22.455 14.3181 22.3682 14.1421 22.388 14.0279C22.454 13.6485 22.5865 13.2845 22.7152 12.9199C22.8029 12.671 23.1276 11.9467 23.0072 11.7011C22.7995 11.2761 22.495 11.2785 22.1861 11.4047C21.7891 11.5673 21.3848 11.9342 21.1694 11.8604C20.8523 11.7515 20.9425 11.2646 20.4664 11.3193C20.3161 11.3371 20.1633 11.3975 20.0308 11.4627C19.3514 11.7961 18.7067 12.2738 18.0577 12.6844C18.6807 11.4915 19.2719 9.90241 19.8636 8.32434Z" fill="#0000FF"/>
<path d="M29.835 10.795H29.836C30.4783 10.7955 31.0618 11.0565 31.4844 11.4771V11.4776C31.9065 11.8983 32.1686 12.4786 32.1686 13.1175V13.1185C32.1686 13.7584 31.9065 14.3392 31.4839 14.7599H31.4834C31.0609 15.1801 30.4783 15.441 29.836 15.441H29.835C29.1923 15.441 28.6087 15.1801 28.1867 14.7594C27.7641 14.3387 27.502 13.7584 27.502 13.119V13.1175C27.502 12.4782 27.7641 11.8973 28.1867 11.4766C28.6092 11.0565 29.1923 10.7955 29.8346 10.795H29.835ZM29.836 11.0785H29.8346C29.2708 11.0785 28.7586 11.3078 28.3881 11.6771C28.0166 12.0465 27.7862 12.5563 27.7862 13.1175V13.119C27.7867 13.6802 28.0166 14.1901 28.3876 14.5594C28.7586 14.9287 29.2713 15.158 29.835 15.158H29.836C30.3998 15.1575 30.912 14.9287 31.283 14.5594H31.2825C31.654 14.1901 31.8843 13.6802 31.8843 13.1185V13.1175C31.8838 12.5563 31.654 12.0465 31.2835 11.6771H31.283C30.912 11.3078 30.3998 11.0785 29.836 11.0785Z" fill="#FF0000"/>
<path fill-rule="evenodd" clip-rule="evenodd" d="M29.8343 11.3611C30.8096 11.3611 31.5998 12.1477 31.5998 13.1181C31.5998 14.0884 30.8096 14.8755 29.8343 14.8755C28.8596 14.8755 28.0693 14.0884 28.0693 13.1181C28.0693 12.1477 28.8596 11.3611 29.8343 11.3611ZM29.8343 11.7227C30.6087 11.7227 31.2365 12.3477 31.2365 13.1181C31.2365 13.8889 30.6087 14.5139 29.8343 14.5139C29.0605 14.5139 28.4331 13.8889 28.4331 13.1181C28.4331 12.3477 29.0605 11.7227 29.8343 11.7227Z" fill="#FF0000"/>
<path fill-rule="evenodd" clip-rule="evenodd" d="M29.8345 12.0647C30.419 12.0647 30.8931 12.5362 30.8931 13.118C30.8931 13.6998 30.419 14.1718 29.8345 14.1718C29.25 14.1718 28.7764 13.6998 28.7764 13.118C28.7764 12.5362 29.25 12.0647 29.8345 12.0647Z" fill="#FF0000"/>
</svg>
