<svg width="35" height="32" viewBox="0 0 35 32" fill="none" xmlns="http://www.w3.org/2000/svg">
<path d="M1.16539 31.5014C0.499643 31.1547 -0.0243565 30.8511 -0.00017192 30.8262C0.085146 30.7416 3.26945 30.0617 5.49309 29.6539C10.3052 28.7719 16.0262 28.0658 21.725 27.6513C24.0716 27.48 32.5617 27.4746 34.0343 27.6426L34.9996 27.7534L33.9113 27.7702C31.9799 27.8004 27.5494 28.1101 24.0783 28.4581C17.5075 29.1172 10.203 30.3318 4.91871 31.6445C3.83981 31.9125 2.82607 32.1315 2.66618 32.1315C2.50629 32.1315 1.83047 31.848 1.16539 31.5014ZM10.3515 24.8882C10.2528 24.6155 10.6659 24.4932 10.846 24.4159C11.6548 24.0686 12.2238 23.5036 12.4146 22.8581C12.5053 22.549 12.7834 20.8024 13.0313 18.9771C13.2799 17.1518 13.5022 15.7404 13.5271 15.6571C13.5452 15.596 13.5936 15.3783 13.8556 15.3548C14.524 15.3481 15.0205 15.3568 15.705 15.3568C16.0833 15.3205 16.0094 15.7343 15.9798 15.9997C15.9496 16.3349 15.8596 16.9819 15.7548 17.7706C15.6264 18.7332 15.435 20.1715 15.3288 20.967C15.091 22.7553 14.9593 23.3061 14.5475 24.2272C14.0585 25.3229 13.3101 25.9597 11.9531 26.4132C11.679 26.4992 10.8936 26.7659 10.8077 26.5287C10.6303 25.9597 10.5047 25.466 10.3515 24.8882ZM25.9311 24.2883C25.0275 23.9235 25.0699 22.5141 26.0184 21.9357C26.6183 21.5696 27.4621 21.632 27.8954 22.0653C28.9629 23.1328 27.3929 24.8781 25.9311 24.2883ZM19.0976 23.4465C16.4393 22.9924 16.4575 19.8229 17.0527 18.0117C17.7984 15.9157 19.6156 15.3064 21.109 15.2533C22.3692 15.2103 24.1166 15.4448 24.5553 15.7155C24.6769 15.7908 24.6198 16.517 24.2812 19.2116C24.046 21.0818 23.7894 22.6901 23.7101 22.7855C23.2896 23.2927 20.4694 23.6965 19.0976 23.4465ZM21.4166 20.9381C21.7021 19.8766 21.8224 18.918 22.0266 17.7981C22.0011 17.4118 21.3495 17.4091 21.1835 17.4085C20.3209 17.4085 19.811 17.8928 19.541 18.9697C19.1702 20.447 19.5571 21.2706 20.6219 21.2706C20.9591 21.239 21.3105 21.2578 21.4166 20.9381ZM1.98901 22.5914C2.71589 20.8158 5.63417 14.4606 6.33485 13.1439C6.46719 12.8161 6.81585 12.7509 7.05434 12.7281C7.74092 12.6965 8.33411 12.7052 8.93738 12.7099C9.55812 12.7153 9.56752 12.933 9.64747 13.3945C9.74488 13.8547 10.9568 21.0892 11.2309 22.8265C11.2658 23.1147 11.3364 23.204 10.9615 23.2047C10.4409 23.206 9.18931 23.2739 8.76406 23.2423C8.62836 23.2242 8.53968 23.1355 8.51885 23.0354C8.47989 22.8486 8.43622 22.5289 8.40666 22.1957L8.32941 21.3304H6.7695H5.21027L4.86967 22.1627C4.74807 22.4583 4.61573 22.7506 4.51697 22.944C4.44778 23.1214 4.34499 23.2034 4.19048 23.2369C3.8089 23.2336 2.45591 23.284 1.94736 23.239C1.69544 23.1234 1.92318 22.7526 1.98901 22.5914ZM8.05397 18.9213C8.01031 18.4544 7.71203 16.0434 7.64149 15.6873C7.62335 15.649 7.61462 15.6618 7.59581 15.684C7.41107 15.9607 6.41479 18.4074 6.24483 18.9758C6.22468 19.0544 6.27506 19.0826 6.34963 19.0765C6.60222 19.0591 7.63612 19.0396 7.94984 19.0275C8.03986 19.0208 8.0486 18.9892 8.05397 18.9213ZM26.0513 20.0936C26.0917 19.7785 26.1797 18.9234 26.2475 18.1931C26.3154 17.4629 26.4235 16.3222 26.488 15.6584C26.5377 15.1553 26.5807 14.6662 26.5995 14.4089C26.6372 14.1778 26.9159 14.1509 27.0993 14.1489C27.71 14.1556 28.2851 14.1193 28.8346 14.1704C29.0939 14.1966 29.2027 14.2537 29.2041 14.4082C28.9562 15.6793 28.0661 20.0634 27.9975 20.3348C27.9384 20.5692 27.9142 20.6378 27.5568 20.6586C27.1195 20.6512 26.754 20.674 26.31 20.672C26.0554 20.6687 25.9869 20.5941 26.0513 20.0936ZM13.7259 13.5799C13.7259 12.8053 14.2244 12.2155 14.8485 11.9669C15.3873 11.7781 15.9919 11.7788 16.3137 12.1463C16.8847 12.81 16.5098 13.7908 15.8428 14.3021C14.9882 14.8899 13.7394 14.5426 13.7259 13.5799ZM29.0388 11.9474C28.8521 11.5329 28.2528 10.2243 27.708 9.03924C27.1625 7.85486 26.7453 6.81022 26.7802 6.71819C26.8158 6.62682 27.4232 5.87173 28.1312 5.04072L29.2827 3.6884C29.3579 3.5977 29.4446 3.48618 29.5487 3.48417C30.2427 3.4882 30.9622 3.52918 31.6246 3.52313C32.1177 3.51843 32.3662 3.48686 32.0001 3.85836C31.7656 4.14857 31.3041 4.67929 30.7761 5.26174C30.0122 6.10417 29.3882 6.8156 29.3882 6.84314C29.3882 6.87069 29.9605 8.12829 30.6599 9.63781C31.2094 10.8235 31.6635 11.8843 31.8167 12.3277C31.8819 12.4782 31.8247 12.6071 31.685 12.6421C31.4996 12.6851 31.1664 12.7019 30.5933 12.7019H29.7348C29.5252 12.724 29.3714 12.6871 29.2907 12.5077L29.0388 11.9474ZM3.35007 11.0647C2.5775 10.6798 2.21205 10.1927 2.14554 9.45844C2.1059 9.01841 2.82607 3.10259 3.1445 1.22157C3.22243 0.779525 3.25602 0.754668 3.67992 0.754668H4.51294C4.95095 0.754668 5.34933 0.747278 5.59991 0.761386C5.94252 0.76676 5.87937 0.982407 5.85317 1.24038C5.79473 1.81745 5.61133 3.06698 5.3809 4.67593C4.97245 7.53106 4.86832 8.53808 4.9664 8.69326C5.08061 8.87465 5.37082 8.90488 7.29552 8.93377L9.01665 8.95929C9.42712 8.93645 9.51177 9.03722 9.47146 9.40537C9.37069 10.0147 9.3156 10.5004 9.21618 11.0459C9.14765 11.3872 8.92731 11.2978 8.58469 11.3186L6.57267 11.3469C3.99163 11.3791 3.97819 11.3778 3.35007 11.0647ZM23.2003 11.2844C23.174 11.234 23.2459 10.542 23.3601 9.74529C23.4743 8.94855 23.7122 7.23816 23.8895 5.94361C24.392 2.26957 24.5573 1.16245 24.6271 0.738545C24.701 0.244776 24.7017 0.271648 25.1861 0.271648H25.9539C26.2536 0.271648 26.4873 0.268289 26.6681 0.273663C27.358 0.296504 27.27 0.236715 27.096 1.30487C27.0302 1.70862 26.8111 3.48484 26.6096 4.97824C26.1011 8.73895 25.7672 11.0452 25.706 11.2239C25.6489 11.3912 23.2856 11.4476 23.2003 11.2844ZM10.0788 10.9975C10.3992 8.31034 10.7055 6.27816 11.0609 3.77707C11.0878 3.47745 11.382 3.44319 11.726 3.44252C12.117 3.44252 12.5147 3.43714 12.8869 3.44924C13.6084 3.45192 13.7978 3.54866 13.7232 4.03101C13.4035 6.37893 13.0085 8.47426 12.594 10.8618C12.516 11.2656 12.422 11.2535 12.0357 11.2535C11.5856 11.2555 10.7875 11.2703 10.3804 11.2588C10.1412 11.2172 10.0875 11.1897 10.0788 10.9975ZM15.171 4.98093C15.3685 3.94166 15.5055 3.77976 15.793 3.59166C16.1478 3.35922 18.7684 3.1167 19.6733 3.23292C19.7996 3.25106 19.9199 3.2739 20.0341 3.30077C22.685 3.93024 22.2725 6.93182 22.1005 8.31236C21.9185 9.63176 21.7404 10.8329 21.7042 10.9821C21.641 11.2421 21.5846 11.2535 20.3841 11.2535C19.981 11.2535 19.7701 11.24 19.541 11.2185C19.1702 11.1944 19.1359 11.1111 19.1728 10.841C19.3079 9.73925 19.4899 8.78866 19.6256 7.75947C19.8084 6.35475 19.76 4.96749 18.0167 5.26577C17.7177 5.34168 17.6364 5.36587 17.5955 5.66347C17.3778 7.0514 17.1863 8.48501 16.9875 9.84203C16.9438 10.1658 16.8827 10.5044 16.8202 10.8047C16.8041 10.8806 16.7954 10.9492 16.7813 10.9995C16.7638 11.06 16.7221 11.1218 16.6825 11.06C16.403 10.5501 15.085 10.6354 14.5348 11.0096C14.2593 11.2017 14.2022 11.3045 14.3151 10.7201C14.3346 10.5958 14.3541 10.4722 14.3729 10.3486C14.6456 8.55756 14.8297 6.79612 15.171 4.98093ZM11.4082 1.90545C11.1133 0.901119 11.99 -0.0911211 12.9715 -0.125383C14.3017 -0.214731 14.6691 1.61524 13.3081 2.4449C12.5201 2.80566 11.6917 2.72907 11.4082 1.90545Z" fill="#E9232A"/>
</svg>
