<svg width="58" height="19" viewBox="0 0 58 19" fill="none" xmlns="http://www.w3.org/2000/svg">
<path d="M9.39733 18.9203C4.18292 18.9615 -0.000976562 14.8394 -0.000976562 9.48075C-0.000976562 4.10145 4.18292 0 9.39733 0C14.5293 0 18.7544 4.08084 18.7544 9.50136C18.7338 14.8188 14.5705 18.9409 9.39733 18.9203ZM3.50278 9.56319C3.544 9.87235 3.56461 10.3052 3.62644 10.7174C3.64705 10.9029 3.68827 11.0884 3.7501 11.2738C4.36841 13.7677 6.36761 15.6226 8.90268 15.7875C10.9019 15.9318 12.5713 15.231 13.8286 13.6646C15.5186 11.5624 15.7041 8.3884 14.3438 5.97699C12.695 3.11216 9.02635 2.18469 6.26456 4.01901C4.32719 5.31746 3.56461 7.21361 3.50278 9.56319Z" fill="#4C3494"/>
<path d="M48.3298 0.0205874C53.4206 -0.0618539 57.7075 3.97777 57.7075 9.48073C57.7075 14.9012 53.5443 18.8172 48.5978 18.9203C43.136 19.0439 38.9521 14.7982 38.9521 9.43951C38.9728 4.08082 43.1567 -0.0412436 48.3298 0.0205874ZM54.245 9.48073C54.1626 8.88303 54.1213 8.30594 53.9771 7.72885C53.3794 5.15256 51.3596 3.38007 48.9688 3.15336C46.9077 2.96786 45.1352 3.6274 43.878 5.29683C42.1261 7.6258 42.0025 10.2021 43.3009 12.7784C45.0528 16.1997 49.6901 16.8798 52.3901 14.1387C53.6473 12.8402 54.1626 11.2532 54.245 9.48073Z" fill="#4C3494"/>
<path d="M19.4961 0.494629C19.7434 0.494629 19.9495 0.494629 20.1556 0.494629C22.3197 0.494629 24.4632 0.494629 26.6273 0.494629C26.9158 0.494629 27.0395 0.55646 27.0189 0.865615C26.9983 1.6282 26.9983 2.39078 27.0189 3.15336C27.0189 3.46252 26.957 3.58618 26.6273 3.56557C26.1738 3.54496 25.7204 3.56557 25.2052 3.56557C26.6479 6.96627 28.07 10.3258 29.4921 13.7265C30.873 10.3258 32.2539 6.96627 33.6348 3.56557C33.0165 3.56557 32.46 3.56557 31.8623 3.56557C31.8623 2.53505 31.8623 1.52515 31.8623 0.515239C33.8203 0.515239 35.7989 0.515239 37.8187 0.515239C37.7568 1.2366 37.9423 1.95796 37.6332 2.67932C36.1286 6.16247 34.6653 9.64561 33.1814 13.1288C32.3982 14.9425 31.615 16.7562 30.8524 18.5905C30.7493 18.8584 30.5845 18.9203 30.3165 18.9203C29.1417 18.9615 28.1937 18.5493 27.5341 17.6012C27.225 17.1684 27.0395 16.6531 26.8334 16.1791C25.0609 12.0982 23.2884 8.0174 21.5365 3.93655C21.4129 3.64801 21.2686 3.54496 20.9594 3.56557C20.5678 3.58618 20.1762 3.56557 19.8052 3.58618C19.6198 3.58618 19.5373 3.54496 19.5373 3.33885C19.5167 2.41139 19.4961 1.48392 19.4961 0.494629Z" fill="#4C3494"/>
</svg>
