<svg width="54" height="25" viewBox="0 0 54 25" fill="none" xmlns="http://www.w3.org/2000/svg">
<path fill-rule="evenodd" clip-rule="evenodd" d="M2.61119 4.09759H20.0191C21.1757 4.09759 22.1221 5.04393 22.1221 6.20056V18.3803C22.1221 19.5369 21.1757 20.4832 20.0191 20.4832H2.10297C0.946337 20.4832 0 19.5369 0 18.3803V3.33234C0 2.78324 0.449802 2.40353 0.993069 2.33928L17.0457 0.288879C17.5949 0.288879 18.0388 0.738681 18.0388 1.28195V2.98769H1.60644C1.60644 3.70036 1.82257 4.09175 2.61119 4.09175V4.09759ZM12.3725 17.4456C10.9062 17.726 9.02525 17.2412 8.00297 16.1371C7.54148 15.6406 8.28337 14.8928 8.75069 15.3894C9.44 16.1313 10.6667 16.4759 11.6656 16.4525C12.9391 16.4233 14.0782 15.2609 13.3539 13.964C12.3491 12.1707 9.87812 12.673 8.60465 11.2594C7.57653 10.1203 8.06139 8.3269 9.27059 7.53244C10.5324 6.70294 12.7054 6.73799 13.7394 7.92383C14.1834 8.43205 13.4415 9.17977 12.9917 8.67155C12.1563 7.71353 10.1819 7.84205 9.42832 8.82927C8.35347 10.2371 9.9599 10.9965 11.0815 11.3353C12.6237 11.8026 14.3352 12.6555 14.6156 14.4255C14.8376 15.8509 13.7394 17.1711 12.3725 17.4398V17.4456Z" fill="#EE4E2C"/>
<path fill-rule="evenodd" clip-rule="evenodd" d="M12.3725 17.4456C10.9063 17.726 9.0253 17.2411 8.00302 16.1371C7.54154 15.6405 8.28342 14.8928 8.75074 15.3894C9.44005 16.1312 10.6668 16.4759 11.6657 16.4525C12.9392 16.4233 14.0783 15.2608 13.3539 13.964C12.3492 12.1706 9.87817 12.673 8.6047 11.2594C7.57659 10.1203 8.06144 8.32689 9.27064 7.53243C10.5324 6.70293 12.7055 6.73798 13.7395 7.92382C14.1834 8.43203 13.4415 9.1856 12.9917 8.67154C12.1564 7.71352 10.1819 7.84204 9.42837 8.82926C8.35352 10.2371 9.95995 10.9965 11.0815 11.3353C12.6237 11.8026 14.3353 12.6555 14.6157 14.4255C14.8377 15.8508 13.7395 17.171 12.3725 17.4398V17.4456Z" fill="#FEFEFE"/>
<path d="M42.3569 3.34986C41.7319 3.34986 41.1769 3.61273 40.7914 4.03333V3.54847C40.7914 3.11036 40.0845 3.11036 40.0845 3.54847V9.29659C40.0845 9.73471 40.7914 9.74055 40.7914 9.29659V6.73798C41.1769 7.15857 41.7377 7.42144 42.3569 7.42144C43.5135 7.42144 44.454 6.51016 44.454 5.38857C44.454 4.26699 43.5135 3.3557 42.3569 3.3557V3.34986ZM42.3569 6.67956C41.615 6.67956 41.0192 6.0954 41.0192 5.38273C41.0192 4.74016 41.504 4.20273 42.1408 4.09758C42.1408 4.09758 42.1466 4.09758 42.1525 4.09758C42.2167 4.0859 42.2868 4.08006 42.3569 4.08006C42.9002 4.08006 43.3733 4.40135 43.5836 4.85699V4.86283C43.6537 5.02055 43.6946 5.1958 43.6946 5.38273C43.6946 6.10125 43.093 6.67956 42.3569 6.67956ZM37.1521 7.4156C35.9954 7.4156 35.0549 6.50431 35.0549 5.38273C35.0549 4.26115 35.9954 3.34986 37.1521 3.34986C38.3087 3.34986 39.2492 4.26115 39.2492 5.38273C39.2492 6.50431 38.3087 7.4156 37.1521 7.4156ZM37.1521 4.0859C36.416 4.0859 35.8143 4.67006 35.8143 5.38273C35.8143 6.10125 36.416 6.67956 37.1521 6.67956C37.8881 6.67956 38.4898 6.0954 38.4898 5.38273C38.4898 4.66422 37.8881 4.0859 37.1521 4.0859ZM53.9992 5.34184C53.9817 4.40719 53.491 3.56016 52.4687 3.37323C51.5866 3.20966 50.5585 3.65946 50.1846 4.45976C49.7932 5.28927 49.9568 6.42837 50.7279 7.00669C51.5574 7.63174 52.8542 7.43897 53.7071 6.97748C54.1043 6.76134 53.748 6.17134 53.3508 6.38748C52.8133 6.67956 52.1065 6.8256 51.499 6.62699C51.0433 6.48095 50.7922 6.10125 50.7162 5.67481H53.6487C53.8356 5.67481 54.005 5.51709 53.9992 5.33016V5.34184ZM50.7396 4.99719C50.7454 4.97382 50.7513 4.94461 50.7571 4.92125C50.9265 4.3663 51.5048 4.03917 52.089 4.02748C52.7608 4.00996 53.1346 4.45976 53.2515 4.99719H50.7337H50.7396ZM49.3026 5.34768C49.285 4.41303 48.7943 3.566 47.7721 3.37907C46.89 3.2155 45.8619 3.66531 45.488 4.4656C45.0966 5.29511 45.2602 6.43422 46.0313 7.01253C46.8608 7.63758 48.1576 7.44481 49.0105 6.98332C49.4077 6.76719 49.0514 6.17719 48.6541 6.39332C48.1167 6.6854 47.4099 6.83144 46.8024 6.63283C46.3467 6.48679 46.0955 6.10709 46.0196 5.68065H48.9521C49.139 5.68065 49.3084 5.52293 49.3026 5.336V5.34768ZM46.043 5.00303C46.0488 4.97966 46.0546 4.95045 46.0605 4.92709C46.2299 4.37214 46.8082 4.04501 47.3924 4.03333C48.0641 4.0158 48.438 4.4656 48.5548 5.00303H46.0371H46.043ZM34.2313 4.68758V7.06511C34.2313 7.51491 33.5244 7.51491 33.5244 7.06511V4.73432C33.5011 4.27283 33.1097 4.06253 33.0922 4.05669C32.5898 3.84055 31.6785 3.93986 31.1352 4.62917V7.06511C31.1352 7.51491 30.4284 7.51491 30.4284 7.06511V0.960653C30.4284 0.510851 31.1352 0.516692 31.1352 0.960653V3.70036C31.9998 3.12204 33.098 3.1863 33.6179 3.54263C33.6179 3.54263 34.2371 3.88144 34.2313 4.68758ZM29.2776 1.24105C28.5883 0.481643 27.1337 0.458277 26.2926 0.989861C25.4864 1.49808 25.1593 2.64887 25.8486 3.37907C26.7015 4.28451 28.3488 3.96323 29.0206 5.11402C29.5054 5.94936 28.746 6.69125 27.8932 6.70877C27.2272 6.72045 26.4035 6.49847 25.9421 6.02531C25.6325 5.70402 25.1359 6.18303 25.4455 6.50431C26.129 7.21115 27.3849 7.52659 28.3605 7.3455C29.2718 7.1761 30.0078 6.32323 29.8559 5.41194C29.669 4.27867 28.524 3.72956 27.4959 3.43164C26.7482 3.2155 25.6734 2.72481 26.3919 1.82521C26.8942 1.18847 28.2144 1.10669 28.7752 1.7259C29.0732 2.05303 29.5697 1.57402 29.2718 1.24689L29.2776 1.24105Z" fill="#EE4E2C"/>
<path fill-rule="evenodd" clip-rule="evenodd" d="M47.6674 24.0291H45.43L47.8251 19.5019L43.8879 12.0655H46.318L49.0401 17.2061L51.7623 12.0655H53.9996L47.6674 24.0291ZM25.3467 20.4832H27.2277V17.0542H29.7571C32.3799 17.0542 34.5121 15.2141 34.5121 12.9418C34.5121 10.6694 32.3858 8.82928 29.7571 8.82928H25.3467C25.3467 12.7139 25.3467 16.5986 25.3467 20.4891V20.4832ZM27.2277 15.1732V10.7044H29.7571C31.1824 10.7044 32.3391 11.7033 32.3391 12.9418C32.3391 14.1743 31.1824 15.1791 29.7571 15.1791H27.2277V15.1732ZM41.5454 12.1356H43.1927V20.4131H41.5454V19.4843C40.8094 20.1094 39.8572 20.4891 38.8174 20.4891C36.4924 20.4891 34.6056 18.6023 34.6056 16.2773C34.6056 13.9524 36.4924 12.0655 38.8174 12.0655C39.8572 12.0655 40.8094 12.4452 41.5454 13.0703V12.1415V12.1356ZM38.8174 13.8355C40.1609 13.8355 41.2533 14.9279 41.2533 16.2715C41.2533 17.615 40.1609 18.7074 38.8174 18.7074C37.4738 18.7074 36.3814 17.615 36.3814 16.2715C36.3814 14.9279 37.4738 13.8355 38.8174 13.8355Z" fill="#EE4E2C"/>
</svg>
