<svg width="80" height="15" viewBox="0 0 80 15" fill="none" xmlns="http://www.w3.org/2000/svg">
<path d="M27.0262 14.266C25.5849 14.1173 24.6461 13.6181 24.2428 12.7884C24.0874 12.4677 23.9618 11.8562 23.9585 11.4264C23.9552 10.167 24.5767 9.29425 25.7866 8.85789C26.4742 8.60997 27.1155 8.53394 28.4973 8.53394H29.7534V8.18023C29.7534 7.26124 29.0724 6.70919 27.9518 6.7158C27.337 6.72241 26.9138 6.8315 26.1436 7.18851C25.4461 7.51247 25.2742 7.5257 24.937 7.26785C24.7288 7.10918 24.3155 6.32573 24.2825 6.03152C24.266 5.88276 24.3056 5.83648 24.6527 5.59847C25.8891 4.74229 28.094 4.37205 29.6014 4.75882C30.6162 5.01997 31.3732 5.59517 31.7798 6.41498C32.1501 7.16537 32.1666 7.33727 32.1699 10.9041L32.1732 14.0346L32.0476 14.0644C31.274 14.2561 28.1402 14.3817 27.0262 14.266ZM29.5782 12.3223L29.7534 12.2859V10.2165H28.7815C27.3006 10.2165 26.7948 10.3422 26.5039 10.7719C26.4047 10.9207 26.375 11.043 26.375 11.3074C26.375 11.8694 26.5965 12.114 27.2477 12.276C27.5419 12.3487 29.2675 12.3818 29.5749 12.319L29.5782 12.3223ZM60.9064 14.2627C59.3163 14.0578 58.1659 13.314 57.5246 12.071C56.7511 10.5736 56.7709 8.36535 57.5709 6.88439C58.404 5.34393 59.994 4.49106 61.8055 4.61007C63.6501 4.73238 64.7939 5.58194 65.3195 7.22818C65.5277 7.8728 65.5972 8.42815 65.5972 9.3802V10.1636H59.4486L59.4816 10.438C59.551 11.0165 59.9246 11.552 60.4634 11.8396C60.9361 12.0909 61.3692 12.19 62.0105 12.19C62.9427 12.19 63.7592 11.9355 64.4071 11.4496L64.7145 11.2182L64.817 11.3537C64.8732 11.4264 64.9955 11.6446 65.0914 11.833C65.3988 12.4512 65.2864 13.0528 64.7939 13.4528C63.9608 14.1272 62.3906 14.4578 60.9064 14.266V14.2627ZM63.303 8.44468C63.3559 8.39179 63.2336 7.78024 63.1179 7.51908C62.9658 7.1786 62.665 6.87778 62.3146 6.72241C61.9047 6.5406 61.0948 6.5406 60.6353 6.72241C60.0502 6.95712 59.5543 7.5885 59.4816 8.20006L59.4486 8.47774H61.3593C62.4105 8.47774 63.2832 8.46452 63.2997 8.44799L63.303 8.44468ZM2.23675 14.233C1.32768 14.1239 0.471501 13.8131 0.200433 13.4892C0.00870221 13.2644 -0.044189 12.914 0.045065 12.4876C0.137625 12.0446 0.415304 11.433 0.507863 11.4727C0.547532 11.4892 0.782237 11.5884 1.03016 11.6975C1.85659 12.0512 2.81524 12.2231 3.71109 12.1735C4.60032 12.1239 4.97717 11.8793 4.96395 11.3603C4.95403 10.8843 4.65983 10.7124 3.39705 10.4446C2.0384 10.157 1.50619 9.92894 0.954134 9.40664C0.464889 8.94715 0.213656 8.31245 0.213656 7.54553C0.213656 6.74555 0.474806 6.134 1.03678 5.60508C2.05163 4.65635 3.83671 4.36214 5.94575 4.79519C6.554 4.9208 7.2515 5.15881 7.28786 5.25468C7.33745 5.3836 7.14902 6.16375 6.99035 6.4844C6.91101 6.64307 6.77878 6.82158 6.69614 6.87447C6.49449 7.01001 6.06475 6.99678 5.44658 6.83811C4.77883 6.66952 3.66812 6.62324 3.23837 6.74555C2.83177 6.86456 2.63343 7.08604 2.63343 7.41991C2.63343 7.89924 2.88136 8.0513 4.05488 8.29262C5.90608 8.67608 6.77548 9.16533 7.1953 10.0612C7.4862 10.6859 7.54901 11.8396 7.30439 12.5338C6.43499 14.3156 4.19042 14.5206 2.24005 14.2297L2.23675 14.233ZM41.6804 14.1867C40.7383 13.9883 40.1664 13.4694 39.849 12.5239C39.7532 12.2363 39.7433 11.9091 39.7267 7.96535C39.7168 5.62822 39.7234 3.63488 39.7433 3.53571C39.8259 3.09605 40.3251 2.79193 41.4424 2.51094C41.8192 2.41508 42.1432 2.33905 42.1597 2.33905C42.1763 2.33905 42.1928 2.88449 42.1928 3.54893V4.75882H44.682L44.6588 5.47616C44.6423 6.02491 44.6093 6.24639 44.5299 6.41167C44.3712 6.74224 44.2126 6.78522 43.125 6.78522H42.1961V9.10913C42.1961 11.4066 42.1961 11.4363 42.3217 11.6843C42.4143 11.8661 42.5167 11.9719 42.7019 12.0644C42.9399 12.1867 43.0027 12.1933 43.7894 12.1735L44.6258 12.1537L44.6059 12.8049C44.5894 13.3371 44.5663 13.4925 44.4704 13.6512C44.3382 13.876 44.0704 14.0743 43.7762 14.1602C43.4423 14.2594 42.1068 14.2759 41.6804 14.19V14.1867ZM20.1404 12.6297C20.1338 12.1867 20.1338 11.5851 20.1338 10.7587C20.1338 8.98682 20.1107 7.86618 20.0743 7.68768C19.9355 7.03976 19.476 6.71249 18.6628 6.67944C17.281 6.72902 16.9042 7.58189 16.8711 8.29262L16.8975 14.1272C16.0711 14.1503 15.248 14.1371 14.4249 14.1272L14.3984 10.8645C14.372 7.65792 14.3687 7.59512 14.2497 7.37694C13.9918 6.89431 13.658 6.7158 12.9571 6.68605C12.2696 6.65299 11.8861 6.76538 11.5654 7.08604C11.1588 7.49264 11.1688 7.40008 11.1489 10.9504L11.1324 14.1305C10.3258 14.1404 9.51921 14.1503 8.71593 14.1602V10.881C8.71593 7.19843 8.72254 7.13893 9.106 6.35548C9.50268 5.55219 10.2498 4.99022 11.2745 4.72246C11.853 4.5704 13.3009 4.58362 13.8993 4.7456C14.5207 4.91419 14.9968 5.17204 15.3505 5.53897L15.6579 5.85632L15.9719 5.54558C16.3521 5.17204 16.8281 4.90758 17.4198 4.74891C18.0545 4.57701 19.4661 4.57701 20.1008 4.74891C21.4297 5.11253 22.2627 5.95549 22.5305 7.20835C22.5966 7.529 22.6131 8.20006 22.6131 10.8446C22.6131 13.8495 22.6065 14.0908 22.5172 14.1239C21.1454 14.4016 20.114 14.2892 20.1437 12.6297H20.1404ZM73.3821 14.1569C73.0482 14.0842 72.8631 13.985 72.7276 13.7999C72.6119 13.6446 72.6086 13.5751 72.5821 10.6198C72.5722 9.68763 72.5656 9.06615 72.5557 8.13395C72.6053 7.19843 72.1292 6.64638 70.9425 6.67282C69.7789 6.64968 69.3227 7.29099 69.3591 7.83974L69.3458 14.1272H66.8699V10.9207C66.8699 8.03808 66.8798 7.67115 66.969 7.28438C67.2566 6.05796 67.9938 5.25468 69.1805 4.87122C70.0632 4.58693 70.9822 4.52081 71.9772 4.67287C73.6432 4.92411 74.6019 5.70756 74.9788 7.12571C75.0647 7.44305 75.0779 7.89263 75.0945 10.7851L75.1143 14.0842L74.9854 14.1206C74.7639 14.1834 73.63 14.2098 73.3788 14.1536L73.3821 14.1569ZM33.7566 14.1272C33.7831 13.2545 33.7599 11.7537 33.7632 10.7983C33.7831 7.71412 33.7897 7.58189 33.9087 7.14885C34.2525 5.89268 34.9533 5.17865 36.1533 4.8646C36.6623 4.73238 37.7334 4.66626 38.3879 4.72577L38.8276 4.76543L38.8044 5.44971C38.7846 5.97863 38.7549 6.19019 38.6656 6.38853C38.4904 6.77861 38.4408 6.79844 37.6706 6.83811C36.9466 6.87447 36.8508 6.90422 36.6095 7.15876C36.259 7.5257 36.2624 7.51247 36.2392 10.9901L36.2194 14.1272C35.3797 14.1371 34.5467 14.1305 33.7566 14.1272ZM45.9183 8.96368C45.9381 3.21506 45.915 3.56546 46.3084 2.73573C46.5497 2.22665 47.1447 1.63493 47.6902 1.36056C48.4108 0.996931 48.9166 0.904372 50.1794 0.907677C50.7843 0.907677 51.3496 0.927512 51.4388 0.950652L51.6008 0.993626L51.5645 1.56882C51.5215 2.2564 51.4124 2.66301 51.2141 2.84813C51.0752 2.97705 51.0223 2.98696 50.186 3.01672C49.429 3.04316 49.2703 3.0663 49.072 3.16878C48.629 3.40018 48.3745 3.88281 48.3745 4.48775V4.75882H50.8967L50.9331 5.13898C50.9694 5.52244 50.8934 6.26292 50.8008 6.43812C50.7744 6.49101 50.6951 6.58357 50.6256 6.64307C50.5132 6.74555 50.4075 6.75547 49.4389 6.772L48.3745 6.79183V14.1536H45.8952L45.9117 8.96368H45.9183ZM51.5446 10.8215L51.5611 7.74057C51.581 7.22818 51.7859 6.71249 52.0239 6.29597C52.4438 5.57533 53.1016 5.10923 54.0371 4.86791C54.5627 4.73238 55.6206 4.66626 56.3313 4.72577L56.8238 4.76543V5.19518C56.8238 5.72078 56.7346 6.28936 56.6222 6.51085C56.4933 6.75877 56.242 6.83811 55.5677 6.83811C55.2933 6.83811 55.1379 6.84142 55.0156 6.86456C54.6685 6.94389 54.3545 7.25132 54.1826 7.57198C54.0603 7.80007 54.0404 7.9918 54.0371 8.23642L54.0239 10.9835L54.0074 14.1536H51.5314L51.5512 10.8182L51.5446 10.8215Z" fill="#050708"/>
<path fill-rule="evenodd" clip-rule="evenodd" d="M76.5918 10.8181H80V14.1503H76.5918V10.8181Z" fill="#ED1D61"/>
</svg>
