<svg width="75" height="13" viewBox="0 0 75 13" fill="none" xmlns="http://www.w3.org/2000/svg">
<path fill-rule="evenodd" clip-rule="evenodd" d="M6.53565 2.86405V10.4726C6.53565 11.543 6.52119 12.2373 6.95513 12.5989C5.45078 13.2354 4.12001 12.758 4.12001 10.4726V2.86405H0.648438V2.08295C0.648438 0.954683 1.16917 0.448412 1.99367 0.448412H3.88857C5.82687 0.448412 6.53565 1.80811 6.53565 2.86405ZM54.3566 6.16205C54.3566 4.31054 56.237 3.58729 57.8282 3.58729C58.8552 3.58729 59.8099 3.86213 60.5186 4.29607V6.35009C59.8099 5.6847 58.32 5.4388 57.8716 5.42434C56.2515 5.38094 55.7597 6.85636 58.32 7.3337C59.8677 7.623 61.0683 8.66447 61.0683 10.0386C61.0683 12.0782 59.2023 12.8593 57.4087 12.8593C56.2804 12.8593 55.3981 12.6134 54.3711 11.8901V9.8072C55.0364 10.4003 56.1936 11.109 57.2351 11.0801C59.347 11.0078 59.4627 9.54683 57.293 9.09842C54.9497 8.62108 54.3855 7.52175 54.3855 6.16205H54.3566ZM33.9611 3.58729C36.5069 3.58729 38.5609 5.65577 38.5609 8.21606C38.5609 10.7763 36.5069 12.8448 33.9611 12.8448C31.4153 12.8448 29.3613 10.7763 29.3613 8.21606C29.3613 5.65577 31.4153 3.58729 33.9611 3.58729ZM33.9611 5.71363C35.2051 5.71363 36.2176 6.85636 36.2176 8.27392C36.2176 9.69148 35.2051 10.8342 33.9611 10.8342C32.7171 10.8342 31.7046 9.69148 31.7046 8.27392C31.7046 6.85636 32.7171 5.71363 33.9611 5.71363ZM21.5213 0H23.9369V7.69533L27.0903 3.76087H29.7373L26.801 7.43496C26.5261 7.78211 25.9331 8.21606 25.4991 8.21606C25.9475 8.21606 26.5551 8.65001 26.8588 8.99717L30.0411 12.6712H28.1317C27.6399 12.6712 27.1192 12.3675 26.801 11.9769L23.9514 8.6934V12.7002H21.5357V0.0144649L21.5213 0ZM65.9574 3.58729C68.214 3.58729 70.0365 4.96146 70.0944 8.37518C70.0944 8.88145 69.8774 8.95377 69.7038 8.95377H63.9613C64.2361 10.0242 65.0317 10.733 65.943 10.9065C67.2448 11.138 68.7636 10.5449 69.4435 9.93738V11.948C68.619 12.5845 67.4907 12.9605 65.943 12.8738C63.5707 12.7291 61.6469 10.7908 61.6469 8.23053C61.6469 5.67024 63.5707 3.58729 65.943 3.58729H65.9574ZM67.7366 7.27584C67.7222 6.2633 66.9989 5.39541 65.9574 5.39541C65.0317 5.39541 64.2506 6.19098 63.9902 7.27584H67.7511H67.7366ZM73.7106 1.76472V10.4726C73.7106 11.543 73.6962 12.2373 74.1301 12.5989C72.6258 13.2354 71.295 12.758 71.295 10.4726V0H72.3075C73.2911 0 73.7106 0.70878 73.7106 1.76472ZM12.2204 3.58729C14.4769 3.58729 16.2995 4.96146 16.3573 8.37518C16.3573 8.88145 16.1403 8.95377 15.9668 8.95377H10.2242C10.499 10.0242 11.2946 10.733 12.2059 10.9065C13.5077 11.138 15.0265 10.5449 15.7064 9.93738V11.948C14.8819 12.5845 13.7536 12.9605 12.2059 12.8738C9.83365 12.7291 7.90982 10.7908 7.90982 8.23053C7.90982 5.67024 9.83365 3.58729 12.2059 3.58729H12.2204ZM13.9995 7.27584C13.9851 6.2633 13.2618 5.39541 12.2204 5.39541C11.2946 5.39541 10.5135 6.19098 10.2531 7.27584H14.014H13.9995ZM42.1048 7.623V12.6857H39.6892V3.76087H40.7017C41.6853 3.76087 42.1048 4.46965 42.1048 5.52559C42.1048 3.57283 45.7789 2.35778 47.0952 5.1929C48.0354 3.0087 53.0258 2.50243 53.0258 6.95762V12.6712H50.6102V7.01548C50.6102 4.74449 47.5581 5.4822 47.5581 7.59407V12.6568H45.1425V7.00101C45.1425 4.73002 42.0904 5.46773 42.0904 7.57961L42.1048 7.623ZM19.9735 1.76472V10.4726C19.9735 11.543 19.9591 12.2373 20.393 12.5989C18.8887 13.2354 17.5579 12.758 17.5579 10.4726V0H18.5704C19.5541 0 19.9735 0.70878 19.9735 1.76472ZM6.9262 2.29992C6.94067 2.61815 7.12871 2.84958 7.72177 2.84958H9.21166C9.89151 2.84958 10.0217 2.50243 10.0217 2.08295V0.433947H5.71115C6.27528 0.853429 6.86834 1.48988 6.91174 2.28545L6.9262 2.29992Z" fill="#FF0025"/>
</svg>
