<svg width="36" height="30" viewBox="0 0 36 30" fill="none" xmlns="http://www.w3.org/2000/svg">
<path d="M21.8955 1.19567C22.2148 0.994397 22.5965 0.820888 22.9782 0.931934C23.3183 1.05686 23.4363 1.45246 23.4224 1.7856C23.4224 5.9151 23.4224 10.0446 23.4224 14.1741C27.3298 14.1741 31.2372 14.1741 35.1447 14.1741C35.457 14.1741 35.8318 14.2782 35.9567 14.5975C36.0885 14.9792 35.8873 15.3609 35.7207 15.694C34.7005 17.5749 33.6317 19.4349 32.542 21.281C32.2228 21.7113 31.7925 22.1069 31.2581 22.2388C30.8139 22.3429 30.3489 22.3429 29.8978 22.3498C28.5999 22.3568 27.3021 22.3498 26.0112 22.3498C25.449 22.3498 24.8105 22.3707 24.3663 22.7663C23.9985 23.1202 24.0401 23.6893 24.1859 24.1404C24.4982 25.0982 25.102 25.9172 25.5462 26.8125C25.0881 26.5071 24.6439 26.174 24.2206 25.82C22.9019 24.654 21.7012 23.3631 20.681 21.9265C17.6272 17.6929 16.0448 12.5084 15.7603 7.33093C15.7117 6.19271 16.1767 4.95039 17.19 4.35352C18.7585 3.29859 20.327 2.2506 21.8955 1.19567Z" fill="#00C89E"/>
<path d="M0.741622 9.47553C0.90125 9.13545 1.31073 9.03135 1.65775 9.03829C4.03134 9.03829 6.40494 9.03829 8.7716 9.03829C9.18108 9.04523 9.61832 9.06605 9.98616 9.26038C10.3609 9.46165 10.6455 9.79478 10.937 10.1002C11.8045 11.0857 12.6651 12.0712 13.5327 13.0567C13.5813 13.1053 13.6715 13.2233 13.7409 13.1261C14.2198 12.6126 14.6709 12.0712 15.1428 11.5507C15.5384 14.07 16.5101 16.4783 17.8287 18.6507C19.5083 21.399 21.7153 23.8143 24.2208 25.827C24.6442 26.1809 25.0883 26.5071 25.5464 26.8194C25.831 27.1318 26.1086 27.458 26.3793 27.7772C26.5875 28.0201 26.7263 28.3602 26.5944 28.6725C26.4556 28.9779 26.0878 29.1028 25.7754 29.1028C23.381 29.1028 20.9866 29.1028 18.5852 29.1028C18.1827 29.1028 17.7593 29.0889 17.3915 28.9085C17.0098 28.7072 16.7114 28.381 16.4199 28.0687C15.5662 27.0971 14.7125 26.1254 13.8658 25.1538C13.8033 25.0774 13.7201 25.015 13.6437 24.9594C12.7415 25.9727 11.8531 26.9999 10.9578 28.0132C10.6594 28.3394 10.3609 28.6795 9.96534 28.8946C9.5975 29.0889 9.17414 29.1028 8.7716 29.1028C6.37024 29.1028 3.97582 29.1028 1.57446 29.1028C1.22745 29.1098 0.817966 28.964 0.71386 28.6101C0.609755 28.2422 0.831846 27.9021 1.06782 27.6453C3.55246 24.7859 6.04404 21.9265 8.54951 19.081C6.04404 16.1938 3.51776 13.3344 1.0123 10.4472C0.776324 10.1973 0.602815 9.82948 0.734681 9.48247L0.741622 9.47553Z" fill="#002BBA"/>
</svg>
